<?xml version="1.0" ?><svg height="24" id="svg8" version="1.1" viewBox="0 0 24 24" width="24" xmlns="http://www.w3.org/2000/svg" xmlns:cc="http://creativecommons.org/ns#" xmlns:dc="http://purl.org/dc/elements/1.1/" xmlns:rdf="http://www.w3.org/1999/02/22-rdf-syntax-ns#" xmlns:svg="http://www.w3.org/2000/svg"><defs id="defs2"/><g id="g2337" style="display:inline" transform="translate(-1.5e-5,-290.65)"><path d="m 18,292.65 c -2.19729,0 -4,1.80271 -4,4 0,0.28049 0.0321,0.55366 0.0879,0.81836 l -5.07228,2.58789 C 8.28019,299.20355 7.20551,298.65 6,298.65 c -2.19729,0 -4,1.80271 -4,4 0,2.1973 1.8027,4 4,4 1.20027,0 2.27059,-0.54823 3.00586,-1.39453 l 5.07617,2.58984 c -0.0538,0.26016 -0.082,0.52938 -0.082,0.80469 0,2.1973 1.8027,4 4,4 2.1973,0 4,-1.8027 4,-4 0,-2.19729 -1.80271,-4 -4,-4 -1.20703,0 -2.2821,0.5556 -3.01758,1.41016 l -5.07031,-2.58789 c 0.14135,-0.56278 0.14237,-1.11405 0.004,-1.63086 l 5.07617,-2.58789 c 0.7352,0.84749 1.80646,1.39648 3.00772,1.39648 2.1973,0 4,-1.8027 4,-4 0,-2.19729 -1.80271,-4 -4,-4 z m 0,2 c 1.11641,0 2,0.88359 2,2 0,1.11641 -0.88359,2 -2,2 -1.11641,0 -2,-0.88359 -2,-2 0,-1.11641 0.88359,-2 2,-2 z m -12,6 c 1.11641,0 2,0.88359 2,2 0,1.11641 -0.88359,2 -2,2 -1.11641,0 -2,-0.88359 -2,-2 0,-1.11641 0.88359,-2 2,-2 z m 12,6 c 1.11641,0 2,0.88359 2,2 0,1.11641 -0.88359,2 -2,2 -1.11641,0 -2,-0.88359 -2,-2 0,-1.11641 0.88359,-2 2,-2 z" id="path2322" style="color:#000000;font-style:normal;font-variant:normal;font-weight:normal;font-stretch:normal;font-size:medium;line-height:normal;font-family:sans-serif;font-variant-ligatures:normal;font-variant-position:normal;font-variant-caps:normal;font-variant-numeric:normal;font-variant-alternates:normal;font-variant-east-asian:normal;font-feature-settings:normal;font-variation-settings:normal;text-indent:0;text-align:start;text-decoration:none;text-decoration-line:none;text-decoration-style:solid;text-decoration-color:#000000;letter-spacing:normal;word-spacing:normal;text-transform:none;writing-mode:lr-tb;direction:ltr;text-orientation:mixed;dominant-baseline:auto;baseline-shift:baseline;text-anchor:start;white-space:normal;shape-padding:0;shape-margin:0;inline-size:0;clip-rule:nonzero;display:inline;overflow:visible;visibility:visible;opacity:1;isolation:auto;mix-blend-mode:normal;color-interpolation:sRGB;color-interpolation-filters:linearRGB;solid-color:#000000;solid-opacity:1;vector-effect:none;fill:#000000;fill-opacity:1;fill-rule:nonzero;stroke:none;stroke-linecap:round;stroke-linejoin:round;stroke-miterlimit:4;stroke-dasharray:none;stroke-dashoffset:0;stroke-opacity:1;color-rendering:auto;image-rendering:auto;shape-rendering:auto;text-rendering:auto;enable-background:accumulate;stop-color:#000000;stop-opacity:1"/></g></svg>