<?xml version="1.0" encoding="UTF-8"?>
<!DOCTYPE svg PUBLIC "-//W3C//DTD SVG 1.1//EN" "http://www.w3.org/Graphics/SVG/1.1/DTD/svg11.dtd">
<svg xmlns="http://www.w3.org/2000/svg" version="1.1" width="100px" height="100px" style="shape-rendering:geometricPrecision; text-rendering:geometricPrecision; image-rendering:optimizeQuality; fill-rule:evenodd; clip-rule:evenodd" xmlns:xlink="http://www.w3.org/1999/xlink">
<g><path style="opacity:0.676" fill="#000000" d="M 64.5,4.5 C 66.3464,4.22216 67.6798,4.88882 68.5,6.5C 67.6025,9.65739 65.7692,11.9907 63,13.5C 61.7202,13.3865 60.8869,12.7199 60.5,11.5C 61.5923,8.97634 62.9257,6.64301 64.5,4.5 Z"/></g>
<g><path style="opacity:0.934" fill="#000000" d="M 39.5,15.5 C 43.2727,14.8224 46.106,16.1558 48,19.5C 58.9103,33.6549 69.577,47.9882 80,62.5C 80.6667,63.5 80.6667,64.5 80,65.5C 75.9416,68.3002 71.4416,70.1336 66.5,71C 58.2687,73.1796 49.9354,74.8463 41.5,76C 33.1825,83.7754 23.5158,86.442 12.5,84C 5.90563,78.6479 3.40563,71.8146 5,63.5C 9.38202,57.6168 14.5487,52.6168 20.5,48.5C 21.4419,48.6082 22.2753,48.9415 23,49.5C 25.7533,54.0076 28.7533,58.3409 32,62.5C 29.5437,56.7746 26.3771,51.2746 22.5,46C 27.5308,35.4346 33.1974,25.268 39.5,15.5 Z M 15.5,65.5 C 16.552,65.3505 17.552,65.5172 18.5,66C 16.9452,67.2893 15.2785,67.956 13.5,68C 14.3805,67.2917 15.0472,66.4584 15.5,65.5 Z M 35.5,66.5 C 37.0847,67.0024 37.5847,68.0024 37,69.5C 35.9614,68.7562 35.4614,67.7562 35.5,66.5 Z M 18.5,69.5 C 19.552,69.3505 20.552,69.5172 21.5,70C 17.5289,73.4738 16.5289,73.3071 18.5,69.5 Z M 21.5,73.5 C 22.3764,73.3691 23.0431,73.7025 23.5,74.5C 19.7505,77.3034 19.0838,76.9701 21.5,73.5 Z"/></g>
<g><path style="opacity:0.673" fill="#000000" d="M 86.5,17.5 C 89.0764,17.7218 89.9098,19.0551 89,21.5C 87.2894,24.5797 84.7894,25.7464 81.5,25C 80.5494,24.2825 80.3828,23.4491 81,22.5C 82.7297,20.5981 84.563,18.9314 86.5,17.5 Z"/></g>
<g><path style="opacity:0.764" fill="#000000" d="M 62.5,28.5 C 70.1478,29.1357 73.1478,33.1357 71.5,40.5C 70.277,41.6139 68.9437,41.7805 67.5,41C 64.7625,37.9326 62.4292,34.5993 60.5,31C 61.0556,29.9889 61.7222,29.1556 62.5,28.5 Z"/></g>
<g><path style="opacity:0.679" fill="#000000" d="M 88.5,44.5 C 90.5,44.5 92.5,44.5 94.5,44.5C 95.1762,48.4905 93.5095,50.1571 89.5,49.5C 86.042,50.2259 84.3753,48.8925 84.5,45.5C 86.099,45.7678 87.4324,45.4345 88.5,44.5 Z"/></g>
<g><path style="opacity:0.816" fill="#000000" d="M 38.5,80.5 C 43.4261,82.9436 45.5928,86.9436 45,92.5C 42.4209,94.3467 39.5876,94.8467 36.5,94C 33.1085,92.311 30.1085,90.1443 27.5,87.5C 31.3311,85.4182 34.9977,83.0849 38.5,80.5 Z"/></g>
</svg>
