<?xml version="1.0" encoding="UTF-8"?>
<!DOCTYPE svg PUBLIC "-//W3C//DTD SVG 1.1//EN" "http://www.w3.org/Graphics/SVG/1.1/DTD/svg11.dtd">
<svg xmlns="http://www.w3.org/2000/svg" version="1.1" width="100px" height="100px" style="shape-rendering:geometricPrecision; text-rendering:geometricPrecision; image-rendering:optimizeQuality; fill-rule:evenodd; clip-rule:evenodd" xmlns:xlink="http://www.w3.org/1999/xlink">
<g><path style="opacity:0.935" fill="#000000" d="M 19.5,8.5 C 21.288,8.21478 22.9547,8.54811 24.5,9.5C 30.1569,20.583 36.8235,21.2497 44.5,11.5C 47.086,13.0426 49.586,14.7093 52,16.5C 50.9592,26.9135 48.7925,37.0802 45.5,47C 47.4546,49.9108 46.788,51.7441 43.5,52.5C 32.1781,50.3687 20.8448,48.3687 9.5,46.5C 10.8776,34.7758 12.7109,23.1091 15,11.5C 16.3103,10.1031 17.8103,9.10311 19.5,8.5 Z"/></g>
<g><path style="opacity:0.748" fill="#000000" d="M 26.5,8.5 C 31.5484,8.84157 36.5484,9.50823 41.5,10.5C 40.8852,13.9335 38.7185,15.9335 35,16.5C 30.3681,15.7004 27.5348,13.0337 26.5,8.5 Z"/></g>
<g><path style="opacity:0.666" fill="#000000" d="M 10.5,12.5 C 11.5862,12.62 12.2528,13.2867 12.5,14.5C 12.0294,18.3415 11.0294,22.0082 9.5,25.5C 6.89306,24.0594 5.22639,21.8927 4.5,19C 6.68315,16.9843 8.68315,14.8176 10.5,12.5 Z"/></g>
<g><path style="opacity:0.684" fill="#000000" d="M 53.5,19.5 C 56.2202,21.9173 58.2202,24.9173 59.5,28.5C 57.5,30.3271 55.3333,31.9938 53,33.5C 52.3076,32.9747 51.8076,32.3081 51.5,31.5C 52.5983,27.5767 53.265,23.5767 53.5,19.5 Z"/></g>
<g><path style="opacity:0.918" fill="#000000" d="M 72.5,36.5 C 74.1439,36.2865 75.6439,36.6198 77,37.5C 82.9707,50.6078 88.804,63.7745 94.5,77C 91.0683,80.8816 86.7349,82.8816 81.5,83C 77.4606,75.0874 73.294,67.254 69,59.5C 68.3076,60.0253 67.8076,60.6919 67.5,61.5C 69.812,69.4148 71.812,77.4148 73.5,85.5C 73.1822,86.6473 72.5156,87.4806 71.5,88C 67.5042,89.5138 63.5042,90.0138 59.5,89.5C 55.3349,74.5036 51.3349,59.5036 47.5,44.5C 56.1693,42.5887 64.5026,39.922 72.5,36.5 Z"/></g>
</svg>
