<?xml version="1.0" encoding="UTF-8"?>
<!DOCTYPE svg PUBLIC "-//W3C//DTD SVG 1.1//EN" "http://www.w3.org/Graphics/SVG/1.1/DTD/svg11.dtd">
<svg xmlns="http://www.w3.org/2000/svg" version="1.1" width="100px" height="100px" style="shape-rendering:geometricPrecision; text-rendering:geometricPrecision; image-rendering:optimizeQuality; fill-rule:evenodd; clip-rule:evenodd" xmlns:xlink="http://www.w3.org/1999/xlink">
<g><path style="opacity:0.86" fill="#000000" d="M 49.5,1.5 C 65.0779,1.17562 80.5779,1.50895 96,2.5C 92.4717,32.2967 89.4717,62.2967 87,92.5C 86.7508,93.624 86.2508,94.624 85.5,95.5C 63.5431,96.6555 41.5431,96.8221 19.5,96C 18.8453,90.9128 18.5119,85.7461 18.5,80.5C 20.675,65.2538 21.675,49.9204 21.5,34.5C 29.317,33.318 33.6504,36.6513 34.5,44.5C 40.6134,40.6592 47.1134,39.6592 54,41.5C 53.804,37.2091 53.6373,32.8757 53.5,28.5C 44.8333,28.5 36.1667,28.5 27.5,28.5C 27.3339,22.8236 27.5006,17.1569 28,11.5C 35.4205,10.6842 42.9205,10.1842 50.5,10C 49.5562,7.28086 49.2229,4.44753 49.5,1.5 Z M 52.5,3.5 C 66.1667,3.5 79.8333,3.5 93.5,3.5C 93.5,4.83333 93.5,6.16667 93.5,7.5C 79.8333,7.5 66.1667,7.5 52.5,7.5C 52.5,6.16667 52.5,4.83333 52.5,3.5 Z M 40.5,20.5 C 36.8622,19.7366 35.3622,21.0699 36,24.5C 39.4659,26.35 41.2993,25.35 41.5,21.5C 43.1376,22.657 44.8043,23.8236 46.5,25C 47.635,25.7494 48.635,25.5827 49.5,24.5C 48.1182,22.4514 46.4516,20.7847 44.5,19.5C 49.5867,19.7155 50.5867,17.8822 47.5,14C 49.8333,13.3333 52.1667,13.3333 54.5,14C 56.6471,16.2368 58.9804,18.2368 61.5,20C 59.208,21.2899 57.208,22.9565 55.5,25C 47.2767,26.4381 38.9433,26.9381 30.5,26.5C 30.5,22.1667 30.5,17.8333 30.5,13.5C 32.5273,13.3379 34.5273,13.5045 36.5,14C 35.5494,14.7175 35.3828,15.5509 36,16.5C 37.9923,17.3281 39.4923,18.6614 40.5,20.5 Z M 43.5,18.5 C 41.66,16.832 39.66,15.332 37.5,14C 40.1667,13.3333 42.8333,13.3333 45.5,14C 43.8934,15.049 43.2267,16.549 43.5,18.5 Z M 24.5,36.5 C 27.4118,36.7888 29.4118,38.2888 30.5,41C 27.2729,41.2865 25.2729,39.7865 24.5,36.5 Z M 69.5,38.5 C 81.3082,38.4655 84.8082,43.7989 80,54.5C 77.2369,56.9702 74.0703,57.8035 70.5,57C 68.7939,52.7919 66.4606,48.9586 63.5,45.5C 64.8334,42.5067 66.8334,40.1734 69.5,38.5 Z M 46.5,42.5 C 59.6927,43.3593 67.026,50.3593 68.5,63.5C 67.2036,76.1298 60.2036,83.1298 47.5,84.5C 43.9463,83.9454 40.613,82.7788 37.5,81C 36.5494,80.2825 36.3828,79.4491 37,78.5C 44.0545,82.2978 51.2212,82.4644 58.5,79C 67.1402,71.3777 68.6402,62.5443 63,52.5C 55.6496,45.0373 47.1496,43.5373 37.5,48C 33.4477,52.7992 32.781,52.4659 35.5,47C 39.0531,44.8792 42.7197,43.3792 46.5,42.5 Z M 22.5,58.5 C 25.8333,58.5 29.1667,58.5 32.5,58.5C 32.5,60.8333 32.5,63.1667 32.5,65.5C 29.1667,65.5 25.8333,65.5 22.5,65.5C 22.5,63.1667 22.5,60.8333 22.5,58.5 Z M 25.5,67.5 C 28.5,67.5 31.5,67.5 34.5,67.5C 34.5,76.1667 34.5,84.8333 34.5,93.5C 31.5,93.5 28.5,93.5 25.5,93.5C 25.5,84.8333 25.5,76.1667 25.5,67.5 Z M 60.5,84.5 C 68.6758,83.1791 77.0091,83.1791 85.5,84.5C 84.5934,87.4212 84.2601,90.4212 84.5,93.5C 83.1667,93.5 81.8333,93.5 80.5,93.5C 80.5,91.5 80.5,89.5 80.5,87.5C 74.1667,87.5 67.8333,87.5 61.5,87.5C 61.7373,86.209 61.404,85.209 60.5,84.5 Z M 36.5,84.5 C 41.6393,85.9407 41.6393,86.9407 36.5,87.5C 36.5,86.5 36.5,85.5 36.5,84.5 Z M 56.5,84.5 C 58.0481,84.8212 58.7148,85.8212 58.5,87.5C 55.7524,87.5983 55.0857,86.5983 56.5,84.5 Z M 36.5,89.5 C 47.1874,89.168 57.8541,89.5013 68.5,90.5C 68.0233,91.4776 67.3567,92.3109 66.5,93C 56.5056,93.4998 46.5056,93.6665 36.5,93.5C 36.5,92.1667 36.5,90.8333 36.5,89.5 Z"/></g>
<g><path style="opacity:0.828" fill="#000000" d="M 8.5,12.5 C 14.605,11.651 20.105,12.9843 25,16.5C 25.1667,17.6667 25.3333,18.8333 25.5,20C 24.0227,25.4548 21.856,30.6215 19,35.5C 18.0493,55.1697 17.0493,74.8363 16,94.5C 14.3333,97.1667 12.6667,97.1667 11,94.5C 10.1279,74.8257 9.12793,55.1591 8,35.5C 5.14401,30.6215 2.97735,25.4548 1.5,20C 2.61253,16.3866 4.94586,13.8866 8.5,12.5 Z M 11.5,36.5 C 13.1992,36.3398 14.8659,36.5065 16.5,37C 15.5399,40.73 15.2065,44.5633 15.5,48.5C 14.1667,48.5 12.8333,48.5 11.5,48.5C 11.5,44.5 11.5,40.5 11.5,36.5 Z"/></g>
<g><path style="opacity:0.58" fill="#000000" d="M 40.5,20.5 C 40.5,21.1667 40.8333,21.5 41.5,21.5C 41.2993,25.35 39.4659,26.35 36,24.5C 35.3622,21.0699 36.8622,19.7366 40.5,20.5 Z"/></g>
</svg>
