<?xml version="1.0" standalone="no"?>
<!DOCTYPE svg PUBLIC "-//W3C//DTD SVG 20010904//EN"
 "http://www.w3.org/TR/2001/REC-SVG-20010904/DTD/svg10.dtd">
<svg version="1.0" xmlns="http://www.w3.org/2000/svg"
 width="300.000000pt" height="228.000000pt" viewBox="0 0 300.000000 228.000000"
 preserveAspectRatio="xMidYMid meet">
<metadata>
Created by potrace 1.16, written by Peter Selinger 2001-2019
</metadata>
<g transform="translate(0.000000,228.000000) scale(0.100000,-0.100000)"
fill="#000000" stroke="none">
<path d="M935 1968 c-14 -24 -16 -64 -16 -255 l0 -228 285 -5 286 -5 0 128 0
127 25 0 25 0 0 -128 0 -127 45 3 45 4 0 234 c0 214 -2 237 -18 255 -18 18
-34 20 -340 22 l-321 2 -16 -27z"/>
<path d="M2430 1935 c-8 -10 -30 -15 -61 -15 -32 0 -49 -4 -50 -12 -4 -61 -42
-161 -86 -228 -13 -19 -23 -37 -23 -40 0 -3 49 -3 110 -2 l110 4 0 -31 c0 -17
-5 -31 -12 -31 -9 0 -9 -3 0 -12 17 -17 15 -41 -5 -75 -15 -27 -15 -33 -1 -79
11 -33 17 -91 18 -182 l1 -132 -216 2 -216 3 0 137 c0 76 3 142 6 148 3 5 25
10 48 10 73 0 138 58 107 95 -17 21 -44 19 -65 -5 -25 -27 -60 -25 -84 6 -31
39 -25 48 108 164 71 62 91 93 91 144 0 31 -20 66 -39 66 -17 0 -31 -26 -31
-57 0 -27 -9 -39 -62 -82 -39 -32 -66 -47 -72 -41 -5 5 -8 44 -7 87 2 90 -5
106 -45 101 l-29 -3 -3 -90 c-2 -49 -7 -94 -12 -99 -5 -5 -34 12 -69 39 -56
44 -61 51 -61 86 0 28 -5 41 -21 49 -31 17 -49 -4 -49 -59 1 -55 12 -77 65
-121 87 -73 145 -135 145 -156 0 -25 -29 -54 -54 -54 -10 0 -31 9 -47 21 -38
27 -69 18 -69 -19 1 -38 43 -66 110 -72 l55 -5 3 -152 3 -152 -28 -15 c-31
-16 -75 -60 -91 -91 -5 -11 -13 -39 -17 -61 l-6 -42 48 -7 c26 -3 59 -13 71
-22 31 -19 52 -71 52 -127 0 -33 6 -52 24 -73 l24 -28 193 -3 c106 -2 203 -1
216 2 36 10 63 46 63 85 0 96 44 153 126 166 l46 7 -5 39 c-9 68 -50 124 -113
155 l-55 27 2 131 c1 85 7 148 16 179 14 44 14 51 -3 88 -14 33 -15 44 -6 60
7 11 8 19 2 19 -5 0 -10 14 -10 31 l0 30 110 -3 c61 -2 110 0 110 4 0 3 -15
29 -33 57 -33 49 -43 76 -69 176 l-13 49 -51 -3 c-39 -2 -53 1 -57 13 -8 20
-21 20 -37 1z"/>
<path d="M227 1692 c-15 -16 -17 -44 -17 -193 1 -129 4 -179 14 -191 12 -16
39 -18 315 -18 l302 0 10 30 c6 17 16 30 22 30 7 0 7 4 -1 12 -8 8 -12 59 -12
164 0 84 -3 159 -6 168 -5 14 -42 16 -309 16 -280 0 -303 -1 -318 -18z"/>
<path d="M920 1413 c0 -5 -1 -247 -1 -538 0 -441 3 -536 14 -559 l15 -27 322
0 323 0 19 29 c17 28 18 58 16 563 l-3 534 -40 0 -40 0 -5 -330 -5 -330 -22
-2 -23 -3 0 335 0 335 -285 0 c-157 0 -285 -3 -285 -7z m350 -304 c0 -31 -3
-64 -6 -73 -7 -19 -74 -22 -92 -4 -10 10 -15 10 -21 -1 -19 -31 -33 -5 -33 62
1 37 1 69 1 72 1 3 35 5 76 4 l75 -2 0 -58z"/>
<path d="M250 1243 c-39 -14 -40 -23 -40 -474 0 -306 3 -446 11 -463 l12 -25
304 -1 303 0 13 27 c15 36 20 844 5 885 -21 56 -33 58 -325 57 -147 0 -275 -3
-283 -6z m550 -138 c0 -13 -36 -15 -264 -15 -240 0 -288 4 -269 24 3 3 125 6
270 6 227 0 263 -2 263 -15z m-245 -195 c4 -6 10 -8 15 -5 5 3 31 -1 57 -10
58 -19 127 -81 144 -130 7 -19 16 -35 20 -35 3 0 4 -11 1 -25 -2 -15 0 -25 7
-25 6 0 11 -11 11 -25 0 -14 -5 -25 -11 -25 -7 0 -10 -12 -7 -30 2 -16 2 -31
-1 -32 -3 -2 -15 -21 -26 -43 -20 -40 -65 -97 -65 -82 0 4 -10 -1 -21 -12 -12
-11 -35 -23 -50 -26 -16 -4 -29 -10 -29 -14 0 -4 -36 -4 -80 1 -75 7 -140 29
-140 47 0 4 -11 13 -24 20 -27 15 -66 79 -66 109 0 11 -5 22 -11 24 -15 5 -15
111 0 116 6 2 11 16 11 32 0 19 15 44 47 80 50 56 93 80 142 80 16 0 33 5 36
10 8 13 32 13 40 0z"/>
<path d="M450 825 c-48 -22 -100 -88 -100 -129 0 -9 -4 -16 -10 -16 -5 0 -10
-13 -10 -30 0 -16 5 -30 10 -30 6 0 10 -11 10 -25 0 -14 12 -39 28 -55 15 -17
32 -36 39 -44 22 -26 110 -40 170 -26 59 13 80 31 113 95 32 63 22 173 -17
198 -7 4 -13 14 -13 20 0 42 -154 71 -220 42z m130 -35 c0 -5 6 -10 13 -10 7
0 22 -7 34 -15 19 -14 21 -19 11 -48 -6 -17 -14 -34 -18 -37 -3 -3 -9 -13 -13
-22 -5 -15 -19 -18 -81 -18 l-75 0 -20 53 -20 52 21 18 c11 9 26 17 34 17 8 0
14 5 14 10 0 6 23 10 50 10 28 0 50 -4 50 -10z"/>
<path d="M1755 843 c-60 -16 -95 -67 -95 -137 0 -53 33 -98 85 -118 l35 -12 0
-69 c0 -81 20 -133 62 -156 17 -10 28 -24 28 -38 0 -22 4 -23 71 -23 66 0 71
1 66 20 -5 20 0 20 204 20 202 0 209 -1 209 -20 0 -18 7 -20 70 -20 65 0 70 2
70 21 0 12 11 30 25 41 41 32 55 70 55 152 0 74 0 74 30 81 16 3 43 22 60 41
25 29 30 43 30 89 0 43 -5 59 -26 84 -29 34 -82 53 -126 44 -42 -8 -96 -65
-103 -108 -3 -19 -7 -51 -10 -70 -3 -19 -16 -44 -27 -55 -20 -19 -36 -20 -251
-20 -144 0 -236 4 -249 11 -24 13 -48 67 -48 111 0 81 -89 152 -165 131z"/>
</g>
</svg>
