<?xml version="1.0" encoding="UTF-8"?>
<!DOCTYPE svg PUBLIC "-//W3C//DTD SVG 1.1//EN" "http://www.w3.org/Graphics/SVG/1.1/DTD/svg11.dtd">
<svg xmlns="http://www.w3.org/2000/svg" version="1.1" width="417px" height="417px" style="shape-rendering:geometricPrecision; text-rendering:geometricPrecision; image-rendering:optimizeQuality; fill-rule:evenodd; clip-rule:evenodd" xmlns:xlink="http://www.w3.org/1999/xlink">
<g><path style="opacity:0.595" fill="#000000" d="M 144.5,16.5 C 155.863,15.5471 164.529,19.8804 170.5,29.5C 180.65,35.4208 191.65,38.7541 203.5,39.5C 210.446,49.2855 207.946,53.9522 196,53.5C 177.179,52.3801 161.346,45.0468 148.5,31.5C 146.073,26.7921 144.74,21.7921 144.5,16.5 Z"/></g>
<g><path style="opacity:0.633" fill="#000000" d="M 188.5,16.5 C 197.857,16.1684 207.19,16.5017 216.5,17.5C 221.46,19.647 226.127,22.3136 230.5,25.5C 232,25.8333 233.5,26.1667 235,26.5C 246.434,23.6914 257.767,24.0247 269,27.5C 277.08,31.935 280.247,38.6017 278.5,47.5C 267.72,44.2027 256.72,41.8694 245.5,40.5C 241.384,40.8255 237.384,41.6588 233.5,43C 231.924,43.4396 230.59,44.273 229.5,45.5C 224.909,41.4076 219.909,37.9076 214.5,35C 205.978,32.6456 198.311,29.9789 191.5,27C 188.9,24.0164 187.9,20.5164 188.5,16.5 Z"/></g>
<g><path style="opacity:0.92" fill="#000000" d="M 259.5,53.5 C 270.968,53.3662 282.302,54.3662 293.5,56.5C 295.379,68.0563 296.879,79.723 298,91.5C 298.5,103.495 298.667,115.495 298.5,127.5C 301.5,127.5 304.5,127.5 307.5,127.5C 307.5,165.5 307.5,203.5 307.5,241.5C 232.833,241.5 158.167,241.5 83.5,241.5C 83.1867,195.477 83.5201,149.477 84.5,103.5C 108.571,92.7635 132.738,82.0969 157,71.5C 159.64,71.4733 160.973,72.8066 161,75.5C 162.849,83.7471 164.183,92.0804 165,100.5C 185.702,90.1964 206.702,80.1964 228,70.5C 229.908,84.9988 231.075,99.6655 231.5,114.5C 230.799,118.808 230.466,123.141 230.5,127.5C 245.833,127.5 261.167,127.5 276.5,127.5C 276.5,125.167 276.5,122.833 276.5,120.5C 268.5,120.5 260.5,120.5 252.5,120.5C 253.17,99.9038 254.337,79.2371 256,58.5C 256.964,56.635 258.131,54.9683 259.5,53.5 Z M 109.5,125.5 C 111.833,125.5 114.167,125.5 116.5,125.5C 116.5,130.833 116.5,136.167 116.5,141.5C 114.167,141.5 111.833,141.5 109.5,141.5C 109.5,136.167 109.5,130.833 109.5,125.5 Z M 128.5,125.5 C 130.857,125.337 133.19,125.503 135.5,126C 134.188,130.803 134.188,135.636 135.5,140.5C 133.257,141.474 130.924,141.808 128.5,141.5C 128.5,136.167 128.5,130.833 128.5,125.5 Z M 152.5,126.5 C 154.948,125.527 157.615,125.194 160.5,125.5C 160.5,130.833 160.5,136.167 160.5,141.5C 157.813,141.664 155.146,141.497 152.5,141C 153.824,136.067 153.824,131.234 152.5,126.5 Z M 177.5,125.5 C 179.5,125.5 181.5,125.5 183.5,125.5C 183.5,130.833 183.5,136.167 183.5,141.5C 181.5,141.5 179.5,141.5 177.5,141.5C 177.5,136.167 177.5,130.833 177.5,125.5 Z M 196.5,125.5 C 199.187,125.336 201.854,125.503 204.5,126C 203.529,131.072 203.195,136.238 203.5,141.5C 201.167,141.5 198.833,141.5 196.5,141.5C 196.5,136.167 196.5,130.833 196.5,125.5 Z M 109.5,158.5 C 111.357,161.018 113.19,161.018 115,158.5C 116.404,164.044 116.904,169.71 116.5,175.5C 114.167,175.5 111.833,175.5 109.5,175.5C 109.5,169.833 109.5,164.167 109.5,158.5 Z M 128.5,158.5 C 130.49,159.999 132.823,160.832 135.5,161C 134.167,165.667 134.167,170.333 135.5,175C 133.19,175.497 130.857,175.663 128.5,175.5C 128.5,169.833 128.5,164.167 128.5,158.5 Z M 158.5,158.5 C 159.222,158.918 159.722,159.584 160,160.5C 160.499,165.489 160.666,170.489 160.5,175.5C 157.813,175.664 155.146,175.497 152.5,175C 153.469,170.263 153.803,165.43 153.5,160.5C 155.781,160.923 157.448,160.256 158.5,158.5 Z M 177.5,158.5 C 179.357,161.018 181.19,161.018 183,158.5C 183.499,164.157 183.666,169.824 183.5,175.5C 181.5,175.5 179.5,175.5 177.5,175.5C 177.5,169.833 177.5,164.167 177.5,158.5 Z M 235.5,158.5 C 240.87,160.379 246.537,161.045 252.5,160.5C 252.5,162.5 252.5,164.5 252.5,166.5C 246.833,166.5 241.167,166.5 235.5,166.5C 235.5,163.833 235.5,161.167 235.5,158.5 Z M 265.5,158.5 C 270.532,160.37 275.865,161.037 281.5,160.5C 281.5,162.5 281.5,164.5 281.5,166.5C 275.824,166.666 270.157,166.499 264.5,166C 265.435,163.619 265.768,161.119 265.5,158.5 Z M 196.5,160.5 C 198.833,160.5 201.167,160.5 203.5,160.5C 203.5,165.5 203.5,170.5 203.5,175.5C 201.167,175.5 198.833,175.5 196.5,175.5C 196.5,170.5 196.5,165.5 196.5,160.5 Z M 109.5,193.5 C 111.833,193.5 114.167,193.5 116.5,193.5C 116.904,199.29 116.404,204.956 115,210.5C 113.333,207.833 111.667,207.833 110,210.5C 109.501,204.843 109.334,199.176 109.5,193.5 Z M 128.5,193.5 C 130.857,193.337 133.19,193.503 135.5,194C 134.691,199.417 134.191,204.917 134,210.5C 132.333,207.833 130.667,207.833 129,210.5C 128.501,204.843 128.334,199.176 128.5,193.5 Z M 152.5,194.5 C 154.948,193.527 157.615,193.194 160.5,193.5C 160.904,199.29 160.404,204.956 159,210.5C 157.333,207.833 155.667,207.833 154,210.5C 153.827,204.984 153.327,199.651 152.5,194.5 Z M 177.5,193.5 C 179.5,193.5 181.5,193.5 183.5,193.5C 183.666,199.176 183.499,204.843 183,210.5C 181.333,207.833 179.667,207.833 178,210.5C 177.501,204.843 177.334,199.176 177.5,193.5 Z M 196.5,193.5 C 198.833,193.5 201.167,193.5 203.5,193.5C 203.829,199.206 203.495,204.872 202.5,210.5C 201.304,210.154 201.304,209.654 202.5,209C 200.527,208.505 198.527,208.338 196.5,208.5C 196.5,203.5 196.5,198.5 196.5,193.5 Z"/></g>
<g><path style="opacity:0.903" fill="#000000" d="M 334.5,243.5 C 365.317,240.316 378.983,253.983 375.5,284.5C 373.641,282.808 371.641,281.308 369.5,280C 368.167,279.333 366.833,279.333 365.5,280C 377.846,290.554 380.846,303.387 374.5,318.5C 368.279,316.372 361.946,314.539 355.5,313C 349.056,312.085 342.723,312.419 336.5,314C 369.633,313.788 384.466,329.954 381,362.5C 372.965,379.77 359.465,386.936 340.5,384C 317.652,375.205 293.985,370.039 269.5,368.5C 272.391,361.05 275.558,353.717 279,346.5C 284.46,345.107 289.96,343.774 295.5,342.5C 290.73,316.339 301.397,301.339 327.5,297.5C 327.5,296.5 327.5,295.5 327.5,294.5C 323.756,293.145 320.089,293.312 316.5,295C 307.631,299.265 299.631,304.765 292.5,311.5C 283.266,298.638 282.099,284.972 289,270.5C 302.011,256.524 317.178,253.69 334.5,262C 337.64,264.228 340.306,266.895 342.5,270C 344.774,270.463 345.941,269.63 346,267.5C 339.395,260.792 331.895,255.459 323.5,251.5C 326.647,248.005 330.313,245.339 334.5,243.5 Z"/></g>
<g><path style="opacity:0.516" fill="#000000" d="M 83.5,252.5 C 89.5723,251.777 95.0723,253.111 100,256.5C 101.713,261.199 100.213,263.532 95.5,263.5C 95.816,274.513 90.4827,279.18 79.5,277.5C 78.9927,272.879 79.826,268.546 82,264.5C 84.9304,262.934 88.0971,262.1 91.5,262C 88.978,260.659 86.3113,259.826 83.5,259.5C 83.5,257.167 83.5,254.833 83.5,252.5 Z"/></g>
<g><path style="opacity:0.512" fill="#000000" d="M 134.5,252.5 C 137.833,252.5 141.167,252.5 144.5,252.5C 144.5,254.833 144.5,257.167 144.5,259.5C 141.608,259.721 138.941,260.554 136.5,262C 142.128,261.225 145.962,263.392 148,268.5C 148.498,271.482 148.665,274.482 148.5,277.5C 138.088,279.226 132.588,274.893 132,264.5C 127.794,263.43 126.461,260.763 128,256.5C 130.314,255.267 132.481,253.933 134.5,252.5 Z"/></g>
<g><path style="opacity:0.933" fill="#000000" d="M 218.5,268.5 C 223.5,268.5 228.5,268.5 233.5,268.5C 233.5,280.833 233.5,293.167 233.5,305.5C 247.167,305.5 260.833,305.5 274.5,305.5C 275.123,321.313 273.956,336.979 271,352.5C 266.058,363.384 261.391,374.384 257,385.5C 251.677,387.237 246.177,387.904 240.5,387.5C 240.66,382.434 240.16,377.434 239,372.5C 237.667,371.167 236.333,371.167 235,372.5C 234.088,377.464 233.588,382.464 233.5,387.5C 230.833,387.5 228.167,387.5 225.5,387.5C 225.666,383.486 225.499,379.486 225,375.5C 224.366,371.403 222.699,370.736 220,373.5C 219.501,378.155 219.334,382.821 219.5,387.5C 216.5,387.5 213.5,387.5 210.5,387.5C 210.666,382.821 210.499,378.155 210,373.5C 207.301,370.736 205.634,371.403 205,375.5C 204.501,379.486 204.334,383.486 204.5,387.5C 202.167,387.5 199.833,387.5 197.5,387.5C 197.5,360.167 197.5,332.833 197.5,305.5C 204.5,305.5 211.5,305.5 218.5,305.5C 218.5,293.167 218.5,280.833 218.5,268.5 Z"/></g>
<g><path style="opacity:0.529" fill="#000000" d="M 48.5,271.5 C 53.5152,272.844 55.5152,276.177 54.5,281.5C 52.1432,281.337 49.8098,281.503 47.5,282C 52.3249,283.895 57.3249,284.728 62.5,284.5C 62.5,287.167 62.5,289.833 62.5,292.5C 52.5901,292.989 43.4235,290.656 35,285.5C 34.2937,283.029 34.627,280.695 36,278.5C 39.9866,275.759 44.1533,273.426 48.5,271.5 Z"/></g>
<g><path style="opacity:0.531" fill="#000000" d="M 167.5,271.5 C 175.938,271.025 183.605,273.192 190.5,278C 191.899,279.062 192.899,280.395 193.5,282C 188.822,289.506 182.155,292.339 173.5,290.5C 172.585,289.672 171.919,288.672 171.5,287.5C 173.607,284.939 176.274,283.106 179.5,282C 174.899,280.516 170.232,279.35 165.5,278.5C 165.878,276.079 166.545,273.746 167.5,271.5 Z"/></g>
<g><path style="opacity:0.612" fill="#000000" d="M 90.5,277.5 C 110.809,278.286 131.143,278.786 151.5,279C 153.9,279.186 156.234,279.686 158.5,280.5C 158.833,281.167 159.167,281.833 159.5,282.5C 144.446,284.853 129.279,285.853 114,285.5C 98.7969,285.521 83.6303,284.854 68.5,283.5C 68.4208,282.07 68.7542,280.736 69.5,279.5C 76.6553,278.833 83.6553,278.167 90.5,277.5 Z"/></g>
<g><path style="opacity:0.699" fill="#000000" d="M 77.5,288.5 C 80.8502,288.506 83.8502,289.506 86.5,291.5C 85.4519,293.456 84.9519,295.456 85,297.5C 86.903,294.829 87.7363,291.829 87.5,288.5C 93.5,288.5 99.5,288.5 105.5,288.5C 105.666,294.842 105.5,301.175 105,307.5C 100.165,306.081 97.1648,307.747 96,312.5C 98.405,311.726 100.905,311.226 103.5,311C 112.888,310.729 122.222,310.562 131.5,310.5C 129.443,307.046 126.61,306.046 123,307.5C 122.5,301.175 122.334,294.842 122.5,288.5C 128.5,288.5 134.5,288.5 140.5,288.5C 140.062,291.893 140.895,294.893 143,297.5C 143.004,295.632 142.504,293.798 141.5,292C 145.956,287.561 150.623,287.395 155.5,291.5C 159.583,299.749 162.25,308.416 163.5,317.5C 158.833,317.5 154.167,317.5 149.5,317.5C 149.752,314.68 149.252,312.014 148,309.5C 147.346,308.304 146.846,308.304 146.5,309.5C 147.577,311.729 148.244,314.063 148.5,316.5C 142.713,318.508 137.547,317.508 133,313.5C 130.07,315.255 126.903,316.422 123.5,317C 117.167,317.667 110.833,317.667 104.5,317C 101.097,316.422 97.9301,315.255 95,313.5C 90.4535,317.508 85.2868,318.508 79.5,316.5C 79.8511,314.131 80.0178,311.797 80,309.5C 78.6591,312.022 77.8257,314.689 77.5,317.5C 72.8215,317.666 68.1548,317.499 63.5,317C 65.3986,308.139 68.3986,299.639 72.5,291.5C 74.1446,290.304 75.8113,289.304 77.5,288.5 Z"/></g>
<g><path style="opacity:0.631" fill="#000000" d="M 106.5,288.5 C 111.167,288.5 115.833,288.5 120.5,288.5C 120.5,294.833 120.5,301.167 120.5,307.5C 115.833,307.5 111.167,307.5 106.5,307.5C 106.5,301.167 106.5,294.833 106.5,288.5 Z"/></g>
<g><path style="opacity:0.812" fill="#000000" d="M 62.5,318.5 C 66.8333,318.5 71.1667,318.5 75.5,318.5C 75.3339,335.52 75.8339,352.52 77,369.5C 77.2896,371.044 77.9563,372.377 79,373.5C 79.4999,355.17 79.6666,336.836 79.5,318.5C 102.5,318.5 125.5,318.5 148.5,318.5C 148.333,336.836 148.5,355.17 149,373.5C 149.862,371.913 150.529,370.246 151,368.5C 152.017,351.848 152.517,335.181 152.5,318.5C 160.897,318.454 169.23,319.12 177.5,320.5C 178.634,342.469 178.801,364.469 178,386.5C 177.612,387.428 176.945,388.095 176,388.5C 133.84,391.147 91.6733,391.147 49.5,388.5C 49.569,377.322 49.2357,366.156 48.5,355C 49.0693,343.837 49.5693,332.67 50,321.5C 54.2347,320.357 58.4014,319.357 62.5,318.5 Z M 58.5,347.5 C 60.6547,347.372 62.6547,347.872 64.5,349C 62.8659,349.494 61.1992,349.66 59.5,349.5C 59.6495,350.552 59.4828,351.552 59,352.5C 58.5065,350.866 58.3398,349.199 58.5,347.5 Z M 165.5,347.5 C 166.833,347.5 168.167,347.5 169.5,347.5C 169.66,349.199 169.494,350.866 169,352.5C 168.517,351.552 168.351,350.552 168.5,349.5C 166.801,349.66 165.134,349.494 163.5,349C 164.416,348.722 165.082,348.222 165.5,347.5 Z"/></g>
<g><path style="opacity:0.37" fill="#000000" d="M 53.5,392.5 C 56.5,392.5 59.5,392.5 62.5,392.5C 62.5,394.833 62.5,397.167 62.5,399.5C 59.5,399.5 56.5,399.5 53.5,399.5C 53.5,397.167 53.5,394.833 53.5,392.5 Z"/></g>
<g><path style="opacity:0.369" fill="#000000" d="M 165.5,392.5 C 168.5,392.5 171.5,392.5 174.5,392.5C 174.5,394.833 174.5,397.167 174.5,399.5C 171.5,399.5 168.5,399.5 165.5,399.5C 165.5,397.167 165.5,394.833 165.5,392.5 Z"/></g>
</svg>
