<?xml version="1.0" encoding="UTF-8"?>
<!DOCTYPE svg PUBLIC "-//W3C//DTD SVG 1.1//EN" "http://www.w3.org/Graphics/SVG/1.1/DTD/svg11.dtd">
<svg xmlns="http://www.w3.org/2000/svg" version="1.1" width="417px" height="417px" style="shape-rendering:geometricPrecision; text-rendering:geometricPrecision; image-rendering:optimizeQuality; fill-rule:evenodd; clip-rule:evenodd" xmlns:xlink="http://www.w3.org/1999/xlink">
<g><path style="opacity:0.903" fill="#000000" d="M 147.5,54.5 C 167.174,53.7093 186.507,55.876 205.5,61C 215.717,75.0995 224.383,90.0995 231.5,106C 226.505,136.7 210.838,160.033 184.5,176C 176.133,181.561 167.133,182.894 157.5,180C 144.598,177.881 133.265,172.548 123.5,164C 109.435,147.351 100.435,128.184 96.5,106.5C 99.7831,97.9326 103.616,89.5992 108,81.5C 112.58,75.3402 116.914,69.0069 121,62.5C 122.171,61.1068 123.671,60.2735 125.5,60C 133.068,58.5924 140.402,56.7591 147.5,54.5 Z"/></g>
<g><path style="opacity:0.914" fill="#000000" d="M 65.5,101.5 C 72.5079,101.334 79.5079,101.5 86.5,102C 89.9637,114.329 94.1304,126.496 99,138.5C 106.295,151.798 115.795,163.298 127.5,173C 138.346,179.59 149.346,185.923 160.5,192C 159.346,192.914 159.513,193.747 161,194.5C 161.114,199.771 158.947,203.937 154.5,207C 157.085,210.175 159.419,213.509 161.5,217C 157.647,221.197 154.147,225.697 151,230.5C 146.228,238.934 141.062,247.1 135.5,255C 142.708,271.267 152.041,286.1 163.5,299.5C 167.226,295.728 170.726,291.728 174,287.5C 180.797,277.411 186.964,266.911 192.5,256C 184.124,243.413 175.624,230.913 167,218.5C 166.333,217.5 166.333,216.5 167,215.5C 168.848,212.989 170.681,210.489 172.5,208C 167.335,202.677 166.335,196.677 169.5,190C 208.892,173.777 232.558,144.61 240.5,102.5C 259.464,102.27 278.13,104.77 296.5,110C 305.054,113.472 313.721,116.639 322.5,119.5C 320.82,135.58 318.487,151.58 315.5,167.5C 310.292,167.937 305.625,169.77 301.5,173C 296.945,178.555 292.779,184.388 289,190.5C 286.696,199.123 288.863,206.289 295.5,212C 258.542,236.849 246.042,271.015 258,314.5C 260.639,321.112 263.806,327.446 267.5,333.5C 264.113,342.506 260.446,351.339 256.5,360C 194.833,361.995 133.166,361.995 71.5,360C 40.0029,285.157 18.0029,207.49 5.5,127C 5.56761,124.05 6.23428,121.383 7.5,119C 26.3496,111.291 45.6829,105.458 65.5,101.5 Z"/></g>
<g><path style="opacity:0.834" fill="#0d556e" d="M 316.5,173.5 C 316.918,174.222 317.584,174.722 318.5,175C 317.584,175.278 316.918,175.778 316.5,176.5C 315.206,177.29 314.039,178.29 313,179.5C 311.927,178.72 310.76,178.887 309.5,180C 309.833,180.333 310.167,180.667 310.5,181C 309.167,181.333 307.833,181.667 306.5,182C 307,182.5 307.5,183 308,183.5C 310,183.5 312,183.5 314,183.5C 314.167,183.167 314.333,182.833 314.5,182.5C 313.624,181.749 312.624,181.249 311.5,181C 314.065,180.391 316.399,180.891 318.5,182.5C 317.841,185.408 317.007,185.742 316,183.5C 315.292,184.381 314.458,185.047 313.5,185.5C 313.167,185.5 312.833,185.5 312.5,185.5C 310.758,185.348 308.924,185.348 307,185.5C 306.333,182.833 305.667,182.833 305,185.5C 304.667,184.833 304.333,184.167 304,183.5C 302.989,184.337 301.822,184.67 300.5,184.5C 301.757,181.573 303.757,179.239 306.5,177.5C 307.933,179.558 309.599,179.392 311.5,177C 310.944,176.617 310.611,176.117 310.5,175.5C 312.102,173.926 314.102,173.259 316.5,173.5 Z"/></g>
<g><path style="opacity:0.929" fill="#0d556e" d="M 316.5,173.5 C 324.167,173.5 331.833,173.5 339.5,173.5C 339.291,174.922 338.791,176.255 338,177.5C 336.649,177.446 335.482,177.946 334.5,179C 334.833,179.5 335.167,180 335.5,180.5C 336.451,179.674 337.451,179.508 338.5,180C 337.142,180.934 335.808,181.768 334.5,182.5C 331.287,182.19 328.287,182.523 325.5,183.5C 324.312,182.952 323.145,182.619 322,182.5C 321.283,183.044 320.783,183.711 320.5,184.5C 320.092,185.643 319.425,186.643 318.5,187.5C 317.313,186.347 316.313,186.347 315.5,187.5C 314.5,187.167 313.833,186.5 313.5,185.5C 314.458,185.047 315.292,184.381 316,183.5C 317.007,185.742 317.841,185.408 318.5,182.5C 318.649,181.448 318.483,180.448 318,179.5C 317.086,180.654 316.253,180.487 315.5,179C 316.252,178.329 316.586,177.496 316.5,176.5C 316.918,175.778 317.584,175.278 318.5,175C 317.584,174.722 316.918,174.222 316.5,173.5 Z"/></g>
<g><path style="opacity:0.692" fill="#0c556e" d="M 310.5,175.5 C 310.611,176.117 310.944,176.617 311.5,177C 309.599,179.392 307.933,179.558 306.5,177.5C 307.605,176.4 308.938,175.733 310.5,175.5 Z"/></g>
<g><path style="opacity:0.999" fill="#0c556e" d="M 345.5,183.5 C 344.432,182.566 343.099,182.232 341.5,182.5C 340.016,177.502 340.849,177.169 344,181.5C 346.943,180.76 347.109,179.76 344.5,178.5C 346.505,176.486 348.839,175.653 351.5,176C 351.899,178.479 351.399,180.979 350,183.5C 348.568,181.069 347.068,181.069 345.5,183.5 Z"/></g>
<g><path style="opacity:0.985" fill="#0d556e" d="M 339.5,173.5 C 343.833,173.5 348.167,173.5 352.5,173.5C 352.953,174.458 353.619,175.292 354.5,176C 354.167,176.333 353.833,176.667 353.5,177C 355.424,178.267 357.09,178.267 358.5,177C 357.269,175.595 355.936,174.429 354.5,173.5C 357.079,173.394 359.412,174.061 361.5,175.5C 360.194,176.467 359.527,177.801 359.5,179.5C 358.36,180.801 357.027,181.968 355.5,183C 357.929,183.451 358.096,184.285 356,185.5C 355,184.167 354,184.167 353,185.5C 352.667,184.833 352.333,184.167 352,183.5C 351.802,185.382 351.302,187.048 350.5,188.5C 349.895,186.974 348.729,185.974 347,185.5C 346.282,186.451 345.449,186.617 344.5,186C 345.252,185.329 345.586,184.496 345.5,183.5C 347.068,181.069 348.568,181.069 350,183.5C 351.399,180.979 351.899,178.479 351.5,176C 348.839,175.653 346.505,176.486 344.5,178.5C 347.109,179.76 346.943,180.76 344,181.5C 340.849,177.169 340.016,177.502 341.5,182.5C 339.167,182.5 336.833,182.5 334.5,182.5C 335.808,181.768 337.142,180.934 338.5,180C 337.451,179.508 336.451,179.674 335.5,180.5C 335.167,180 334.833,179.5 334.5,179C 335.482,177.946 336.649,177.446 338,177.5C 338.791,176.255 339.291,174.922 339.5,173.5 Z"/></g>
<g><path style="opacity:0.94" fill="#0c556e" d="M 352.5,173.5 C 353.167,173.5 353.833,173.5 354.5,173.5C 355.936,174.429 357.269,175.595 358.5,177C 357.09,178.267 355.424,178.267 353.5,177C 353.833,176.667 354.167,176.333 354.5,176C 353.619,175.292 352.953,174.458 352.5,173.5 Z"/></g>
<g><path style="opacity:0.82" fill="#0c556e" d="M 361.5,175.5 C 362.167,175.5 362.5,175.833 362.5,176.5C 361.5,177.5 360.5,178.5 359.5,179.5C 359.527,177.801 360.194,176.467 361.5,175.5 Z"/></g>
<g><path style="opacity:1" fill="#0c556e" d="M 316.5,176.5 C 316.586,177.496 316.252,178.329 315.5,179C 316.253,180.487 317.086,180.654 318,179.5C 318.483,180.448 318.649,181.448 318.5,182.5C 316.399,180.891 314.065,180.391 311.5,181C 312.624,181.249 313.624,181.749 314.5,182.5C 314.333,182.833 314.167,183.167 314,183.5C 312,183.5 310,183.5 308,183.5C 307.5,183 307,182.5 306.5,182C 307.833,181.667 309.167,181.333 310.5,181C 310.167,180.667 309.833,180.333 309.5,180C 310.76,178.887 311.927,178.72 313,179.5C 314.039,178.29 315.206,177.29 316.5,176.5 Z"/></g>
<g><path style="opacity:0.775" fill="#0e556e" d="M 362.5,176.5 C 364.749,177.08 366.415,178.413 367.5,180.5C 366.213,181.768 365.213,181.435 364.5,179.5C 363.5,180 362.5,180.5 361.5,181C 362.687,182.019 363.687,183.186 364.5,184.5C 363.397,184.998 362.397,185.331 361.5,185.5C 362.243,186.182 362.909,186.849 363.5,187.5C 362.833,187.5 362.167,187.5 361.5,187.5C 360.5,186.833 359.5,186.167 358.5,185.5C 358.577,184.25 359.244,183.417 360.5,183C 360.381,181.855 360.048,180.688 359.5,179.5C 360.5,178.5 361.5,177.5 362.5,176.5 Z"/></g>
<g><path style="opacity:0.933" fill="#0c556e" d="M 367.5,180.5 C 368.167,180.5 368.5,180.833 368.5,181.5C 366.486,183.204 364.819,185.204 363.5,187.5C 362.909,186.849 362.243,186.182 361.5,185.5C 362.397,185.331 363.397,184.998 364.5,184.5C 363.687,183.186 362.687,182.019 361.5,181C 362.5,180.5 363.5,180 364.5,179.5C 365.213,181.435 366.213,181.768 367.5,180.5 Z"/></g>
<g><path style="opacity:0.667" fill="#0c556e" d="M 325.5,183.5 C 326.833,183.5 327.5,184.167 327.5,185.5C 326.316,186.688 326.316,187.855 327.5,189C 327,189.5 326.5,190 326,190.5C 323.889,191.381 321.722,191.381 319.5,190.5C 318.833,190.5 318.5,190.167 318.5,189.5C 320.512,188.476 322.178,186.976 323.5,185C 322.552,184.517 321.552,184.351 320.5,184.5C 320.783,183.711 321.283,183.044 322,182.5C 323.145,182.619 324.312,182.952 325.5,183.5 Z"/></g>
<g><path style="opacity:0.763" fill="#0c556e" d="M 359.5,179.5 C 360.048,180.688 360.381,181.855 360.5,183C 359.244,183.417 358.577,184.25 358.5,185.5C 357.833,185.833 357.167,186.167 356.5,186.5C 354.368,186.554 353.035,187.554 352.5,189.5C 352.027,190.906 351.027,191.573 349.5,191.5C 349.062,191.565 348.728,191.399 348.5,191C 349.756,190.583 350.423,189.75 350.5,188.5C 351.302,187.048 351.802,185.382 352,183.5C 352.333,184.167 352.667,184.833 353,185.5C 354,184.167 355,184.167 356,185.5C 358.096,184.285 357.929,183.451 355.5,183C 357.027,181.968 358.36,180.801 359.5,179.5 Z"/></g>
<g><path style="opacity:0.752" fill="#0e556e" d="M 320.5,184.5 C 321.552,184.351 322.552,184.517 323.5,185C 322.178,186.976 320.512,188.476 318.5,189.5C 317.5,188.833 316.5,188.167 315.5,187.5C 316.313,186.347 317.313,186.347 318.5,187.5C 319.425,186.643 320.092,185.643 320.5,184.5 Z"/></g>
<g><path style="opacity:0.865" fill="#0c556e" d="M 312.5,185.5 C 310.706,187.797 308.706,189.963 306.5,192C 306.728,192.399 307.062,192.565 307.5,192.5C 307.065,194.703 307.065,196.703 307.5,198.5C 303.101,199.678 302.101,198.512 304.5,195C 303.638,192.266 302.805,192.099 302,194.5C 301.667,193.5 301.333,192.5 301,191.5C 300.535,192.931 299.701,194.097 298.5,195C 299.167,195.333 299.833,195.667 300.5,196C 298.713,197.582 296.713,198.749 294.5,199.5C 294.5,198.5 294.5,197.5 294.5,196.5C 295.552,196.649 296.552,196.483 297.5,196C 296.027,195.29 295.36,194.124 295.5,192.5C 296.383,189.296 298.05,186.629 300.5,184.5C 301.822,184.67 302.989,184.337 304,183.5C 304.333,184.167 304.667,184.833 305,185.5C 305.667,182.833 306.333,182.833 307,185.5C 308.924,185.348 310.758,185.348 312.5,185.5 Z"/></g>
<g><path style="opacity:0.893" fill="#0d556e" d="M 368.5,181.5 C 373.046,185.921 376.046,191.254 377.5,197.5C 376.42,202.001 374.086,205.668 370.5,208.5C 368.926,208.063 367.759,207.063 367,205.5C 365.378,206.099 363.878,206.766 362.5,207.5C 361.566,208.568 361.232,209.901 361.5,211.5C 360.178,211.33 359.011,211.663 358,212.5C 357.722,211.584 357.222,210.918 356.5,210.5C 357.906,207.586 359.906,205.086 362.5,203C 360.19,202.503 357.857,202.337 355.5,202.5C 354.496,201.317 353.662,199.984 353,198.5C 351.612,199.736 350.446,201.069 349.5,202.5C 345.988,201.945 342.988,202.612 340.5,204.5C 339.778,204.082 339.278,203.416 339,202.5C 338.259,203.641 337.425,203.641 336.5,202.5C 334.142,203.999 333.976,205.666 336,207.5C 336.308,206.692 336.808,206.025 337.5,205.5C 338.417,206.127 339.417,206.461 340.5,206.5C 340.5,210.5 340.5,214.5 340.5,218.5C 338.621,218.607 338.288,218.107 339.5,217C 338.5,216.667 337.5,216.333 336.5,216C 337.566,214.841 337.233,214.008 335.5,213.5C 335.607,215.379 335.107,215.712 334,214.5C 333.5,215 333,215.5 332.5,216C 334.044,216.29 335.377,216.956 336.5,218C 334.699,218.317 334.366,218.984 335.5,220C 333.934,220.3 332.601,219.8 331.5,218.5C 331.5,213.167 331.5,207.833 331.5,202.5C 327.167,202.5 322.833,202.5 318.5,202.5C 317.791,201.596 316.791,201.263 315.5,201.5C 315.649,200.448 315.483,199.448 315,198.5C 314.209,199.745 313.709,201.078 313.5,202.5C 311.833,202.5 310.167,202.5 308.5,202.5C 309.598,201.603 309.598,200.77 308.5,200C 309.308,199.692 309.975,199.192 310.5,198.5C 309.767,197.913 308.767,197.913 307.5,198.5C 307.065,196.703 307.065,194.703 307.5,192.5C 312.179,192.666 316.845,192.499 321.5,192C 320.584,191.722 319.918,191.222 319.5,190.5C 321.722,191.381 323.889,191.381 326,190.5C 326.5,190 327,189.5 327.5,189C 326.316,187.855 326.316,186.688 327.5,185.5C 330.436,187.255 333.269,189.255 336,191.5C 337.371,189.959 338.871,188.625 340.5,187.5C 340.783,188.289 341.283,188.956 342,189.5C 344.538,187.164 347.371,186.83 350.5,188.5C 350.423,189.75 349.756,190.583 348.5,191C 348.728,191.399 349.062,191.565 349.5,191.5C 349.842,192.338 350.508,192.672 351.5,192.5C 350.697,193.423 350.53,194.423 351,195.5C 352.692,195.324 354.192,194.824 355.5,194C 354.263,193.768 353.263,193.268 352.5,192.5C 356.514,192.666 360.514,192.499 364.5,192C 363.944,191.617 363.611,191.117 363.5,190.5C 364.833,189.5 364.833,188.5 363.5,187.5C 364.819,185.204 366.486,183.204 368.5,181.5 Z M 358.5,185.5 C 359.5,186.167 360.5,186.833 361.5,187.5C 361.427,189.027 362.094,190.027 363.5,190.5C 363.611,191.117 363.944,191.617 364.5,192C 360.514,192.499 356.514,192.666 352.5,192.5C 352.167,192.5 351.833,192.5 351.5,192.5C 350.508,192.672 349.842,192.338 349.5,191.5C 351.027,191.573 352.027,190.906 352.5,189.5C 354.23,188.974 355.564,187.974 356.5,186.5C 357.167,186.167 357.833,185.833 358.5,185.5 Z"/></g>
<g><path style="opacity:0.93" fill="#0c556e" d="M 345.5,183.5 C 345.586,184.496 345.252,185.329 344.5,186C 345.449,186.617 346.282,186.451 347,185.5C 348.729,185.974 349.895,186.974 350.5,188.5C 347.371,186.83 344.538,187.164 342,189.5C 341.283,188.956 340.783,188.289 340.5,187.5C 342.179,186.084 343.846,184.75 345.5,183.5 Z"/></g>
<g><path style="opacity:0.218" fill="#0e556e" d="M 356.5,186.5 C 355.564,187.974 354.23,188.974 352.5,189.5C 353.035,187.554 354.368,186.554 356.5,186.5 Z"/></g>
<g><path style="opacity:0.376" fill="#0c556e" d="M 361.5,187.5 C 362.167,187.5 362.833,187.5 363.5,187.5C 364.833,188.5 364.833,189.5 363.5,190.5C 362.094,190.027 361.427,189.027 361.5,187.5 Z"/></g>
<g><path style="opacity:0.993" fill="#0c556e" d="M 344.5,190.5 C 346.603,191.98 346.603,193.147 344.5,194C 345.931,194.465 347.097,195.299 348,196.5C 348.914,192.815 349.581,193.148 350,197.5C 353.025,196.209 353.359,196.876 351,199.5C 349.209,197.487 347.875,197.487 347,199.5C 346.564,196.716 345.064,195.55 342.5,196C 344.901,196.805 344.734,197.638 342,198.5C 341.667,198.167 341.333,197.833 341,197.5C 340.167,198.5 339.333,199.5 338.5,200.5C 337.289,199.726 337.289,198.893 338.5,198C 337.251,196.176 336.085,196.343 335,198.5C 334.517,197.552 334.351,196.552 334.5,195.5C 336.722,195.822 338.556,195.155 340,193.5C 340.333,194.5 340.667,195.5 341,196.5C 342.421,194.595 343.588,192.595 344.5,190.5 Z"/></g>
<g><path style="opacity:0.565" fill="#0e556e" d="M 295.5,192.5 C 295.36,194.124 296.027,195.29 297.5,196C 296.552,196.483 295.552,196.649 294.5,196.5C 294.232,194.901 294.566,193.568 295.5,192.5 Z"/></g>
<g><path style="opacity:0.774" fill="#0c556e" d="M 351.5,192.5 C 351.833,192.5 352.167,192.5 352.5,192.5C 353.263,193.268 354.263,193.768 355.5,194C 354.192,194.824 352.692,195.324 351,195.5C 350.53,194.423 350.697,193.423 351.5,192.5 Z"/></g>
<g><path style="opacity:1" fill="#0c556e" d="M 372.5,194.5 C 375.101,195.922 374.934,197.256 372,198.5C 371.5,198.333 371,198.167 370.5,198C 371.823,197.184 372.489,196.017 372.5,194.5 Z"/></g>
<g><path style="opacity:1" fill="#0c556e" d="M 367.5,195.5 C 368.239,195.369 368.906,195.536 369.5,196C 367.699,197.387 367.032,198.887 367.5,200.5C 366.354,199.855 365.354,199.022 364.5,198C 365.942,197.623 366.942,196.79 367.5,195.5 Z"/></g>
<g><path style="opacity:0.88" fill="#0d556e" d="M 307.5,198.5 C 307.297,200.044 306.63,201.378 305.5,202.5C 306.193,203.518 306.859,204.518 307.5,205.5C 306.244,205.461 305.244,205.961 304.5,207C 305.905,208.269 307.571,208.769 309.5,208.5C 307.651,209.593 305.984,210.926 304.5,212.5C 299.642,209.312 296.308,204.979 294.5,199.5C 296.713,198.749 298.713,197.582 300.5,196C 299.833,195.667 299.167,195.333 298.5,195C 299.701,194.097 300.535,192.931 301,191.5C 301.333,192.5 301.667,193.5 302,194.5C 302.805,192.099 303.638,192.266 304.5,195C 302.101,198.512 303.101,199.678 307.5,198.5 Z"/></g>
<g><path style="opacity:0.486" fill="#0c556e" d="M 318.5,202.5 C 316.833,202.5 315.167,202.5 313.5,202.5C 313.709,201.078 314.209,199.745 315,198.5C 315.483,199.448 315.649,200.448 315.5,201.5C 316.791,201.263 317.791,201.596 318.5,202.5 Z"/></g>
<g><path style="opacity:1" fill="#0c556e" d="M 332.5,195.5 C 332.993,197.257 333.327,199.091 333.5,201C 330.788,201.738 328.455,201.071 326.5,199C 329.019,198.414 331.019,197.247 332.5,195.5 Z"/></g>
<g><path style="opacity:0.565" fill="#0c556e" d="M 355.5,202.5 C 353.5,202.5 351.5,202.5 349.5,202.5C 350.446,201.069 351.612,199.736 353,198.5C 353.662,199.984 354.496,201.317 355.5,202.5 Z"/></g>
<g><path style="opacity:0.626" fill="#0c556e" d="M 308.5,202.5 C 308.833,203.5 309.5,204.167 310.5,204.5C 309.791,205.404 308.791,205.737 307.5,205.5C 306.859,204.518 306.193,203.518 305.5,202.5C 306.63,201.378 307.297,200.044 307.5,198.5C 308.767,197.913 309.767,197.913 310.5,198.5C 309.975,199.192 309.308,199.692 308.5,200C 309.598,200.77 309.598,201.603 308.5,202.5 Z"/></g>
<g><path style="opacity:1" fill="#0c556e" d="M 300.5,201.5 C 301.117,201.611 301.617,201.944 302,202.5C 302.273,204.101 302.773,205.601 303.5,207C 303.167,207.167 302.833,207.333 302.5,207.5C 301.523,205.589 300.857,203.589 300.5,201.5 Z"/></g>
<g><path style="opacity:0.851" fill="#0c556e" d="M 340.5,204.5 C 340.5,205.167 340.5,205.833 340.5,206.5C 339.417,206.461 338.417,206.127 337.5,205.5C 336.808,206.025 336.308,206.692 336,207.5C 333.976,205.666 334.142,203.999 336.5,202.5C 337.425,203.641 338.259,203.641 339,202.5C 339.278,203.416 339.778,204.082 340.5,204.5 Z"/></g>
<g><path style="opacity:0.587" fill="#0e556e" d="M 310.5,204.5 C 311.833,205.167 312.833,206.167 313.5,207.5C 312.167,207.833 310.833,208.167 309.5,208.5C 310.679,206.493 310.179,206.16 308,207.5C 307.536,206.906 307.369,206.239 307.5,205.5C 308.791,205.737 309.791,205.404 310.5,204.5 Z"/></g>
<g><path style="opacity:1" fill="#0c556e" d="M 307.5,205.5 C 307.369,206.239 307.536,206.906 308,207.5C 310.179,206.16 310.679,206.493 309.5,208.5C 307.571,208.769 305.905,208.269 304.5,207C 305.244,205.961 306.244,205.461 307.5,205.5 Z"/></g>
<g><path style="opacity:1" fill="#0c556e" d="M 370.5,208.5 C 370.672,209.492 370.338,210.158 369.5,210.5C 366.914,209.99 364.581,208.99 362.5,207.5C 363.878,206.766 365.378,206.099 367,205.5C 367.759,207.063 368.926,208.063 370.5,208.5 Z"/></g>
<g><path style="opacity:0.913" fill="#0d556e" d="M 313.5,207.5 C 316.805,211.141 320.138,214.808 323.5,218.5C 322.976,222.017 321.309,222.184 318.5,219C 319.956,218.577 320.456,217.744 320,216.5C 318.295,217.763 316.628,218.097 315,217.5C 314.536,218.094 314.369,218.761 314.5,219.5C 316.637,224.099 315.304,227.099 310.5,228.5C 309.699,226.492 308.366,225.992 306.5,227C 307.376,225.415 308.709,224.415 310.5,224C 309.207,223.51 307.873,223.343 306.5,223.5C 305.417,223.461 304.417,223.127 303.5,222.5C 303.167,223.167 302.833,223.833 302.5,224.5C 301.23,223.438 300.063,222.438 299,221.5C 298.626,222.416 298.126,223.25 297.5,224C 298.364,225.137 299.364,226.47 300.5,228C 298.875,228.853 298.542,229.853 299.5,231C 297.693,232.236 295.693,232.57 293.5,232C 292.667,233.5 291.5,234.667 290,235.5C 288.791,235.347 287.625,235.014 286.5,234.5C 285.37,232.685 284.704,230.685 284.5,228.5C 290.966,222.758 298.3,218.258 306.5,215C 305.619,214.292 304.953,213.458 304.5,212.5C 305.984,210.926 307.651,209.593 309.5,208.5C 310.833,208.167 312.167,207.833 313.5,207.5 Z"/></g>
<g><path style="opacity:1" fill="#0c556e" d="M 335.5,213.5 C 334.596,212.791 334.263,211.791 334.5,210.5C 338.893,210.543 339.226,210.043 335.5,209C 336.766,208.691 337.933,208.191 339,207.5C 339.781,208.944 339.614,210.277 338.5,211.5C 337.261,211.942 336.261,212.609 335.5,213.5 Z"/></g>
<g><path style="opacity:1" fill="#0c556e" d="M 362.5,207.5 C 362.5,208.5 362.5,209.5 362.5,210.5C 366.243,210.459 366.41,211.126 363,212.5C 362.617,211.944 362.117,211.611 361.5,211.5C 361.232,209.901 361.566,208.568 362.5,207.5 Z"/></g>
<g><path style="opacity:0.844" fill="#0d556e" d="M 362.5,207.5 C 364.581,208.99 366.914,209.99 369.5,210.5C 368.027,212.395 366.36,214.061 364.5,215.5C 362.274,214.912 359.941,214.578 357.5,214.5C 359.219,213.978 360.552,212.978 361.5,211.5C 362.117,211.611 362.617,211.944 363,212.5C 366.41,211.126 366.243,210.459 362.5,210.5C 362.5,209.5 362.5,208.5 362.5,207.5 Z"/></g>
<g><path style="opacity:0.966" fill="#0d556e" d="M 356.5,210.5 C 356.232,212.099 356.566,213.432 357.5,214.5C 357.414,215.496 357.748,216.329 358.5,217C 357.619,217.708 356.953,218.542 356.5,219.5C 356.167,219.5 355.833,219.5 355.5,219.5C 355.059,217.389 355.059,214.722 355.5,211.5C 355.5,210.833 355.833,210.5 356.5,210.5 Z"/></g>
<g><path style="opacity:0.995" fill="#0c556e" d="M 356.5,210.5 C 357.222,210.918 357.722,211.584 358,212.5C 359.011,211.663 360.178,211.33 361.5,211.5C 360.552,212.978 359.219,213.978 357.5,214.5C 356.566,213.432 356.232,212.099 356.5,210.5 Z"/></g>
<g><path style="opacity:0.956" fill="#0c556e" d="M 355.5,211.5 C 355.059,214.722 355.059,217.389 355.5,219.5C 354.778,219.082 354.278,218.416 354,217.5C 351.457,218.876 351.291,220.043 353.5,221C 351.406,221.445 349.906,220.612 349,218.5C 348.722,219.416 348.222,220.082 347.5,220.5C 347.5,219.833 347.5,219.167 347.5,218.5C 350.126,216.177 352.793,213.843 355.5,211.5 Z"/></g>
<g><path style="opacity:0.985" fill="#0c556e" d="M 357.5,214.5 C 359.941,214.578 362.274,214.912 364.5,215.5C 365.218,217.137 365.384,218.803 365,220.5C 363.739,216.87 361.906,215.87 359.5,217.5C 360.025,218.192 360.692,218.692 361.5,219C 359.866,219.494 358.199,219.66 356.5,219.5C 356.953,218.542 357.619,217.708 358.5,217C 357.748,216.329 357.414,215.496 357.5,214.5 Z"/></g>
<g><path style="opacity:0.984" fill="#0d556e" d="M 364.5,215.5 C 368.582,216.376 372.249,218.043 375.5,220.5C 372.903,220.721 372.903,221.221 375.5,222C 374.692,222.308 374.025,222.808 373.5,223.5C 374.641,224.425 374.641,225.259 373.5,226C 375.429,226.35 377.429,227.017 379.5,228C 378.244,228.417 377.577,229.25 377.5,230.5C 377.649,231.552 377.483,232.552 377,233.5C 376.086,232.346 375.253,232.513 374.5,234C 375.337,235.011 375.67,236.178 375.5,237.5C 374.287,238.497 374.454,239.497 376,240.5C 377.749,239.701 379.082,240.368 380,242.5C 381.011,241.663 382.178,241.33 383.5,241.5C 384.267,242.172 384.934,243.005 385.5,244C 386.738,243.923 387.738,244.089 388.5,244.5C 387.995,245.919 386.995,246.585 385.5,246.5C 383.938,246.733 382.605,247.4 381.5,248.5C 380.21,249.058 379.377,250.058 379,251.5C 378,248.833 377,248.833 376,251.5C 375.8,248.097 374.3,247.097 371.5,248.5C 369.77,247.974 368.436,246.974 367.5,245.5C 369.657,244.947 369.49,243.947 367,242.5C 366.26,241.251 366.427,240.251 367.5,239.5C 367.649,238.448 367.483,237.448 367,236.5C 366.29,237.973 365.124,238.64 363.5,238.5C 363.649,239.552 363.483,240.552 363,241.5C 361.447,237.707 358.947,236.707 355.5,238.5C 351.761,237.697 348.095,236.697 344.5,235.5C 344.082,234.778 343.416,234.278 342.5,234C 344.263,232.398 346.096,231.898 348,232.5C 350.069,230.163 349.569,228.496 346.5,227.5C 345.972,226.279 345.305,225.113 344.5,224C 347.791,224.874 348.791,223.707 347.5,220.5C 348.222,220.082 348.722,219.416 349,218.5C 349.906,220.612 351.406,221.445 353.5,221C 351.291,220.043 351.457,218.876 354,217.5C 354.278,218.416 354.778,219.082 355.5,219.5C 355.541,222.399 354.207,225.065 351.5,227.5C 352.991,228.244 354.491,228.91 356,229.5C 356.127,228.223 355.627,227.057 354.5,226C 356.881,224.137 357.548,221.971 356.5,219.5C 358.199,219.66 359.866,219.494 361.5,219C 360.692,218.692 360.025,218.192 359.5,217.5C 361.906,215.87 363.739,216.87 365,220.5C 365.384,218.803 365.218,217.137 364.5,215.5 Z"/></g>
<g><path style="opacity:1" fill="#0c556e" d="M 335.5,213.5 C 337.233,214.008 337.566,214.841 336.5,216C 337.5,216.333 338.5,216.667 339.5,217C 338.288,218.107 338.621,218.607 340.5,218.5C 340.5,220.167 340.5,221.833 340.5,223.5C 339.504,223.586 338.671,223.252 338,222.5C 337.722,223.416 337.222,224.082 336.5,224.5C 335.828,225.267 334.995,225.934 334,226.5C 333.014,225.829 331.847,225.829 330.5,226.5C 329.662,226.158 329.328,225.492 329.5,224.5C 330.117,224.611 330.617,224.944 331,225.5C 331.497,223.19 331.663,220.857 331.5,218.5C 332.601,219.8 333.934,220.3 335.5,220C 334.366,218.984 334.699,218.317 336.5,218C 335.377,216.956 334.044,216.29 332.5,216C 333,215.5 333.5,215 334,214.5C 335.107,215.712 335.607,215.379 335.5,213.5 Z"/></g>
<g><path style="opacity:0.254" fill="#0e556e" d="M 347.5,218.5 C 347.5,219.167 347.5,219.833 347.5,220.5C 346.395,221.6 345.062,222.267 343.5,222.5C 344.5,220.833 345.833,219.5 347.5,218.5 Z"/></g>
<g><path style="opacity:1" fill="#0c556e" d="M 314.5,219.5 C 315.559,221.555 317.225,222.889 319.5,223.5C 318.571,224.315 317.571,225.148 316.5,226C 317.71,227.039 318.71,228.206 319.5,229.5C 318.833,229.5 318.167,229.5 317.5,229.5C 317.217,228.711 316.717,228.044 316,227.5C 314.482,228.163 313.315,229.163 312.5,230.5C 311.5,230.167 310.833,229.5 310.5,228.5C 315.304,227.099 316.637,224.099 314.5,219.5 Z"/></g>
<g><path style="opacity:1" fill="#0c556e" d="M 355.5,219.5 C 355.833,219.5 356.167,219.5 356.5,219.5C 357.548,221.971 356.881,224.137 354.5,226C 355.627,227.057 356.127,228.223 356,229.5C 354.491,228.91 352.991,228.244 351.5,227.5C 354.207,225.065 355.541,222.399 355.5,219.5 Z"/></g>
<g><path style="opacity:0.96" fill="#0c556e" d="M 347.5,220.5 C 348.791,223.707 347.791,224.874 344.5,224C 345.305,225.113 345.972,226.279 346.5,227.5C 345.167,227.167 343.833,226.833 342.5,226.5C 342.833,225.167 343.167,223.833 343.5,222.5C 345.062,222.267 346.395,221.6 347.5,220.5 Z"/></g>
<g><path style="opacity:1" fill="#0f556e" d="M 336.5,224.5 C 334.314,224.489 333.481,223.489 334,221.5C 335.045,222.373 335.878,223.373 336.5,224.5 Z"/></g>
<g><path style="opacity:0.916" fill="#0d556e" d="M 340.5,223.5 C 340.435,223.938 340.601,224.272 341,224.5C 341.708,223.619 342.542,222.953 343.5,222.5C 343.167,223.833 342.833,225.167 342.5,226.5C 339.215,227.089 338.882,228.256 341.5,230C 339.296,230.699 336.963,231.199 334.5,231.5C 333.833,231.5 333.5,231.167 333.5,230.5C 334.188,227.381 333.355,227.047 331,229.5C 330.517,228.552 330.351,227.552 330.5,226.5C 331.847,225.829 333.014,225.829 334,226.5C 334.995,225.934 335.828,225.267 336.5,224.5C 337.222,224.082 337.722,223.416 338,222.5C 338.671,223.252 339.504,223.586 340.5,223.5 Z"/></g>
<g><path style="opacity:1" fill="#0c556e" d="M 306.5,223.5 C 307.873,223.343 309.207,223.51 310.5,224C 308.709,224.415 307.376,225.415 306.5,227C 308.366,225.992 309.699,226.492 310.5,228.5C 308.61,228.297 307.11,228.963 306,230.5C 305.617,229.944 305.117,229.611 304.5,229.5C 305.167,227.5 305.833,225.5 306.5,223.5 Z"/></g>
<g><path style="opacity:1" fill="#0d556e" d="M 323.5,218.5 C 325.833,220.167 327.833,222.167 329.5,224.5C 328.504,224.586 327.671,224.252 327,223.5C 326.135,225.888 326.968,227.388 329.5,228C 328.167,228.667 328.167,229.333 329.5,230C 328.833,230.333 328.167,230.667 327.5,231C 329.058,231.21 330.391,231.71 331.5,232.5C 330.503,232.47 329.836,232.97 329.5,234C 329.978,235.303 330.645,236.469 331.5,237.5C 329.83,237.249 328.33,236.582 327,235.5C 325.644,236.38 324.144,236.714 322.5,236.5C 321.548,234.888 321.214,233.388 321.5,232C 322.308,231.692 322.975,231.192 323.5,230.5C 322.39,230.624 321.056,230.291 319.5,229.5C 318.71,228.206 317.71,227.039 316.5,226C 317.571,225.148 318.571,224.315 319.5,223.5C 317.225,222.889 315.559,221.555 314.5,219.5C 314.369,218.761 314.536,218.094 315,217.5C 316.628,218.097 318.295,217.763 320,216.5C 320.456,217.744 319.956,218.577 318.5,219C 321.309,222.184 322.976,222.017 323.5,218.5 Z"/></g>
<g><path style="opacity:1" fill="#0c556e" d="M 319.5,223.5 C 321.517,222.126 323.517,222.293 325.5,224C 324.5,227.333 323.5,227.333 322.5,224C 321.552,223.517 320.552,223.351 319.5,223.5 Z"/></g>
<g><path style="opacity:0.99" fill="#0c556e" d="M 329.5,224.5 C 329.328,225.492 329.662,226.158 330.5,226.5C 330.351,227.552 330.517,228.552 331,229.5C 333.355,227.047 334.188,227.381 333.5,230.5C 332.833,231.167 332.167,231.833 331.5,232.5C 330.391,231.71 329.058,231.21 327.5,231C 328.167,230.667 328.833,230.333 329.5,230C 328.167,229.333 328.167,228.667 329.5,228C 326.968,227.388 326.135,225.888 327,223.5C 327.671,224.252 328.504,224.586 329.5,224.5 Z"/></g>
<g><path style="opacity:1" fill="#0c556e" d="M 360.5,225.5 C 365.084,225.869 366.918,227.869 366,231.5C 364.615,230.449 363.615,229.116 363,227.5C 362.28,229.112 362.446,230.612 363.5,232C 361.892,231.945 360.558,231.112 359.5,229.5C 360.902,228.158 360.569,227.324 358.5,227C 359.416,226.722 360.082,226.222 360.5,225.5 Z"/></g>
<g><path style="opacity:0.943" fill="#0c556e" d="M 342.5,226.5 C 343.363,227.94 343.363,229.274 342.5,230.5C 343.365,231.583 344.365,231.749 345.5,231C 345.167,230.667 344.833,230.333 344.5,230C 345.756,229.583 346.423,228.75 346.5,227.5C 349.569,228.496 350.069,230.163 348,232.5C 346.096,231.898 344.263,232.398 342.5,234C 343.416,234.278 344.082,234.778 344.5,235.5C 342.999,236.752 341.332,237.752 339.5,238.5C 338.27,236.703 337.604,234.703 337.5,232.5C 336.209,232.737 335.209,232.404 334.5,231.5C 336.963,231.199 339.296,230.699 341.5,230C 338.882,228.256 339.215,227.089 342.5,226.5 Z"/></g>
<g><path style="opacity:1" fill="#0e556e" d="M 342.5,226.5 C 343.833,226.833 345.167,227.167 346.5,227.5C 346.423,228.75 345.756,229.583 344.5,230C 344.833,230.333 345.167,230.667 345.5,231C 344.365,231.749 343.365,231.583 342.5,230.5C 343.363,229.274 343.363,227.94 342.5,226.5 Z"/></g>
<g><path style="opacity:1" fill="#0e556e" d="M 317.5,229.5 C 315.883,230.038 314.216,230.371 312.5,230.5C 313.315,229.163 314.482,228.163 316,227.5C 316.717,228.044 317.217,228.711 317.5,229.5 Z"/></g>
<g><path style="opacity:0.956" fill="#0d556e" d="M 306.5,223.5 C 305.833,225.5 305.167,227.5 304.5,229.5C 305.117,229.611 305.617,229.944 306,230.5C 307.11,228.963 308.61,228.297 310.5,228.5C 310.833,229.5 311.5,230.167 312.5,230.5C 312.918,231.222 313.584,231.722 314.5,232C 314.043,232.414 313.709,232.914 313.5,233.5C 314.689,234.429 316.022,234.762 317.5,234.5C 316.929,232.64 316.929,230.973 317.5,229.5C 318.167,229.5 318.833,229.5 319.5,229.5C 318.952,230.688 318.619,231.855 318.5,233C 320.056,233.72 321.056,234.887 321.5,236.5C 320.329,237.345 318.995,238.011 317.5,238.5C 317.5,237.5 317.5,236.5 317.5,235.5C 314.204,235.45 312.871,236.783 313.5,239.5C 311.365,241.071 309.032,242.404 306.5,243.5C 304.77,241.921 302.936,240.254 301,238.5C 300.5,240.333 299.333,241.5 297.5,242C 298.571,243.825 297.904,244.992 295.5,245.5C 293.866,245.032 292.7,244.032 292,242.5C 290.978,243.354 290.145,244.354 289.5,245.5C 290.274,246.711 291.107,246.711 292,245.5C 293.252,247.001 294.252,248.668 295,250.5C 295.085,248.915 295.251,247.582 295.5,246.5C 296.225,248.719 296.558,250.719 296.5,252.5C 295.248,254.001 294.248,255.668 293.5,257.5C 291.089,257.137 289.589,258.137 289,260.5C 287.136,258.66 285.302,257.16 283.5,256C 284.861,258.584 284.195,260.584 281.5,262C 283.715,263.943 283.715,265.609 281.5,267C 282.416,267.374 283.25,267.874 284,268.5C 284.216,266.616 284.883,264.949 286,263.5C 286.236,265.119 287.069,266.119 288.5,266.5C 287.833,268.833 287.167,271.167 286.5,273.5C 285.448,273.649 284.448,273.483 283.5,273C 284.696,272.346 284.696,271.846 283.5,271.5C 282.472,273.58 281.138,273.914 279.5,272.5C 278.047,271.175 278.381,270.342 280.5,270C 278.505,269.387 276.838,269.887 275.5,271.5C 275.567,268.234 273.901,266.734 270.5,267C 270.833,266 271.167,265 271.5,264C 270.552,263.517 269.552,263.351 268.5,263.5C 270.671,262.755 273.005,262.588 275.5,263C 274.016,262.338 272.683,261.504 271.5,260.5C 271.144,259.13 270.31,258.13 269,257.5C 267.545,258.58 266.045,258.58 264.5,257.5C 266.074,252.68 268.407,248.347 271.5,244.5C 271.773,246.451 271.107,247.951 269.5,249C 270.126,249.75 270.626,250.584 271,251.5C 272.518,248.451 273.018,245.451 272.5,242.5C 273.124,240.246 274.457,238.579 276.5,237.5C 276.351,238.552 276.517,239.552 277,240.5C 277.346,238.152 278.513,236.319 280.5,235C 279.944,234.617 279.611,234.117 279.5,233.5C 280.5,231.833 281.833,230.5 283.5,229.5C 283.324,233.033 281.991,236.033 279.5,238.5C 280.641,239.425 280.641,240.259 279.5,241C 280.996,241.507 282.163,241.007 283,239.5C 283.483,240.448 283.649,241.448 283.5,242.5C 284.15,242.196 284.817,241.863 285.5,241.5C 286.281,242.729 286.781,244.062 287,245.5C 287.653,242.543 286.819,240.043 284.5,238C 284.833,237.667 285.167,237.333 285.5,237C 282.949,235.484 283.282,234.651 286.5,234.5C 287.625,235.014 288.791,235.347 290,235.5C 291.5,234.667 292.667,233.5 293.5,232C 295.693,232.57 297.693,232.236 299.5,231C 298.542,229.853 298.875,228.853 300.5,228C 299.364,226.47 298.364,225.137 297.5,224C 298.126,223.25 298.626,222.416 299,221.5C 300.063,222.438 301.23,223.438 302.5,224.5C 302.833,223.833 303.167,223.167 303.5,222.5C 304.417,223.127 305.417,223.461 306.5,223.5 Z"/></g>
<g><path style="opacity:1" fill="#0c556e" d="M 304.5,229.5 C 305.077,231.652 306.244,231.985 308,230.5C 310.648,237.803 309.648,239.136 305,234.5C 304.333,233.167 303.667,231.833 303,230.5C 300.31,231.459 299.976,230.792 302,228.5C 302.671,229.252 303.504,229.586 304.5,229.5 Z"/></g>
<g><path style="opacity:1" fill="#0c556e" d="M 317.5,229.5 C 316.929,230.973 316.929,232.64 317.5,234.5C 316.022,234.762 314.689,234.429 313.5,233.5C 313.709,232.914 314.043,232.414 314.5,232C 313.584,231.722 312.918,231.222 312.5,230.5C 314.216,230.371 315.883,230.038 317.5,229.5 Z"/></g>
<g><path style="opacity:1" fill="#0c556e" d="M 319.5,229.5 C 321.056,230.291 322.39,230.624 323.5,230.5C 322.975,231.192 322.308,231.692 321.5,232C 321.214,233.388 321.548,234.888 322.5,236.5C 322.167,236.5 321.833,236.5 321.5,236.5C 321.056,234.887 320.056,233.72 318.5,233C 318.619,231.855 318.952,230.688 319.5,229.5 Z"/></g>
<g><path style="opacity:1" fill="#0c556e" d="M 377.5,237.5 C 376.833,238.833 376.167,238.833 375.5,237.5C 375.67,236.178 375.337,235.011 374.5,234C 375.253,232.513 376.086,232.346 377,233.5C 377.483,232.552 377.649,231.552 377.5,230.5C 378.95,229.342 379.95,229.842 380.5,232C 379.12,233.324 378.786,234.657 379.5,236C 378.584,236.278 377.918,236.778 377.5,237.5 Z"/></g>
<g><path style="opacity:0.966" fill="#0d556e" d="M 333.5,230.5 C 333.5,231.167 333.833,231.5 334.5,231.5C 335.209,232.404 336.209,232.737 337.5,232.5C 337.604,234.703 338.27,236.703 339.5,238.5C 338.5,238.5 337.5,238.5 336.5,238.5C 335.177,236.314 333.177,234.814 330.5,234C 331.056,233.617 331.389,233.117 331.5,232.5C 332.167,231.833 332.833,231.167 333.5,230.5 Z"/></g>
<g><path style="opacity:1" fill="#0c556e" d="M 284.5,228.5 C 284.704,230.685 285.37,232.685 286.5,234.5C 283.282,234.651 282.949,235.484 285.5,237C 285.167,237.333 284.833,237.667 284.5,238C 286.819,240.043 287.653,242.543 287,245.5C 286.781,244.062 286.281,242.729 285.5,241.5C 284.817,241.863 284.15,242.196 283.5,242.5C 283.649,241.448 283.483,240.448 283,239.5C 282.163,241.007 280.996,241.507 279.5,241C 280.641,240.259 280.641,239.425 279.5,238.5C 281.991,236.033 283.324,233.033 283.5,229.5C 283.5,228.833 283.833,228.5 284.5,228.5 Z"/></g>
<g><path style="opacity:0.831" fill="#0c556e" d="M 331.5,232.5 C 331.389,233.117 331.056,233.617 330.5,234C 333.177,234.814 335.177,236.314 336.5,238.5C 334.585,238.784 332.919,238.451 331.5,237.5C 330.645,236.469 329.978,235.303 329.5,234C 329.836,232.97 330.503,232.47 331.5,232.5 Z"/></g>
<g><path style="opacity:1" fill="#0d556e" d="M 375.5,220.5 C 381.077,223.543 386.243,227.21 391,231.5C 395.142,236.463 398.642,241.796 401.5,247.5C 401.103,248.525 400.437,248.692 399.5,248C 399.619,246.719 399.119,245.552 398,244.5C 396.515,247.3 394.849,249.966 393,252.5C 392.667,251.833 392.333,251.167 392,250.5C 391.405,251.899 391.572,253.232 392.5,254.5C 391.3,255.292 389.967,255.292 388.5,254.5C 388.854,252.459 388.854,250.626 388.5,249C 389.328,248.085 390.328,247.419 391.5,247C 391,246.5 390.5,246 390,245.5C 387.766,246.863 386.266,248.197 385.5,249.5C 384.833,249.333 384.167,249.167 383.5,249C 384.381,248.292 385.047,247.458 385.5,246.5C 386.995,246.585 387.995,245.919 388.5,244.5C 387.738,244.089 386.738,243.923 385.5,244C 384.934,243.005 384.267,242.172 383.5,241.5C 381.391,240.35 379.391,239.016 377.5,237.5C 377.918,236.778 378.584,236.278 379.5,236C 378.786,234.657 379.12,233.324 380.5,232C 379.95,229.842 378.95,229.342 377.5,230.5C 377.577,229.25 378.244,228.417 379.5,228C 377.429,227.017 375.429,226.35 373.5,226C 374.641,225.259 374.641,224.425 373.5,223.5C 374.025,222.808 374.692,222.308 375.5,222C 372.903,221.221 372.903,220.721 375.5,220.5 Z"/></g>
<g><path style="opacity:0.625" fill="#000000" d="M 159.5,234.5 C 170.092,237.591 176.759,244.425 179.5,255C 177.513,264.341 172.346,271.507 164,276.5C 159.679,273.512 156.012,269.846 153,265.5C 150.827,262.654 149.327,259.488 148.5,256C 151.789,248.588 155.455,241.422 159.5,234.5 Z"/></g>
<g><path style="opacity:0.502" fill="#0c556e" d="M 279.5,233.5 C 279.611,234.117 279.944,234.617 280.5,235C 278.513,236.319 277.346,238.152 277,240.5C 276.517,239.552 276.351,238.552 276.5,237.5C 277.026,235.77 278.026,234.436 279.5,233.5 Z"/></g>
<g><path style="opacity:1" fill="#0c556e" d="M 387.5,233.5 C 388.077,232.227 388.743,232.227 389.5,233.5C 390.167,234.5 390.833,235.5 391.5,236.5C 390.726,237.711 389.893,237.711 389,236.5C 388.667,237.167 388.333,237.833 388,238.5C 387.259,237.359 386.425,237.359 385.5,238.5C 384.5,238 383.5,237.5 382.5,237C 384.087,236.138 385.754,235.471 387.5,235C 388.738,234.31 388.738,233.81 387.5,233.5 Z"/></g>
<g><path style="opacity:0.833" fill="#0c556e" d="M 317.5,238.5 C 316.167,238.833 314.833,239.167 313.5,239.5C 312.871,236.783 314.204,235.45 317.5,235.5C 317.5,236.5 317.5,237.5 317.5,238.5 Z"/></g>
<g><path style="opacity:1" fill="#0c556e" d="M 292.5,235.5 C 293.289,235.783 293.956,236.283 294.5,237C 294.201,238.32 294.034,239.82 294,241.5C 291.053,239.486 290.553,237.486 292.5,235.5 Z"/></g>
<g><path style="opacity:0.59" fill="#0c556e" d="M 367.5,239.5 C 366.427,240.251 366.26,241.251 367,242.5C 369.49,243.947 369.657,244.947 367.5,245.5C 363.458,243.099 359.458,240.766 355.5,238.5C 358.947,236.707 361.447,237.707 363,241.5C 363.483,240.552 363.649,239.552 363.5,238.5C 365.124,238.64 366.29,237.973 367,236.5C 367.483,237.448 367.649,238.448 367.5,239.5 Z"/></g>
<g><path style="opacity:1" fill="#0c556e" d="M 375.5,237.5 C 376.167,238.833 376.833,238.833 377.5,237.5C 379.391,239.016 381.391,240.35 383.5,241.5C 382.178,241.33 381.011,241.663 380,242.5C 379.082,240.368 377.749,239.701 376,240.5C 374.454,239.497 374.287,238.497 375.5,237.5 Z"/></g>
<g><path style="opacity:1" fill="#0c556e" d="M 367.5,239.5 C 369.377,238.429 370.044,237.095 369.5,235.5C 370.5,236.833 371.5,238.167 372.5,239.5C 371.975,240.192 371.308,240.692 370.5,241C 371.711,241.893 371.711,242.726 370.5,243.5C 369.611,241.993 368.611,240.66 367.5,239.5 Z"/></g>
<g><path style="opacity:1" fill="#0c556e" d="M 392.5,239.5 C 393.222,239.918 393.722,240.584 394,241.5C 395.018,240.294 395.518,240.627 395.5,242.5C 395.167,244.167 394.167,245.167 392.5,245.5C 392.017,243.687 392.017,241.687 392.5,239.5 Z"/></g>
<g><path style="opacity:0.98" fill="#0c556e" d="M 306.5,243.5 C 306.158,244.338 305.492,244.672 304.5,244.5C 303.883,244.389 303.383,244.056 303,243.5C 301.5,244.667 300,245.833 298.5,247C 299.171,247.986 299.171,249.153 298.5,250.5C 298.167,251.5 297.5,252.167 296.5,252.5C 296.558,250.719 296.225,248.719 295.5,246.5C 295.251,247.582 295.085,248.915 295,250.5C 294.252,248.668 293.252,247.001 292,245.5C 291.107,246.711 290.274,246.711 289.5,245.5C 290.145,244.354 290.978,243.354 292,242.5C 292.7,244.032 293.866,245.032 295.5,245.5C 297.904,244.992 298.571,243.825 297.5,242C 299.333,241.5 300.5,240.333 301,238.5C 302.936,240.254 304.77,241.921 306.5,243.5 Z"/></g>
<g><path style="opacity:0.82" fill="#0c556e" d="M 272.5,242.5 C 273.018,245.451 272.518,248.451 271,251.5C 270.626,250.584 270.126,249.75 269.5,249C 271.107,247.951 271.773,246.451 271.5,244.5C 271.328,243.508 271.662,242.842 272.5,242.5 Z"/></g>
<g><path style="opacity:1" fill="#0c556e" d="M 283.5,242.5 C 281.307,244.514 280.64,246.847 281.5,249.5C 280.833,250.167 280.167,250.833 279.5,251.5C 280.603,251.998 281.603,252.331 282.5,252.5C 281.372,253.262 280.205,253.929 279,254.5C 278.167,253 277,251.833 275.5,251C 276.167,250.333 276.833,249.667 277.5,249C 276.09,248.632 275.09,247.799 274.5,246.5C 275.76,245.618 276.926,244.618 278,243.5C 278.333,243.833 278.667,244.167 279,244.5C 280.11,242.963 281.61,242.297 283.5,242.5 Z"/></g>
<g><path style="opacity:0.607" fill="#0e556e" d="M 304.5,244.5 C 302.833,246.833 300.833,248.833 298.5,250.5C 299.171,249.153 299.171,247.986 298.5,247C 300,245.833 301.5,244.667 303,243.5C 303.383,244.056 303.883,244.389 304.5,244.5 Z"/></g>
<g><path style="opacity:0.909" fill="#0d556e" d="M 381.5,248.5 C 381.879,249.806 382.212,251.139 382.5,252.5C 383.854,250.816 385.521,250.316 387.5,251C 383.578,252.953 383.912,254.119 388.5,254.5C 389.622,255.947 391.122,256.947 393,257.5C 393.249,256.376 393.749,255.376 394.5,254.5C 395.696,254.846 395.696,255.346 394.5,256C 396,256.833 397.167,258 398,259.5C 398.206,257.61 399.039,255.61 400.5,253.5C 401.376,252.749 402.376,252.249 403.5,252C 402.675,250.312 401.675,250.145 400.5,251.5C 399.333,253.167 398.167,254.833 397,256.5C 396.682,254.939 395.849,253.772 394.5,253C 395.253,251.513 396.086,251.346 397,252.5C 398.487,251.747 398.654,250.914 397.5,250C 399.382,249.802 401.048,249.302 402.5,248.5C 406.175,253.502 408.508,259.169 409.5,265.5C 408.926,266.528 408.593,267.528 408.5,268.5C 407.828,267.051 407.161,265.718 406.5,264.5C 405.194,264.121 403.861,263.788 402.5,263.5C 401.304,263.846 401.304,264.346 402.5,265C 400.141,265.208 397.974,265.374 396,265.5C 393.942,264.891 393.109,263.891 393.5,262.5C 392.315,263.853 390.981,265.02 389.5,266C 392.167,266.667 392.167,267.333 389.5,268C 391.373,268.953 391.706,270.12 390.5,271.5C 389.733,272.172 389.066,273.005 388.5,274C 389.381,274.708 390.047,275.542 390.5,276.5C 390.5,276.833 390.5,277.167 390.5,277.5C 389.167,277.5 387.833,277.5 386.5,277.5C 385.752,274.095 384.752,270.762 383.5,267.5C 385.138,266.086 386.472,266.42 387.5,268.5C 387.94,267.302 388.273,266.135 388.5,265C 387.167,265 385.833,265 384.5,265C 386.26,264.035 386.594,262.868 385.5,261.5C 384.479,262.901 383.479,264.235 382.5,265.5C 379.227,259.564 375.561,253.897 371.5,248.5C 374.3,247.097 375.8,248.097 376,251.5C 377,248.833 378,248.833 379,251.5C 379.377,250.058 380.21,249.058 381.5,248.5 Z"/></g>
<g><path style="opacity:1" fill="#0c556e" d="M 401.5,247.5 C 402.167,247.5 402.5,247.833 402.5,248.5C 401.048,249.302 399.382,249.802 397.5,250C 398.654,250.914 398.487,251.747 397,252.5C 396.086,251.346 395.253,251.513 394.5,253C 395.849,253.772 396.682,254.939 397,256.5C 398.167,254.833 399.333,253.167 400.5,251.5C 401.675,250.145 402.675,250.312 403.5,252C 402.376,252.249 401.376,252.749 400.5,253.5C 399.039,255.61 398.206,257.61 398,259.5C 397.167,258 396,256.833 394.5,256C 395.696,255.346 395.696,254.846 394.5,254.5C 393.749,255.376 393.249,256.376 393,257.5C 391.122,256.947 389.622,255.947 388.5,254.5C 389.967,255.292 391.3,255.292 392.5,254.5C 391.572,253.232 391.405,251.899 392,250.5C 392.333,251.167 392.667,251.833 393,252.5C 394.849,249.966 396.515,247.3 398,244.5C 399.119,245.552 399.619,246.719 399.5,248C 400.437,248.692 401.103,248.525 401.5,247.5 Z"/></g>
<g><path style="opacity:1" fill="#0c556e" d="M 286.5,250.5 C 287.67,252.279 289.336,253.279 291.5,253.5C 291.741,256.999 290.908,257.332 289,254.5C 286.06,255.694 284.727,254.694 285,251.5C 285.423,252.956 286.256,253.456 287.5,253C 286.748,252.329 286.414,251.496 286.5,250.5 Z"/></g>
<g><path style="opacity:1" fill="#0c556e" d="M 388.5,254.5 C 383.912,254.119 383.578,252.953 387.5,251C 385.521,250.316 383.854,250.816 382.5,252.5C 382.212,251.139 381.879,249.806 381.5,248.5C 382.605,247.4 383.938,246.733 385.5,246.5C 385.047,247.458 384.381,248.292 383.5,249C 384.167,249.167 384.833,249.333 385.5,249.5C 386.266,248.197 387.766,246.863 390,245.5C 390.5,246 391,246.5 391.5,247C 390.328,247.419 389.328,248.085 388.5,249C 388.854,250.626 388.854,252.459 388.5,254.5 Z"/></g>
<g><path style="opacity:1" fill="#0c556e" d="M 279.5,255.5 C 281.196,255.685 282.529,256.519 283.5,258C 281.981,259.351 280.648,260.851 279.5,262.5C 278.808,261.975 278.308,261.308 278,260.5C 275.708,261.601 274.208,260.768 273.5,258C 274.025,257.308 274.692,256.808 275.5,256.5C 275.402,257.616 275.902,258.616 277,259.5C 278.595,258.644 279.428,257.311 279.5,255.5 Z"/></g>
<g><path style="opacity:1" fill="#0c556e" d="M 403.5,256.5 C 405.22,257.751 405.553,259.251 404.5,261C 405.167,261.333 405.833,261.667 406.5,262C 404.5,262.667 402.5,262.667 400.5,262C 404.272,261.389 404.272,260.389 400.5,259C 401.942,258.623 402.942,257.79 403.5,256.5 Z"/></g>
<g><path style="opacity:0.957" fill="#0c556e" d="M 264.5,258.5 C 264.5,258.167 264.5,257.833 264.5,257.5C 266.045,258.58 267.545,258.58 269,257.5C 270.31,258.13 271.144,259.13 271.5,260.5C 270.25,260.423 269.417,259.756 269,258.5C 268.667,259.167 268.333,259.833 268,260.5C 266.887,259.695 265.721,259.028 264.5,258.5 Z"/></g>
<g><path style="opacity:1" fill="#0c556e" d="M 389.5,258.5 C 391.359,258.461 392.692,259.294 393.5,261C 391.055,261.91 389.722,261.076 389.5,258.5 Z"/></g>
<g><path style="opacity:0.928" fill="#0c556e" d="M 264.5,258.5 C 265.721,259.028 266.887,259.695 268,260.5C 268.333,259.833 268.667,259.167 269,258.5C 269.417,259.756 270.25,260.423 271.5,260.5C 272.683,261.504 274.016,262.338 275.5,263C 273.005,262.588 270.671,262.755 268.5,263.5C 267.711,263.783 267.044,264.283 266.5,265C 266.833,266 267.167,267 267.5,268C 266.675,269.688 265.675,269.855 264.5,268.5C 263.749,269.376 263.249,270.376 263,271.5C 262.722,270.584 262.222,269.918 261.5,269.5C 261.742,265.521 262.742,261.854 264.5,258.5 Z"/></g>
<g><path style="opacity:1" fill="#0c556e" d="M 293.5,257.5 C 291.55,260.406 289.883,263.406 288.5,266.5C 287.069,266.119 286.236,265.119 286,263.5C 284.883,264.949 284.216,266.616 284,268.5C 283.25,267.874 282.416,267.374 281.5,267C 283.715,265.609 283.715,263.943 281.5,262C 284.195,260.584 284.861,258.584 283.5,256C 285.302,257.16 287.136,258.66 289,260.5C 289.589,258.137 291.089,257.137 293.5,257.5 Z"/></g>
<g><path style="opacity:1" fill="#0c556e" d="M 268.5,263.5 C 269.552,263.351 270.552,263.517 271.5,264C 271.167,265 270.833,266 270.5,267C 273.901,266.734 275.567,268.234 275.5,271.5C 274.85,271.804 274.183,272.137 273.5,272.5C 272.5,271.167 271.5,269.833 270.5,268.5C 269.914,268.709 269.414,269.043 269,269.5C 269.793,267.5 269.626,265.5 268.5,263.5 Z"/></g>
<g><path style="opacity:1" fill="#0c556e" d="M 383.5,267.5 C 383.167,266.833 382.833,266.167 382.5,265.5C 383.479,264.235 384.479,262.901 385.5,261.5C 386.594,262.868 386.26,264.035 384.5,265C 385.833,265 387.167,265 388.5,265C 388.273,266.135 387.94,267.302 387.5,268.5C 386.472,266.42 385.138,266.086 383.5,267.5 Z"/></g>
<g><path style="opacity:1" fill="#0c556e" d="M 406.5,264.5 C 405.086,266.054 403.419,267.388 401.5,268.5C 402.397,268.669 403.397,269.002 404.5,269.5C 402.865,270.681 401.198,270.681 399.5,269.5C 398.702,269.957 398.369,270.624 398.5,271.5C 397.265,271.721 396.265,272.388 395.5,273.5C 394.304,273.154 394.304,272.654 395.5,272C 393.658,272.068 391.991,271.901 390.5,271.5C 391.706,270.12 391.373,268.953 389.5,268C 392.167,267.333 392.167,266.667 389.5,266C 390.981,265.02 392.315,263.853 393.5,262.5C 393.109,263.891 393.942,264.891 396,265.5C 397.974,265.374 400.141,265.208 402.5,265C 401.304,264.346 401.304,263.846 402.5,263.5C 403.861,263.788 405.194,264.121 406.5,264.5 Z"/></g>
<g><path style="opacity:0.966" fill="#0d556e" d="M 268.5,263.5 C 269.626,265.5 269.793,267.5 269,269.5C 269.414,269.043 269.914,268.709 270.5,268.5C 271.5,269.833 272.5,271.167 273.5,272.5C 274.183,272.137 274.85,271.804 275.5,271.5C 276.838,269.887 278.505,269.387 280.5,270C 278.381,270.342 278.047,271.175 279.5,272.5C 278.1,273.1 277.1,274.1 276.5,275.5C 279.728,274.586 283.061,274.253 286.5,274.5C 285.656,278.099 285.323,281.766 285.5,285.5C 284.391,285.557 283.391,285.89 282.5,286.5C 281.167,285.167 279.833,285.167 278.5,286.5C 278.483,289.523 277.483,292.19 275.5,294.5C 274.808,293.975 274.308,293.308 274,292.5C 273.86,294.521 273.693,296.355 273.5,298C 275.896,298.866 276.563,298.366 275.5,296.5C 276.723,295.386 278.056,295.219 279.5,296C 279.201,297.073 279.201,298.24 279.5,299.5C 277.9,300.682 277.567,302.015 278.5,303.5C 277.575,304.562 276.575,304.562 275.5,303.5C 274.172,302.09 274.505,300.924 276.5,300C 275.833,299.833 275.167,299.667 274.5,299.5C 272.997,300.523 271.497,301.523 270,302.5C 267.636,301.008 266.136,301.674 265.5,304.5C 264.402,305.397 264.402,306.23 265.5,307C 264.833,307.333 264.167,307.667 263.5,308C 265.158,308.725 265.658,309.892 265,311.5C 264.617,310.944 264.117,310.611 263.5,310.5C 261.676,305.065 260.342,299.398 259.5,293.5C 260.496,293.414 261.329,293.748 262,294.5C 262.333,293.833 262.667,293.167 263,292.5C 264.755,295.044 266.755,297.377 269,299.5C 270.678,298.318 270.512,297.152 268.5,296C 268.667,295.5 268.833,295 269,294.5C 270.585,295.376 271.585,296.709 272,298.5C 272.167,297.833 272.333,297.167 272.5,296.5C 271.213,294.84 269.88,293.174 268.5,291.5C 269.167,290.833 269.833,290.167 270.5,289.5C 269.372,288.738 268.205,288.071 267,287.5C 266.5,288.667 265.667,289.5 264.5,290C 265.624,290.249 266.624,290.749 267.5,291.5C 267.333,291.833 267.167,292.167 267,292.5C 265.989,291.663 264.822,291.33 263.5,291.5C 263.085,289.253 262.418,287.086 261.5,285C 261.773,283.467 262.106,281.967 262.5,280.5C 264.379,280.607 264.712,280.107 263.5,279C 264.208,276.232 265.708,275.399 268,276.5C 268.12,272.989 266.786,272.655 264,275.5C 263.333,272.833 262.667,272.833 262,275.5C 261.617,274.944 261.117,274.611 260.5,274.5C 260.216,272.585 260.549,270.919 261.5,269.5C 262.222,269.918 262.722,270.584 263,271.5C 263.249,270.376 263.749,269.376 264.5,268.5C 265.675,269.855 266.675,269.688 267.5,268C 267.167,267 266.833,266 266.5,265C 267.044,264.283 267.711,263.783 268.5,263.5 Z"/></g>
<g><path style="opacity:0.914" fill="#0c556e" d="M 286.5,273.5 C 286.5,273.833 286.5,274.167 286.5,274.5C 283.061,274.253 279.728,274.586 276.5,275.5C 277.1,274.1 278.1,273.1 279.5,272.5C 281.138,273.914 282.472,273.58 283.5,271.5C 284.696,271.846 284.696,272.346 283.5,273C 284.448,273.483 285.448,273.649 286.5,273.5 Z"/></g>
<g><path style="opacity:1" fill="#0c556e" d="M 390.5,271.5 C 390.5,272.5 390.5,273.5 390.5,274.5C 394.286,274.638 394.286,275.305 390.5,276.5C 390.047,275.542 389.381,274.708 388.5,274C 389.066,273.005 389.733,272.172 390.5,271.5 Z"/></g>
<g><path style="opacity:1" fill="#0c556e" d="M 262.5,280.5 C 262.657,279.127 262.49,277.793 262,276.5C 261.623,277.942 260.79,278.942 259.5,279.5C 259.216,277.585 259.549,275.919 260.5,274.5C 261.117,274.611 261.617,274.944 262,275.5C 262.667,272.833 263.333,272.833 264,275.5C 266.786,272.655 268.12,272.989 268,276.5C 265.708,275.399 264.208,276.232 263.5,279C 264.712,280.107 264.379,280.607 262.5,280.5 Z"/></g>
<g><path style="opacity:0.925" fill="#0e556e" d="M 262.5,280.5 C 261.5,281.167 260.5,281.833 259.5,282.5C 259.5,281.5 259.5,280.5 259.5,279.5C 260.79,278.942 261.623,277.942 262,276.5C 262.49,277.793 262.657,279.127 262.5,280.5 Z"/></g>
<g><path style="opacity:1" fill="#0c556e" d="M 276.5,275.5 C 277.462,277.986 278.295,277.986 279,275.5C 279.724,277.959 281.057,278.959 283,278.5C 283.492,279.549 283.326,280.549 282.5,281.5C 279.534,281.521 276.534,281.688 273.5,282C 274.126,281.25 274.626,280.416 275,279.5C 276.264,279.64 277.431,279.64 278.5,279.5C 276.972,278.139 275.305,276.972 273.5,276C 274.448,275.517 275.448,275.351 276.5,275.5 Z"/></g>
<g><path style="opacity:1" fill="#0c556e" d="M 267.5,280.5 C 271.157,280.974 271.324,282.307 268,284.5C 266.666,283.122 266.499,281.789 267.5,280.5 Z"/></g>
<g><path style="opacity:1" fill="#0c556e" d="M 278.5,286.5 C 277.685,287.429 276.852,288.429 276,289.5C 274.992,289.018 273.825,288.852 272.5,289C 274.35,286.982 276.35,285.149 278.5,283.5C 279.087,284.233 279.087,285.233 278.5,286.5 Z"/></g>
<g><path style="opacity:0.826" fill="#0e556e" d="M 285.5,285.5 C 285.5,285.833 285.5,286.167 285.5,286.5C 284.185,287.476 282.852,288.476 281.5,289.5C 282.437,291.642 283.77,291.976 285.5,290.5C 285.674,292.861 286.007,295.194 286.5,297.5C 285.305,297.678 284.138,298.011 283,298.5C 282.872,296.786 282.038,295.119 280.5,293.5C 279.549,294.326 278.549,294.492 277.5,294C 278.818,291.176 280.485,288.676 282.5,286.5C 283.391,285.89 284.391,285.557 285.5,285.5 Z"/></g>
<g><path style="opacity:1" fill="#0c556e" d="M 282.5,286.5 C 280.485,288.676 278.818,291.176 277.5,294C 278.549,294.492 279.549,294.326 280.5,293.5C 282.038,295.119 282.872,296.786 283,298.5C 284.138,298.011 285.305,297.678 286.5,297.5C 287.038,299.117 287.371,300.784 287.5,302.5C 287.167,302.5 286.833,302.5 286.5,302.5C 284.605,300.759 282.272,299.759 279.5,299.5C 279.201,298.24 279.201,297.073 279.5,296C 278.056,295.219 276.723,295.386 275.5,296.5C 276.563,298.366 275.896,298.866 273.5,298C 273.693,296.355 273.86,294.521 274,292.5C 274.308,293.308 274.808,293.975 275.5,294.5C 277.483,292.19 278.483,289.523 278.5,286.5C 279.833,285.167 281.167,285.167 282.5,286.5 Z"/></g>
<g><path style="opacity:0.954" fill="#0c556e" d="M 262.5,280.5 C 262.106,281.967 261.773,283.467 261.5,285C 262.418,287.086 263.085,289.253 263.5,291.5C 264.822,291.33 265.989,291.663 267,292.5C 267.167,292.167 267.333,291.833 267.5,291.5C 266.624,290.749 265.624,290.249 264.5,290C 265.667,289.5 266.5,288.667 267,287.5C 268.205,288.071 269.372,288.738 270.5,289.5C 269.833,290.167 269.167,290.833 268.5,291.5C 269.88,293.174 271.213,294.84 272.5,296.5C 272.333,297.167 272.167,297.833 272,298.5C 271.585,296.709 270.585,295.376 269,294.5C 268.833,295 268.667,295.5 268.5,296C 270.512,297.152 270.678,298.318 269,299.5C 266.755,297.377 264.755,295.044 263,292.5C 262.667,293.167 262.333,293.833 262,294.5C 261.329,293.748 260.496,293.414 259.5,293.5C 259.5,289.833 259.5,286.167 259.5,282.5C 260.5,281.833 261.5,281.167 262.5,280.5 Z"/></g>
<g><path style="opacity:0.706" fill="#0c556e" d="M 386.5,283.5 C 387.302,284.952 387.802,286.618 388,288.5C 388.654,287.304 389.154,287.304 389.5,288.5C 388.812,289.855 387.812,290.855 386.5,291.5C 386.5,288.833 386.5,286.167 386.5,283.5 Z"/></g>
<g><path style="opacity:0.935" fill="#0c556e" d="M 285.5,286.5 C 285.5,287.833 285.5,289.167 285.5,290.5C 283.77,291.976 282.437,291.642 281.5,289.5C 282.852,288.476 284.185,287.476 285.5,286.5 Z"/></g>
<g><path style="opacity:0.941" fill="#0d556e" d="M 406.5,264.5 C 407.161,265.718 407.828,267.051 408.5,268.5C 408.593,267.528 408.926,266.528 409.5,265.5C 410.29,266.609 410.79,267.942 411,269.5C 411.5,275.825 411.666,282.158 411.5,288.5C 410.711,288.783 410.044,289.283 409.5,290C 409.665,291.117 409.998,292.284 410.5,293.5C 409.975,294.192 409.308,294.692 408.5,295C 409.126,295.75 409.626,296.584 410,297.5C 410.278,296.584 410.778,295.918 411.5,295.5C 411.678,299.122 411.011,302.456 409.5,305.5C 408.596,304.791 408.263,303.791 408.5,302.5C 406.345,302.372 404.345,302.872 402.5,304C 403.793,304.49 405.127,304.657 406.5,304.5C 404.599,307.328 405.266,308.994 408.5,309.5C 408.567,310.959 408.234,312.292 407.5,313.5C 406.624,313.631 405.957,313.298 405.5,312.5C 406.506,311.604 406.506,310.938 405.5,310.5C 403.599,312.006 401.932,313.673 400.5,315.5C 400.611,313.352 399.944,313.019 398.5,314.5C 395.763,311.697 393.429,311.864 391.5,315C 392.272,316.221 393.272,317.221 394.5,318C 393.584,318.278 392.918,318.778 392.5,319.5C 392.167,319.5 391.833,319.5 391.5,319.5C 390.5,318.833 389.5,318.167 388.5,317.5C 390.085,316.998 390.585,315.998 390,314.5C 389.667,314.833 389.333,315.167 389,315.5C 387.172,313.919 385.172,312.585 383,311.5C 382.283,312.044 381.783,312.711 381.5,313.5C 380.833,313.5 380.167,313.5 379.5,313.5C 380.93,309.646 382.597,305.979 384.5,302.5C 385.825,301.047 386.658,301.381 387,303.5C 387.763,300.937 388.263,300.937 388.5,303.5C 388.182,304.647 387.516,305.481 386.5,306C 387.448,306.483 388.448,306.649 389.5,306.5C 389.343,305.127 389.51,303.793 390,302.5C 390.317,304.301 390.984,304.634 392,303.5C 392.492,302.451 392.326,301.451 391.5,300.5C 391.808,299.692 392.308,299.025 393,298.5C 394.008,298.982 395.175,299.148 396.5,299C 394.789,300.133 394.289,301.633 395,303.5C 396.835,301.674 398.669,300.674 400.5,300.5C 399.975,299.808 399.308,299.308 398.5,299C 398.833,298.667 399.167,298.333 399.5,298C 397.519,297.395 397.185,296.395 398.5,295C 397.177,294.184 396.511,293.017 396.5,291.5C 395.504,291.586 394.671,291.252 394,290.5C 391.887,292.271 392.053,293.771 394.5,295C 393.874,295.75 393.374,296.584 393,297.5C 390.525,291.389 388.525,291.389 387,297.5C 386.617,296.944 386.117,296.611 385.5,296.5C 386.038,294.883 386.371,293.216 386.5,291.5C 387.812,290.855 388.812,289.855 389.5,288.5C 389.154,287.304 388.654,287.304 388,288.5C 387.802,286.618 387.302,284.952 386.5,283.5C 386.5,281.5 386.5,279.5 386.5,277.5C 387.833,277.5 389.167,277.5 390.5,277.5C 390.5,277.167 390.5,276.833 390.5,276.5C 394.286,275.305 394.286,274.638 390.5,274.5C 390.5,273.5 390.5,272.5 390.5,271.5C 391.991,271.901 393.658,272.068 395.5,272C 394.304,272.654 394.304,273.154 395.5,273.5C 396.265,272.388 397.265,271.721 398.5,271.5C 398.369,270.624 398.702,269.957 399.5,269.5C 401.198,270.681 402.865,270.681 404.5,269.5C 403.397,269.002 402.397,268.669 401.5,268.5C 403.419,267.388 405.086,266.054 406.5,264.5 Z"/></g>
<g><path style="opacity:1" fill="#0c556e" d="M 403.5,295.5 C 402.603,294.402 401.77,294.402 401,295.5C 399.513,294.747 399.346,293.914 400.5,293C 399.255,292.209 397.922,291.709 396.5,291.5C 398.449,287.825 400.449,287.992 402.5,292C 402.167,292.333 401.833,292.667 401.5,293C 402.756,293.417 403.423,294.25 403.5,295.5 Z"/></g>
<g><path style="opacity:1" fill="#0c556e" d="M 404.5,287.5 C 406.379,287.393 406.712,287.893 405.5,289C 408.028,290.316 408.028,291.483 405.5,292.5C 402.14,291.209 401.806,289.543 404.5,287.5 Z"/></g>
<g><path style="opacity:1" fill="#0c556e" d="M 401.5,285.5 C 402.65,284.15 403.317,284.316 403.5,286C 402.709,288.734 401.376,289.068 399.5,287C 400.416,286.722 401.082,286.222 401.5,285.5 Z"/></g>
<g><path style="opacity:1" fill="#0c556e" d="M 394.5,283.5 C 397.45,285.574 397.617,287.574 395,289.5C 394.5,288.333 393.667,287.5 392.5,287C 393.823,286.184 394.489,285.017 394.5,283.5 Z"/></g>
<g><path style="opacity:1" fill="#0c556e" d="M 401.5,285.5 C 397.15,285.633 396.15,284.3 398.5,281.5C 400.284,280.107 402.284,279.607 404.5,280C 403.747,281.487 402.914,281.654 402,280.5C 401.682,282.061 400.849,283.228 399.5,284C 400.416,284.278 401.082,284.778 401.5,285.5 Z"/></g>
<g><path style="opacity:1" fill="#0c556e" d="M 390.5,277.5 C 391.239,277.369 391.906,277.536 392.5,278C 392.554,279.351 392.054,280.518 391,281.5C 390.5,281.167 390,280.833 389.5,280.5C 390.127,279.583 390.461,278.583 390.5,277.5 Z"/></g>
<g><path style="opacity:1" fill="#0c556e" d="M 398.5,271.5 C 400.356,271.437 402.022,271.77 403.5,272.5C 400.456,274.494 398.456,276.827 397.5,279.5C 397.863,280.183 398.196,280.85 398.5,281.5C 396.787,280.695 395.121,279.695 393.5,278.5C 394.771,278.874 395.938,278.208 397,276.5C 397.333,276.833 397.667,277.167 398,277.5C 398.456,276.256 397.956,275.423 396.5,275C 397.167,274.667 397.833,274.333 398.5,274C 397.402,273.23 397.402,272.397 398.5,271.5 Z"/></g>
<g><path style="opacity:0.803" fill="#0c556e" d="M 411.5,288.5 C 411.5,290.833 411.5,293.167 411.5,295.5C 410.778,295.918 410.278,296.584 410,297.5C 409.626,296.584 409.126,295.75 408.5,295C 409.308,294.692 409.975,294.192 410.5,293.5C 409.998,292.284 409.665,291.117 409.5,290C 410.044,289.283 410.711,288.783 411.5,288.5 Z"/></g>
<g><path style="opacity:1" fill="#0c556e" d="M 396.5,291.5 C 396.511,293.017 397.177,294.184 398.5,295C 397.185,296.395 397.519,297.395 399.5,298C 399.167,298.333 398.833,298.667 398.5,299C 399.308,299.308 399.975,299.808 400.5,300.5C 398.669,300.674 396.835,301.674 395,303.5C 394.289,301.633 394.789,300.133 396.5,299C 395.175,299.148 394.008,298.982 393,298.5C 392.308,299.025 391.808,299.692 391.5,300.5C 392.326,301.451 392.492,302.451 392,303.5C 390.984,304.634 390.317,304.301 390,302.5C 389.51,303.793 389.343,305.127 389.5,306.5C 388.448,306.649 387.448,306.483 386.5,306C 387.516,305.481 388.182,304.647 388.5,303.5C 388.263,300.937 387.763,300.937 387,303.5C 386.658,301.381 385.825,301.047 384.5,302.5C 384.833,300.5 385.167,298.5 385.5,296.5C 386.117,296.611 386.617,296.944 387,297.5C 388.525,291.389 390.525,291.389 393,297.5C 393.374,296.584 393.874,295.75 394.5,295C 392.053,293.771 391.887,292.271 394,290.5C 394.671,291.252 395.504,291.586 396.5,291.5 Z"/></g>
<g><path style="opacity:1" fill="#0c556e" d="M 403.5,295.5 C 404.978,295.238 406.311,295.571 407.5,296.5C 406.229,296.126 405.062,296.792 404,298.5C 403.517,297.552 403.351,296.552 403.5,295.5 Z"/></g>
<g><path style="opacity:1" fill="#0c556e" d="M 275.5,303.5 C 272.475,304.412 269.142,304.745 265.5,304.5C 266.136,301.674 267.636,301.008 270,302.5C 271.497,301.523 272.997,300.523 274.5,299.5C 275.167,299.667 275.833,299.833 276.5,300C 274.505,300.924 274.172,302.09 275.5,303.5 Z"/></g>
<g><path style="opacity:0.841" fill="#0c556e" d="M 409.5,305.5 C 409.768,307.099 409.434,308.432 408.5,309.5C 405.266,308.994 404.599,307.328 406.5,304.5C 405.127,304.657 403.793,304.49 402.5,304C 404.345,302.872 406.345,302.372 408.5,302.5C 408.263,303.791 408.596,304.791 409.5,305.5 Z"/></g>
<g><path style="opacity:1" fill="#0c556e" d="M 393.5,307.5 C 397.537,309.368 397.37,310.702 393,311.5C 392.167,311.167 391.333,310.833 390.5,310.5C 391.716,309.904 393.049,309.737 394.5,310C 393.748,309.329 393.414,308.496 393.5,307.5 Z"/></g>
<g><path style="opacity:0.931" fill="#0c556e" d="M 290.5,310.5 C 291.167,310.5 291.5,310.833 291.5,311.5C 290.968,313.36 289.801,315.36 288,317.5C 288.453,315.546 288.62,313.713 288.5,312C 287.672,311.085 286.672,310.419 285.5,310C 286.766,309.691 287.933,309.191 289,308.5C 289.278,309.416 289.778,310.082 290.5,310.5 Z"/></g>
<g><path style="opacity:0.859" fill="#0c556e" d="M 407.5,313.5 C 407.5,313.833 407.5,314.167 407.5,314.5C 406.127,314.343 404.793,314.51 403.5,315C 402.304,315.654 402.304,316.154 403.5,316.5C 404.417,315.873 405.417,315.539 406.5,315.5C 406.34,317.153 405.674,318.486 404.5,319.5C 402.861,318.527 401.527,317.194 400.5,315.5C 401.932,313.673 403.599,312.006 405.5,310.5C 406.506,310.938 406.506,311.604 405.5,312.5C 405.957,313.298 406.624,313.631 407.5,313.5 Z"/></g>
<g><path style="opacity:1" fill="#0c556e" d="M 400.5,315.5 C 399.761,315.369 399.094,315.536 398.5,316C 399.673,319.11 399.173,319.277 397,316.5C 396,317.833 395,319.167 394,320.5C 393.617,319.944 393.117,319.611 392.5,319.5C 392.918,318.778 393.584,318.278 394.5,318C 393.272,317.221 392.272,316.221 391.5,315C 393.429,311.864 395.763,311.697 398.5,314.5C 399.944,313.019 400.611,313.352 400.5,315.5 Z"/></g>
<g><path style="opacity:0.918" fill="#0d556e" d="M 378.5,314.5 C 380.76,315.238 380.927,316.238 379,317.5C 378.283,316.956 377.783,316.289 377.5,315.5C 377.5,314.833 377.833,314.5 378.5,314.5 Z"/></g>
<g><path style="opacity:0.998" fill="#0c556e" d="M 378.5,314.5 C 378.5,313.833 378.833,313.5 379.5,313.5C 380.167,313.5 380.833,313.5 381.5,313.5C 381.923,314.265 382.257,315.098 382.5,316C 381.594,317.752 380.594,319.586 379.5,321.5C 379.323,320.053 378.323,318.719 376.5,317.5C 376.328,316.508 376.662,315.842 377.5,315.5C 377.783,316.289 378.283,316.956 379,317.5C 380.927,316.238 380.76,315.238 378.5,314.5 Z"/></g>
<g><path style="opacity:0.707" fill="#0e556e" d="M 407.5,314.5 C 407.5,315.167 407.167,315.5 406.5,315.5C 405.417,315.539 404.417,315.873 403.5,316.5C 402.304,316.154 402.304,315.654 403.5,315C 404.793,314.51 406.127,314.343 407.5,314.5 Z"/></g>
<g><path style="opacity:0.616" fill="#0c556e" d="M 265.5,315.5 C 267.85,316.146 269.184,317.313 269.5,319C 268.956,319.717 268.289,320.217 267.5,320.5C 266.559,318.95 265.893,317.284 265.5,315.5 Z"/></g>
<g><path style="opacity:1" fill="#0c556e" d="M 298.5,321.5 C 300.404,321.738 301.738,322.738 302.5,324.5C 301.504,324.586 300.671,324.252 300,323.5C 299.751,324.624 299.251,325.624 298.5,326.5C 298.167,326.333 297.833,326.167 297.5,326C 297.47,324.571 297.803,323.071 298.5,321.5 Z"/></g>
<g><path style="opacity:0.454" fill="#0d566e" d="M 371.5,322.5 C 371.5,323.167 371.5,323.833 371.5,324.5C 370.075,326.031 369.409,325.698 369.5,323.5C 370.167,323.167 370.833,322.833 371.5,322.5 Z"/></g>
<g><path style="opacity:0.976" fill="#0d556e" d="M 279.5,299.5 C 282.272,299.759 284.605,300.759 286.5,302.5C 286.833,302.5 287.167,302.5 287.5,302.5C 289.02,304.89 290.02,307.557 290.5,310.5C 289.778,310.082 289.278,309.416 289,308.5C 287.933,309.191 286.766,309.691 285.5,310C 286.672,310.419 287.672,311.085 288.5,312C 288.62,313.713 288.453,315.546 288,317.5C 289.801,315.36 290.968,313.36 291.5,311.5C 293.831,314.825 296.164,318.158 298.5,321.5C 297.803,323.071 297.47,324.571 297.5,326C 297.833,326.167 298.167,326.333 298.5,326.5C 299.251,325.624 299.751,324.624 300,323.5C 300.671,324.252 301.504,324.586 302.5,324.5C 301.365,325.474 300.365,326.641 299.5,328C 301.007,326.711 302.673,326.211 304.5,326.5C 305.492,326.328 306.158,326.662 306.5,327.5C 306.082,328.222 305.416,328.722 304.5,329C 305.833,329.667 305.833,330.333 304.5,331C 305.624,331.249 306.624,331.749 307.5,332.5C 307.154,333.696 306.654,333.696 306,332.5C 305.333,334.167 305.333,335.833 306,337.5C 308.364,335.844 310.197,333.844 311.5,331.5C 314.172,332.501 316.838,333.501 319.5,334.5C 321.127,336.63 322.96,338.63 325,340.5C 326.376,339.295 327.542,337.962 328.5,336.5C 329.833,336.5 331.167,336.5 332.5,336.5C 332.013,337.473 331.513,338.473 331,339.5C 328.871,338.137 328.371,338.471 329.5,340.5C 328.975,341.192 328.308,341.692 327.5,342C 330.129,345.199 329.796,348.199 326.5,351C 327.094,351.464 327.761,351.631 328.5,351.5C 326.855,353.774 325.355,353.774 324,351.5C 323.259,355.185 321.759,355.851 319.5,353.5C 318.494,353.938 318.494,354.604 319.5,355.5C 317.577,356.308 315.577,356.808 313.5,357C 314.672,357.419 315.672,358.085 316.5,359C 316.272,359.399 315.938,359.565 315.5,359.5C 313.901,359.768 312.568,359.434 311.5,358.5C 312.833,357.167 312.833,355.833 311.5,354.5C 309.871,352.142 308.705,349.476 308,346.5C 306.703,347.784 305.536,347.617 304.5,346C 306.615,345.576 307.448,344.409 307,342.5C 306.147,344.125 305.147,344.458 304,343.5C 303,345.167 302,346.833 301,348.5C 300.147,346.397 298.98,346.397 297.5,348.5C 296.89,349.391 296.557,350.391 296.5,351.5C 292.762,349.303 289.429,346.636 286.5,343.5C 287.849,342.047 289.515,341.047 291.5,340.5C 291.631,339.624 291.298,338.957 290.5,338.5C 288.339,337.965 286.339,337.132 284.5,336C 285.634,334.984 285.301,334.317 283.5,334C 284.647,331.915 283.98,330.415 281.5,329.5C 280.548,331.045 280.215,332.712 280.5,334.5C 279.209,334.737 278.209,334.404 277.5,333.5C 276.833,333.5 276.167,333.5 275.5,333.5C 274.833,333.5 274.5,333.167 274.5,332.5C 275.598,331.603 275.598,330.77 274.5,330C 275.167,329.667 275.833,329.333 276.5,329C 275.072,328.421 273.738,328.588 272.5,329.5C 270.58,326.661 268.913,323.661 267.5,320.5C 268.289,320.217 268.956,319.717 269.5,319C 269.184,317.313 267.85,316.146 265.5,315.5C 264.463,314.07 263.796,312.403 263.5,310.5C 264.117,310.611 264.617,310.944 265,311.5C 265.658,309.892 265.158,308.725 263.5,308C 264.167,307.667 264.833,307.333 265.5,307C 264.402,306.23 264.402,305.397 265.5,304.5C 269.142,304.745 272.475,304.412 275.5,303.5C 276.575,304.562 277.575,304.562 278.5,303.5C 277.567,302.015 277.9,300.682 279.5,299.5 Z"/></g>
<g><path style="opacity:1" fill="#0c556e" d="M 287.5,318.5 C 289.655,318.372 291.655,318.872 293.5,320C 292.953,320.925 292.287,321.758 291.5,322.5C 290.575,321.359 289.741,321.359 289,322.5C 288.097,321.299 286.931,320.465 285.5,320C 286.416,319.722 287.082,319.222 287.5,318.5 Z"/></g>
<g><path style="opacity:1" fill="#0c556e" d="M 282.5,317.5 C 284.76,318.238 284.927,319.238 283,320.5C 281.605,319.185 280.605,319.519 280,321.5C 279.517,320.552 279.351,319.552 279.5,318.5C 280.791,318.737 281.791,318.404 282.5,317.5 Z"/></g>
<g><path style="opacity:1" fill="#0c556e" d="M 281.5,308.5 C 283.57,308.583 283.903,309.583 282.5,311.5C 285.205,313.534 284.872,315.201 281.5,316.5C 280.28,316.113 279.613,315.28 279.5,314C 280.885,312.403 281.551,310.57 281.5,308.5 Z"/></g>
<g><path style="opacity:1" fill="#0c556e" d="M 266.5,306.5 C 267.077,305.227 267.743,305.227 268.5,306.5C 268.411,308.949 268.911,311.283 270,313.5C 271.171,312.107 272.671,311.273 274.5,311C 272.818,306.953 273.485,306.12 276.5,308.5C 276.833,307.833 277.167,307.167 277.5,306.5C 277.833,307.167 278.167,307.833 278.5,308.5C 278.148,309.786 277.482,310.619 276.5,311C 276.905,311.945 277.572,312.612 278.5,313C 276.236,312.302 274.403,312.802 273,314.5C 271.442,313.655 270.442,314.321 270,316.5C 269,314.833 268,313.167 267,311.5C 267.096,309.619 266.929,307.953 266.5,306.5 Z"/></g>
<g><path style="opacity:0.999" fill="#0c556e" d="M 286.5,302.5 C 285.472,303.787 285.805,304.954 287.5,306C 287.333,306.5 287.167,307 287,307.5C 285.482,305.662 283.649,304.162 281.5,303C 281.667,302.5 281.833,302 282,301.5C 283.388,301.214 284.888,301.548 286.5,302.5 Z"/></g>
<g><path style="opacity:0.795" fill="#0c556e" d="M 369.5,323.5 C 369.409,325.698 370.075,326.031 371.5,324.5C 370.829,325.847 370.829,327.014 371.5,328C 370.5,328.5 369.5,329 368.5,329.5C 368.912,328.218 368.246,327.218 366.5,326.5C 367.167,325.167 368.167,324.167 369.5,323.5 Z"/></g>
<g><path style="opacity:1" fill="#0c556e" d="M 292.5,329.5 C 290.891,330.665 290.557,331.999 291.5,333.5C 290.451,336.417 288.784,336.917 286.5,335C 287.167,334.667 287.833,334.333 288.5,334C 285.311,333.019 284.978,331.686 287.5,330C 284.895,328.069 284.895,326.236 287.5,324.5C 288.59,325.727 289.924,326.56 291.5,327C 292.252,327.671 292.586,328.504 292.5,329.5 Z"/></g>
<g><path style="opacity:0.576" fill="#0c556e" d="M 302.5,324.5 C 303.5,324.833 304.167,325.5 304.5,326.5C 302.673,326.211 301.007,326.711 299.5,328C 300.365,326.641 301.365,325.474 302.5,324.5 Z"/></g>
<g><path style="opacity:0.969" fill="#0d556e" d="M 388.5,317.5 C 388.361,318.919 387.861,320.252 387,321.5C 386.667,320.833 386.333,320.167 386,319.5C 385.333,321.5 385.333,323.5 386,325.5C 387.23,322.964 389.063,320.964 391.5,319.5C 391.833,319.5 392.167,319.5 392.5,319.5C 393.117,319.611 393.617,319.944 394,320.5C 395,319.167 396,317.833 397,316.5C 399.173,319.277 399.673,319.11 398.5,316C 399.094,315.536 399.761,315.369 400.5,315.5C 401.527,317.194 402.861,318.527 404.5,319.5C 402.081,324.009 399.414,328.342 396.5,332.5C 395.761,332.631 395.094,332.464 394.5,332C 397.346,330.6 397.679,329.1 395.5,327.5C 394.893,327.624 394.56,327.957 394.5,328.5C 393.167,328.5 391.833,328.5 390.5,328.5C 390.5,329.167 390.5,329.833 390.5,330.5C 389.178,330.67 388.011,330.337 387,329.5C 386.544,330.744 387.044,331.577 388.5,332C 387.167,332.333 385.833,332.667 384.5,333C 385.085,334.302 385.751,335.469 386.5,336.5C 389.209,338.132 388.875,338.632 385.5,338C 384.953,337.075 384.287,336.242 383.5,335.5C 383.483,336.394 383.149,337.394 382.5,338.5C 384.001,339.752 385.668,340.752 387.5,341.5C 384.571,344.636 381.238,347.303 377.5,349.5C 377.217,348.711 376.717,348.044 376,347.5C 374.855,347.619 373.688,347.952 372.5,348.5C 373.5,349.167 374.5,349.833 375.5,350.5C 375.158,351.338 374.492,351.672 373.5,351.5C 372.365,349.912 371.031,349.579 369.5,350.5C 367.664,349.972 365.997,349.306 364.5,348.5C 363.542,345.875 362.376,345.875 361,348.5C 358.645,345.87 358.145,346.203 359.5,349.5C 358.07,349.579 356.736,349.246 355.5,348.5C 354.304,348.846 354.304,349.346 355.5,350C 354.262,349.923 353.262,350.089 352.5,350.5C 354.113,351.427 355.779,352.261 357.5,353C 354.695,354.578 354.028,356.745 355.5,359.5C 354.791,360.404 353.791,360.737 352.5,360.5C 352.649,359.448 352.483,358.448 352,357.5C 350.473,355.542 348.973,354.375 347.5,354C 347.8,351.976 348.633,351.476 350,352.5C 352.096,351.285 351.929,350.451 349.5,350C 350.451,349.282 350.617,348.449 350,347.5C 347.676,348.807 346.343,350.807 346,353.5C 345.768,352.263 345.268,351.263 344.5,350.5C 343.778,350.918 343.278,351.584 343,352.5C 342.667,351.833 342.333,351.167 342,350.5C 340.488,351.257 339.154,352.257 338,353.5C 336.961,352.756 336.461,351.756 336.5,350.5C 335.152,349.399 333.652,348.399 332,347.5C 331.691,346.234 331.191,345.067 330.5,344C 331.744,343.544 332.577,344.044 333,345.5C 333.374,344.584 333.874,343.75 334.5,343C 333.167,342.333 331.833,341.667 330.5,341C 332.376,340.082 333.376,338.582 333.5,336.5C 338.547,336.663 343.547,336.329 348.5,335.5C 349.32,337.14 350.153,338.807 351,340.5C 352,339.167 353,339.167 354,340.5C 354.464,339.906 354.631,339.239 354.5,338.5C 355.5,338.5 356.5,338.5 357.5,338.5C 357.67,339.822 357.337,340.989 356.5,342C 359.244,342.441 361.244,341.941 362.5,340.5C 362.649,339.448 362.483,338.448 362,337.5C 361.282,338.451 360.449,338.617 359.5,338C 359.943,336.482 359.276,335.315 357.5,334.5C 358.5,333.667 359.5,332.833 360.5,332C 360.272,331.601 359.938,331.435 359.5,331.5C 361.296,329.1 363.63,327.433 366.5,326.5C 368.246,327.218 368.912,328.218 368.5,329.5C 369.5,329 370.5,328.5 371.5,328C 370.829,327.014 370.829,325.847 371.5,324.5C 371.5,323.833 371.5,323.167 371.5,322.5C 372.833,320.5 374.5,318.833 376.5,317.5C 378.323,318.719 379.323,320.053 379.5,321.5C 380.594,319.586 381.594,317.752 382.5,316C 382.257,315.098 381.923,314.265 381.5,313.5C 381.783,312.711 382.283,312.044 383,311.5C 385.172,312.585 387.172,313.919 389,315.5C 389.333,315.167 389.667,314.833 390,314.5C 390.585,315.998 390.085,316.998 388.5,317.5 Z"/></g>
<g><path style="opacity:1" fill="#0c556e" d="M 377.5,324.5 C 377.56,323.957 377.893,323.624 378.5,323.5C 380.085,325.087 381.752,325.92 383.5,326C 381.109,327.309 381.109,328.309 383.5,329C 380.941,332.039 379.774,331.206 380,326.5C 379.851,329.279 379.017,329.779 377.5,328C 378.791,326.708 378.791,325.542 377.5,324.5 Z"/></g>
<g><path style="opacity:1" fill="#0c556e" d="M 390.5,328.5 C 389.046,327.48 388.713,326.313 389.5,325C 387.205,324.016 387.539,323.183 390.5,322.5C 390.972,324.401 390.972,326.401 390.5,328.5 Z"/></g>
<g><path style="opacity:1" fill="#0c556e" d="M 388.5,317.5 C 389.5,318.167 390.5,318.833 391.5,319.5C 389.063,320.964 387.23,322.964 386,325.5C 385.333,323.5 385.333,321.5 386,319.5C 386.333,320.167 386.667,320.833 387,321.5C 387.861,320.252 388.361,318.919 388.5,317.5 Z"/></g>
<g><path style="opacity:1" fill="#0c556e" d="M 292.5,333.5 C 292.5,332.167 292.5,330.833 292.5,329.5C 296.39,326.94 297.557,328.273 296,333.5C 295.014,332.829 293.847,332.829 292.5,333.5 Z"/></g>
<g><path style="opacity:0.984" fill="#0c556e" d="M 396.5,332.5 C 395.833,333.833 394.833,334.833 393.5,335.5C 393.25,333.326 392.25,331.659 390.5,330.5C 390.5,329.833 390.5,329.167 390.5,328.5C 391.833,328.5 393.167,328.5 394.5,328.5C 394.56,327.957 394.893,327.624 395.5,327.5C 397.679,329.1 397.346,330.6 394.5,332C 395.094,332.464 395.761,332.631 396.5,332.5 Z"/></g>
<g><path style="opacity:0.488" fill="#0c556e" d="M 274.5,332.5 C 273.599,331.71 272.932,330.71 272.5,329.5C 273.738,328.588 275.072,328.421 276.5,329C 275.833,329.333 275.167,329.667 274.5,330C 275.598,330.77 275.598,331.603 274.5,332.5 Z"/></g>
<g><path style="opacity:1" fill="#0e566e" d="M 394.5,328.5 C 395.773,329.077 395.773,329.743 394.5,330.5C 393.537,330.03 393.537,329.363 394.5,328.5 Z"/></g>
<g><path style="opacity:1" fill="#0e556e" d="M 292.5,329.5 C 292.5,330.833 292.5,332.167 292.5,333.5C 292.167,333.5 291.833,333.5 291.5,333.5C 290.557,331.999 290.891,330.665 292.5,329.5 Z"/></g>
<g><path style="opacity:1" fill="#0c556e" d="M 390.5,330.5 C 389.884,332.417 388.55,333.584 386.5,334C 387.598,334.77 387.598,335.603 386.5,336.5C 385.751,335.469 385.085,334.302 384.5,333C 385.833,332.667 387.167,332.333 388.5,332C 387.044,331.577 386.544,330.744 387,329.5C 388.011,330.337 389.178,330.67 390.5,330.5 Z"/></g>
<g><path style="opacity:0.948" fill="#0c556e" d="M 306.5,327.5 C 308.749,328.08 310.415,329.413 311.5,331.5C 310.197,333.844 308.364,335.844 306,337.5C 305.333,335.833 305.333,334.167 306,332.5C 306.654,333.696 307.154,333.696 307.5,332.5C 306.624,331.749 305.624,331.249 304.5,331C 305.833,330.333 305.833,329.667 304.5,329C 305.416,328.722 306.082,328.222 306.5,327.5 Z"/></g>
<g><path style="opacity:1" fill="#0c556e" d="M 371.5,333.5 C 369.473,333.662 367.473,333.495 365.5,333C 366.667,332.5 367.5,331.667 368,330.5C 368.667,333.167 369.333,333.167 370,330.5C 370.513,331.527 371.013,332.527 371.5,333.5 Z"/></g>
<g><path style="opacity:0.825" fill="#0d556e" d="M 390.5,330.5 C 392.25,331.659 393.25,333.326 393.5,335.5C 392.483,337.911 390.816,339.578 388.5,340.5C 391.512,337.631 390.845,336.298 386.5,336.5C 387.598,335.603 387.598,334.77 386.5,334C 388.55,333.584 389.884,332.417 390.5,330.5 Z"/></g>
<g><path style="opacity:1" fill="#0c556e" d="M 277.5,333.5 C 276.491,332.061 276.824,330.728 278.5,329.5C 278.564,330.365 278.897,331.365 279.5,332.5C 279.043,333.298 278.376,333.631 277.5,333.5 Z"/></g>
<g><path style="opacity:1" fill="#0c556e" d="M 303.5,335.5 C 299.549,335.282 298.882,333.949 301.5,331.5C 302.354,332.522 303.354,333.355 304.5,334C 303.944,334.383 303.611,334.883 303.5,335.5 Z"/></g>
<g><path style="opacity:1" fill="#0c556e" d="M 312.5,334.5 C 313.688,335.684 314.855,335.684 316,334.5C 318,335.5 318,336.5 316,337.5C 314.601,336.773 313.101,336.273 311.5,336C 312.056,335.617 312.389,335.117 312.5,334.5 Z"/></g>
<g><path style="opacity:1" fill="#0c556e" d="M 371.5,335.5 C 370.737,336.268 369.737,336.768 368.5,337C 369.451,337.718 369.617,338.551 369,339.5C 365.697,337.603 365.864,335.936 369.5,334.5C 370.183,334.863 370.85,335.196 371.5,335.5 Z"/></g>
<g><path style="opacity:1" fill="#0c556e" d="M 303.5,335.5 C 306.43,338.581 305.597,340.581 301,341.5C 298.302,341.607 297.968,340.94 300,339.5C 300.333,339.833 300.667,340.167 301,340.5C 301.847,338.807 302.68,337.14 303.5,335.5 Z"/></g>
<g><path style="opacity:0.781" fill="#0c556e" d="M 319.5,334.5 C 322.5,335.167 325.5,335.833 328.5,336.5C 327.542,337.962 326.376,339.295 325,340.5C 322.96,338.63 321.127,336.63 319.5,334.5 Z"/></g>
<g><path style="opacity:1" fill="#0c556e" d="M 359.5,331.5 C 359.938,331.435 360.272,331.601 360.5,332C 359.5,332.833 358.5,333.667 357.5,334.5C 359.276,335.315 359.943,336.482 359.5,338C 360.449,338.617 361.282,338.451 362,337.5C 362.483,338.448 362.649,339.448 362.5,340.5C 361.244,341.941 359.244,342.441 356.5,342C 357.337,340.989 357.67,339.822 357.5,338.5C 356.5,338.5 355.5,338.5 354.5,338.5C 354.631,339.239 354.464,339.906 354,340.5C 353,339.167 352,339.167 351,340.5C 350.153,338.807 349.32,337.14 348.5,335.5C 352.162,334.168 355.828,332.835 359.5,331.5 Z"/></g>
<g><path style="opacity:0.999" fill="#0d556e" d="M 354.5,338.5 C 352.115,337.133 352.448,335.799 355.5,334.5C 355.833,334.667 356.167,334.833 356.5,335C 355.177,335.816 354.511,336.983 354.5,338.5 Z"/></g>
<g><path style="opacity:1" fill="#0c556e" d="M 295.5,336.5 C 297.288,336.215 298.955,336.548 300.5,337.5C 299.349,338.731 298.183,338.731 297,337.5C 293.472,340.161 292.972,339.827 295.5,336.5 Z"/></g>
<g><path style="opacity:0.926" fill="#0c556e" d="M 386.5,336.5 C 390.845,336.298 391.512,337.631 388.5,340.5C 388.5,341.167 388.167,341.5 387.5,341.5C 385.668,340.752 384.001,339.752 382.5,338.5C 383.149,337.394 383.483,336.394 383.5,335.5C 384.287,336.242 384.953,337.075 385.5,338C 388.875,338.632 389.209,338.132 386.5,336.5 Z"/></g>
<g><path style="opacity:1" fill="#0c556e" d="M 371.5,335.5 C 371.5,334.833 371.5,334.167 371.5,333.5C 376.117,331.942 377.117,333.109 374.5,337C 374.63,338.059 375.13,338.892 376,339.5C 376.667,338.167 377.333,336.833 378,335.5C 378.167,336 378.333,336.5 378.5,337C 377.576,338.15 377.576,339.15 378.5,340C 376.667,340.5 375.5,341.667 375,343.5C 372.723,341.764 372.223,339.764 373.5,337.5C 373.145,336.478 372.478,335.811 371.5,335.5 Z"/></g>
<g><path style="opacity:1" fill="#0c556e" d="M 382.5,338.5 C 382.511,340.017 383.177,341.184 384.5,342C 383.953,342.925 383.287,343.758 382.5,344.5C 380.556,343.811 378.556,343.311 376.5,343C 379.212,342.361 381.212,340.861 382.5,338.5 Z"/></g>
<g><path style="opacity:1" fill="#0c556e" d="M 291.5,340.5 C 289.515,341.047 287.849,342.047 286.5,343.5C 282.229,340.899 278.563,337.566 275.5,333.5C 276.167,333.5 276.833,333.5 277.5,333.5C 278.209,334.404 279.209,334.737 280.5,334.5C 280.215,332.712 280.548,331.045 281.5,329.5C 283.98,330.415 284.647,331.915 283.5,334C 285.301,334.317 285.634,334.984 284.5,336C 286.339,337.132 288.339,337.965 290.5,338.5C 291.298,338.957 291.631,339.624 291.5,340.5 Z"/></g>
<g><path style="opacity:1" fill="#0c556e" d="M 317.5,342.5 C 316.773,339.524 317.773,339.024 320.5,341C 319.756,342.039 318.756,342.539 317.5,342.5 Z"/></g>
<g><path style="opacity:1" fill="#0c556e" d="M 291.5,340.5 C 295.195,339.874 296.029,340.874 294,343.5C 292.583,342.922 291.75,341.922 291.5,340.5 Z"/></g>
<g><path style="opacity:1" fill="#0c556e" d="M 332.5,336.5 C 332.833,336.5 333.167,336.5 333.5,336.5C 333.376,338.582 332.376,340.082 330.5,341C 331.833,341.667 333.167,342.333 334.5,343C 333.874,343.75 333.374,344.584 333,345.5C 332.577,344.044 331.744,343.544 330.5,344C 331.191,345.067 331.691,346.234 332,347.5C 333.652,348.399 335.152,349.399 336.5,350.5C 335.135,354.042 333.468,354.209 331.5,351C 330.251,350.26 329.251,350.427 328.5,351.5C 327.761,351.631 327.094,351.464 326.5,351C 329.796,348.199 330.129,345.199 327.5,342C 328.308,341.692 328.975,341.192 329.5,340.5C 328.371,338.471 328.871,338.137 331,339.5C 331.513,338.473 332.013,337.473 332.5,336.5 Z"/></g>
<g><path style="opacity:0.982" fill="#0c556e" d="M 311.5,354.5 C 312.833,355.833 312.833,357.167 311.5,358.5C 309.447,358.598 307.78,357.931 306.5,356.5C 306.244,354.208 306.577,352.041 307.5,350C 305.086,351.312 302.586,351.812 300,351.5C 298.513,350.747 298.346,349.914 299.5,349C 298.906,348.536 298.239,348.369 297.5,348.5C 298.98,346.397 300.147,346.397 301,348.5C 302,346.833 303,345.167 304,343.5C 305.147,344.458 306.147,344.125 307,342.5C 307.448,344.409 306.615,345.576 304.5,346C 305.536,347.617 306.703,347.784 308,346.5C 308.705,349.476 309.871,352.142 311.5,354.5 Z"/></g>
<g><path style="opacity:1" fill="#0c556e" d="M 317.5,342.5 C 319.001,344.739 320.334,344.739 321.5,342.5C 322.386,343.325 322.719,344.325 322.5,345.5C 318.136,345.665 317.636,346.998 321,349.5C 321.718,348.549 322.551,348.383 323.5,349C 322.333,350.167 321.167,351.333 320,352.5C 319.101,350.673 317.767,349.34 316,348.5C 314.72,348.613 313.887,349.28 313.5,350.5C 314.984,352.866 314.317,354.199 311.5,354.5C 312.509,353.061 312.176,351.728 310.5,350.5C 311.5,349.667 312.5,348.833 313.5,348C 308.334,345.981 308.167,344.814 313,344.5C 313.612,347.032 315.112,347.865 317.5,347C 317.21,345.522 317.21,344.022 317.5,342.5 Z"/></g>
<g><path style="opacity:1" fill="#0c556e" d="M 372.5,348.5 C 371.317,347.496 369.984,346.662 368.5,346C 369.5,345.5 370.5,345 371.5,344.5C 373.201,344.19 374.868,344.69 376.5,346C 374.563,346.122 373.23,346.955 372.5,348.5 Z"/></g>
<g><path style="opacity:1" fill="#0c556e" d="M 364.5,348.5 C 362.883,349.038 361.216,349.371 359.5,349.5C 358.145,346.203 358.645,345.87 361,348.5C 362.376,345.875 363.542,345.875 364.5,348.5 Z"/></g>
<g><path style="opacity:0.813" fill="#0c556e" d="M 377.5,349.5 C 377.158,350.338 376.492,350.672 375.5,350.5C 374.5,349.833 373.5,349.167 372.5,348.5C 373.688,347.952 374.855,347.619 376,347.5C 376.717,348.044 377.217,348.711 377.5,349.5 Z"/></g>
<g><path style="opacity:0.818" fill="#0e556e" d="M 297.5,348.5 C 298.239,348.369 298.906,348.536 299.5,349C 298.346,349.914 298.513,350.747 300,351.5C 302.586,351.812 305.086,351.312 307.5,350C 306.577,352.041 306.244,354.208 306.5,356.5C 305.833,356.5 305.167,356.5 304.5,356.5C 305.292,355.033 305.292,353.7 304.5,352.5C 303.614,353.325 303.281,354.325 303.5,355.5C 303.167,355.5 302.833,355.5 302.5,355.5C 302.5,353.5 301.5,352.5 299.5,352.5C 298.391,352.443 297.391,352.11 296.5,351.5C 296.557,350.391 296.89,349.391 297.5,348.5 Z"/></g>
<g><path style="opacity:0.852" fill="#0d556e" d="M 359.5,349.5 C 361.216,349.371 362.883,349.038 364.5,348.5C 365.997,349.306 367.664,349.972 369.5,350.5C 371.031,349.579 372.365,349.912 373.5,351.5C 368.535,356.275 362.535,358.941 355.5,359.5C 354.028,356.745 354.695,354.578 357.5,353C 355.779,352.261 354.113,351.427 352.5,350.5C 353.262,350.089 354.262,349.923 355.5,350C 354.304,349.346 354.304,348.846 355.5,348.5C 356.736,349.246 358.07,349.579 359.5,349.5 Z"/></g>
<g><path style="opacity:0.974" fill="#0d556e" d="M 328.5,351.5 C 329.251,350.427 330.251,350.26 331.5,351C 333.468,354.209 335.135,354.042 336.5,350.5C 336.461,351.756 336.961,352.756 338,353.5C 339.154,352.257 340.488,351.257 342,350.5C 342.333,351.167 342.667,351.833 343,352.5C 343.278,351.584 343.778,350.918 344.5,350.5C 344.863,352.911 343.863,354.411 341.5,355C 341.198,357.041 341.532,359.208 342.5,361.5C 340.167,361.5 337.833,361.5 335.5,361.5C 335.389,360.883 335.056,360.383 334.5,360C 338.132,358.627 338.299,357.127 335,355.5C 334.055,355.905 333.388,356.572 333,357.5C 331.817,356.269 330.651,356.269 329.5,357.5C 329.846,358.696 330.346,358.696 331,357.5C 331.438,359.642 332.272,360.975 333.5,361.5C 330.5,361.5 327.5,361.5 324.5,361.5C 324.971,360.099 325.638,358.766 326.5,357.5C 327.396,358.506 328.062,358.506 328.5,357.5C 327.624,356.749 326.624,356.249 325.5,356C 330.07,356.01 331.07,354.51 328.5,351.5 Z"/></g>
<g><path style="opacity:1" fill="#0c556e" d="M 352.5,360.5 C 351.609,361.11 350.609,361.443 349.5,361.5C 349.414,360.504 349.748,359.671 350.5,359C 349.333,358.5 348.5,357.667 348,356.5C 346.853,357.458 345.853,357.125 345,355.5C 344.626,356.416 344.126,357.25 343.5,358C 344.416,358.278 345.082,358.778 345.5,359.5C 344.167,359.5 343.5,360.167 343.5,361.5C 343.167,361.5 342.833,361.5 342.5,361.5C 341.532,359.208 341.198,357.041 341.5,355C 343.863,354.411 344.863,352.911 344.5,350.5C 345.268,351.263 345.768,352.263 346,353.5C 346.343,350.807 347.676,348.807 350,347.5C 350.617,348.449 350.451,349.282 349.5,350C 351.929,350.451 352.096,351.285 350,352.5C 348.633,351.476 347.8,351.976 347.5,354C 348.973,354.375 350.473,355.542 352,357.5C 352.483,358.448 352.649,359.448 352.5,360.5 Z"/></g>
<g><path style="opacity:0.957" fill="#0c556e" d="M 328.5,351.5 C 331.07,354.51 330.07,356.01 325.5,356C 326.624,356.249 327.624,356.749 328.5,357.5C 328.062,358.506 327.396,358.506 326.5,357.5C 325.638,358.766 324.971,360.099 324.5,361.5C 322.585,361.784 320.919,361.451 319.5,360.5C 317.901,360.768 316.568,360.434 315.5,359.5C 315.938,359.565 316.272,359.399 316.5,359C 315.672,358.085 314.672,357.419 313.5,357C 315.577,356.808 317.577,356.308 319.5,355.5C 318.494,354.604 318.494,353.938 319.5,353.5C 321.759,355.851 323.259,355.185 324,351.5C 325.355,353.774 326.855,353.774 328.5,351.5 Z"/></g>
<g><path style="opacity:0.231" fill="#0c556e" d="M 299.5,352.5 C 301.5,352.5 302.5,353.5 302.5,355.5C 300.81,355.144 299.81,354.144 299.5,352.5 Z"/></g>
<g><path style="opacity:0.697" fill="#0c556e" d="M 304.5,356.5 C 303.833,356.5 303.5,356.167 303.5,355.5C 303.281,354.325 303.614,353.325 304.5,352.5C 305.292,353.7 305.292,355.033 304.5,356.5 Z"/></g>
<g><path style="opacity:1" fill="#0c556e" d="M 335.5,361.5 C 334.833,361.5 334.167,361.5 333.5,361.5C 332.272,360.975 331.438,359.642 331,357.5C 330.346,358.696 329.846,358.696 329.5,357.5C 330.651,356.269 331.817,356.269 333,357.5C 333.388,356.572 334.055,355.905 335,355.5C 338.299,357.127 338.132,358.627 334.5,360C 335.056,360.383 335.389,360.883 335.5,361.5 Z"/></g>
<g><path style="opacity:0.79" fill="#0e556e" d="M 349.5,361.5 C 348.5,361.5 347.5,361.5 346.5,361.5C 349.258,360.033 348.925,359.367 345.5,359.5C 345.082,358.778 344.416,358.278 343.5,358C 344.126,357.25 344.626,356.416 345,355.5C 345.853,357.125 346.853,357.458 348,356.5C 348.5,357.667 349.333,358.5 350.5,359C 349.748,359.671 349.414,360.504 349.5,361.5 Z"/></g>
<g><path style="opacity:0.879" fill="#0d556e" d="M 319.5,360.5 C 320.315,358.092 321.981,357.259 324.5,358C 322.922,359.094 321.255,359.928 319.5,360.5 Z"/></g>
<g><path style="opacity:0.764" fill="#0e556e" d="M 345.5,359.5 C 345.5,360.167 345.5,360.833 345.5,361.5C 344.833,361.5 344.167,361.5 343.5,361.5C 343.5,360.167 344.167,359.5 345.5,359.5 Z"/></g>
<g><path style="opacity:0.832" fill="#0c556e" d="M 345.5,359.5 C 348.925,359.367 349.258,360.033 346.5,361.5C 346.167,361.5 345.833,361.5 345.5,361.5C 345.5,360.833 345.5,360.167 345.5,359.5 Z"/></g>
</svg>
