<?xml version="1.0" encoding="UTF-8"?>
<!DOCTYPE svg PUBLIC "-//W3C//DTD SVG 1.1//EN" "http://www.w3.org/Graphics/SVG/1.1/DTD/svg11.dtd">
<svg xmlns="http://www.w3.org/2000/svg" version="1.1" width="432px" height="304px" style="shape-rendering:geometricPrecision; text-rendering:geometricPrecision; image-rendering:optimizeQuality; fill-rule:evenodd; clip-rule:evenodd" xmlns:xlink="http://www.w3.org/1999/xlink">
<g><path style="opacity:0.965" fill="#0b556e" d="M 144.5,9.5 C 166.914,8.93723 188.247,13.4372 208.5,23C 212.26,24.4612 215.093,26.9612 217,30.5C 217.667,55.5 217.667,80.5 217,105.5C 213.304,108.425 209.971,108.092 207,104.5C 206.833,81.4928 206.333,58.4928 205.5,35.5C 169.347,16.8487 133.181,16.8487 97,35.5C 96.5,115.166 96.3333,194.833 96.5,274.5C 102.842,274.334 109.175,274.5 115.5,275C 117.478,277.497 117.978,280.331 117,283.5C 116.097,284.701 114.931,285.535 113.5,286C 83.8333,286.667 54.1667,286.667 24.5,286C 19.2167,285.385 15.7167,282.551 14,277.5C 13.6667,227.5 13.3333,177.5 13,127.5C 10.5189,118.925 12.3522,111.425 18.5,105C 20.087,104.138 21.7536,103.471 23.5,103C 43.8306,102.5 64.1639,102.333 84.5,102.5C 84.3334,79.4976 84.5,56.4976 85,33.5C 85.6998,29.9338 87.5332,27.1005 90.5,25C 107.554,16.0743 125.554,10.9076 144.5,9.5 Z M 42.5,147.5 C 49.8635,147.169 57.1968,147.503 64.5,148.5C 65.8333,150.5 65.8333,152.5 64.5,154.5C 57.1667,155.833 49.8333,155.833 42.5,154.5C 41.1783,152.135 41.1783,149.802 42.5,147.5 Z M 42.5,180.5 C 49.8635,180.169 57.1968,180.503 64.5,181.5C 65.8333,183.5 65.8333,185.5 64.5,187.5C 57.1667,188.833 49.8333,188.833 42.5,187.5C 41.1783,185.135 41.1783,182.802 42.5,180.5 Z M 42.5,213.5 C 49.8635,213.169 57.1968,213.503 64.5,214.5C 65.8333,216.5 65.8333,218.5 64.5,220.5C 57.1667,221.833 49.8333,221.833 42.5,220.5C 41.1783,218.135 41.1783,215.802 42.5,213.5 Z"/></g>
<g><path style="opacity:0.905" fill="#0b556e" d="M 272.5,31.5 C 298.3,26.9922 318.133,35.6589 332,57.5C 333.598,61.4612 335.098,65.4612 336.5,69.5C 338.733,70.7422 340.899,72.0755 343,73.5C 344.555,78.3822 344.888,83.3822 344,88.5C 342.903,91.2648 340.903,92.9314 338,93.5C 337.212,99.2195 337.379,104.886 338.5,110.5C 336.772,119.561 331.439,124.895 322.5,126.5C 320.731,134.03 316.898,140.364 311,145.5C 310.503,148.146 310.336,150.813 310.5,153.5C 312.949,154.057 315.282,154.057 317.5,153.5C 327.105,125.195 346.438,115.028 375.5,123C 389.61,129.442 398.11,140.276 401,155.5C 401.667,166.167 401.667,176.833 401,187.5C 399.296,193.37 395.463,197.037 389.5,198.5C 387.501,203.837 384.501,208.504 380.5,212.5C 379.348,215.106 379.182,217.773 380,220.5C 390.075,224.192 400.242,227.692 410.5,231C 414,233.167 416.833,236 419,239.5C 420.459,257.098 420.959,274.764 420.5,292.5C 379.5,292.5 338.5,292.5 297.5,292.5C 297.333,276.163 297.5,259.83 298,243.5C 299.602,238.123 302.769,233.956 307.5,231C 317.5,227.667 327.5,224.333 337.5,221C 339.457,218.879 339.957,216.379 339,213.5C 334.584,209.665 331.418,204.998 329.5,199.5C 324.446,198.057 320.612,195.057 318,190.5C 316.876,184.897 316.21,179.231 316,173.5C 313.33,180.832 310.163,187.832 306.5,194.5C 300.515,189.015 294.681,183.348 289,177.5C 287.333,178.833 285.667,178.833 284,177.5C 278.319,183.348 272.485,189.015 266.5,194.5C 263.201,189.126 260.367,183.46 258,177.5C 256.811,191.907 251.977,204.907 243.5,216.5C 239.5,219.5 235.5,222.5 231.5,225.5C 233.032,229.199 235.699,231.699 239.5,233C 250.869,235.874 262.203,238.874 273.5,242C 283.529,246.026 290.029,253.193 293,263.5C 294.167,271.167 295.333,278.834 296.5,286.5C 296.674,288.693 296.007,290.527 294.5,292C 267.085,293.159 239.585,293.659 212,293.5C 184.415,293.659 156.915,293.159 129.5,292C 128.282,290.562 127.615,288.895 127.5,287C 128.87,277.072 130.704,267.239 133,257.5C 137.999,249.845 144.832,244.345 153.5,241C 163.864,238.46 174.197,235.794 184.5,233C 188.118,231.713 190.785,229.379 192.5,226C 175.883,214.27 167.55,198.103 167.5,177.5C 164.482,177.665 161.482,177.498 158.5,177C 154.908,174.029 154.575,170.696 157.5,167C 159.81,166.503 162.143,166.337 164.5,166.5C 166.003,146.998 176.336,135.331 195.5,131.5C 195.104,128.956 195.771,126.789 197.5,125C 207.167,124.333 216.833,124.333 226.5,125C 228.213,126.925 229.547,129.092 230.5,131.5C 243.738,134.36 252.904,142.027 258,154.5C 259.509,153.91 261.009,153.244 262.5,152.5C 261.22,150.298 261.22,148.132 262.5,146C 256.315,140.788 252.315,134.288 250.5,126.5C 243.545,125.72 238.711,122.053 236,115.5C 234.301,108.321 234.135,101.154 235.5,94C 232.465,93.2073 230.299,91.374 229,88.5C 228.333,84.1667 228.333,79.8333 229,75.5C 229.465,74.0692 230.299,72.9025 231.5,72C 233.421,71.6397 235.088,70.8064 236.5,69.5C 242.055,50.6142 254.055,37.9475 272.5,31.5 Z M 278.5,39.5 C 296.331,37.092 310.665,42.9253 321.5,57C 315.509,57.4995 309.509,57.6662 303.5,57.5C 298.894,44.7 290.228,40.8666 277.5,46C 273.41,48.9102 270.744,52.7435 269.5,57.5C 263.491,57.6662 257.491,57.4995 251.5,57C 258.576,48.0718 267.576,42.2384 278.5,39.5 Z M 284.5,52.5 C 294.09,53.1361 297.257,58.1361 294,67.5C 290.662,70.3181 286.829,71.1515 282.5,70C 277.845,67.1034 276.345,62.9367 278,57.5C 279.805,55.1743 281.972,53.5077 284.5,52.5 Z M 236.5,80.5 C 269.664,79.3358 302.997,79.1692 336.5,80C 335.62,81.3561 335.286,82.8561 335.5,84.5C 302.498,84.6666 269.498,84.5 236.5,84C 237.791,82.7083 237.791,81.5417 236.5,80.5 Z M 256.5,94.5 C 275.993,93.5029 295.66,93.1696 315.5,93.5C 315.666,102.506 315.5,111.506 315,120.5C 314.399,123.637 313.399,126.637 312,129.5C 306.426,119.571 297.926,115.905 286.5,118.5C 275.074,115.905 266.574,119.571 261,129.5C 259.35,128.109 258.85,126.609 259.5,125C 258.773,123.601 258.273,122.101 258,120.5C 257.83,111.657 257.33,102.99 256.5,94.5 Z M 247.5,101.5 C 248.651,106.65 248.817,111.984 248,117.5C 243.514,112.303 243.347,106.97 247.5,101.5 Z M 324.5,101.5 C 330.812,106.523 330.979,111.857 325,117.5C 324.501,112.177 324.334,106.844 324.5,101.5 Z M 273.5,127.5 C 282.173,127.334 290.84,127.5 299.5,128C 300.931,128.465 302.097,129.299 303,130.5C 303.452,133.149 304.286,135.649 305.5,138C 297.01,145.232 287.343,147.232 276.5,144C 266.221,140.4 265.221,134.9 273.5,127.5 Z M 336.5,134.5 C 338.471,140.49 340.137,146.656 341.5,153C 335.833,153.667 330.167,153.667 324.5,153C 325.167,151.667 325.833,150.333 326.5,149C 329.146,148.503 331.813,148.336 334.5,148.5C 334.5,146.5 334.5,144.5 334.5,142.5C 333.022,142.762 331.689,142.429 330.5,141.5C 332.523,139.147 334.523,136.814 336.5,134.5 Z M 380.5,134.5 C 383.919,136.146 386.586,138.646 388.5,142C 386.866,142.494 385.199,142.66 383.5,142.5C 383.5,144.5 383.5,146.5 383.5,148.5C 386.5,148.5 389.5,148.5 392.5,148.5C 392.421,149.93 392.754,151.264 393.5,152.5C 388.208,153.495 382.875,153.828 377.5,153.5C 378.372,147.142 379.372,140.809 380.5,134.5 Z M 193.5,143.5 C 195.465,150.76 196.132,158.427 195.5,166.5C 189.167,166.5 182.833,166.5 176.5,166.5C 177.226,155.116 182.893,147.45 193.5,143.5 Z M 229.5,143.5 C 240.753,147.083 246.753,154.75 247.5,166.5C 241.5,166.5 235.5,166.5 229.5,166.5C 229.5,158.833 229.5,151.167 229.5,143.5 Z M 270.5,150.5 C 281.001,155.8 291.501,155.8 302,150.5C 301.852,151.825 302.018,152.992 302.5,154C 297.352,158.738 292.019,163.238 286.5,167.5C 280.871,163.762 275.704,159.428 271,154.5C 270.51,153.207 270.343,151.873 270.5,150.5 Z M 327.5,160.5 C 348.329,159.337 369.329,159.171 390.5,160C 381.99,168.843 371.49,173.01 359,172.5C 346.753,172.782 336.253,168.782 327.5,160.5 Z M 323.5,166.5 C 327.483,168.268 327.816,169.935 324.5,171.5C 323.548,169.955 323.215,168.288 323.5,166.5 Z M 393.5,166.5 C 394.788,168.035 394.788,169.701 393.5,171.5C 392.5,171 391.5,170.5 390.5,170C 391.71,168.961 392.71,167.794 393.5,166.5 Z M 347.5,178.5 C 355.168,179.664 362.834,179.83 370.5,179C 369.052,183.46 370.719,185.126 375.5,184C 377.469,179.953 376.136,177.953 371.5,178C 375.264,177.134 378.931,175.967 382.5,174.5C 383.664,181.142 383.831,187.808 383,194.5C 379.74,206.4 371.907,213.066 359.5,214.5C 342.207,211.705 333.874,201.539 334.5,184C 334.833,180.833 335.167,177.667 335.5,174.5C 339.55,176.072 343.55,177.406 347.5,178.5 Z M 178.5,177.5 C 200.833,177.5 223.167,177.5 245.5,177.5C 244.821,192.694 238.488,204.861 226.5,214C 206.568,221.689 192.068,215.856 183,196.5C 180.71,190.342 179.21,184.008 178.5,177.5 Z M 326.5,177.5 C 327.805,179.397 328.471,181.731 328.5,184.5C 328.333,186.833 328.167,189.167 328,191.5C 322.717,187.273 322.217,182.607 326.5,177.5 Z M 390.5,177.5 C 395.522,181.637 395.689,185.97 391,190.5C 390.501,186.179 390.334,181.846 390.5,177.5 Z M 345.5,217.5 C 354.316,221.15 363.316,221.484 372.5,218.5C 372.649,219.552 372.483,220.552 372,221.5C 367.667,225.167 363.333,228.833 359,232.5C 354.667,228.833 350.333,225.167 346,221.5C 345.51,220.207 345.343,218.873 345.5,217.5 Z M 340.5,226.5 C 344.798,229.463 348.798,232.797 352.5,236.5C 350.462,238.276 348.296,239.943 346,241.5C 343.833,237.167 341.667,232.833 339.5,228.5C 339.863,227.817 340.196,227.15 340.5,226.5 Z M 376.5,226.5 C 377.473,226.987 378.473,227.487 379.5,228C 377.127,232.581 374.627,237.081 372,241.5C 369.743,239.954 367.576,238.288 365.5,236.5C 369.187,233.145 372.853,229.811 376.5,226.5 Z M 204.5,228.5 C 209.334,229.808 214.167,229.808 219,228.5C 220.3,231.295 221.8,233.961 223.5,236.5C 220.124,239.878 216.457,242.878 212.5,245.5C 208.356,242.524 204.356,239.357 200.5,236C 202.495,233.843 203.828,231.343 204.5,228.5 Z M 331.5,229.5 C 333.726,232.945 335.726,236.611 337.5,240.5C 332.167,241.833 326.833,241.833 321.5,240.5C 320.423,238.271 319.756,235.937 319.5,233.5C 323.784,232.739 327.784,231.405 331.5,229.5 Z M 385.5,229.5 C 389.697,231.232 394.031,232.565 398.5,233.5C 398.534,236.199 397.867,238.699 396.5,241C 391.136,241.829 385.802,241.663 380.5,240.5C 382.453,236.931 384.119,233.264 385.5,229.5 Z M 311.5,236.5 C 314.649,242.422 317.149,248.756 319,255.5C 319.497,258.146 319.664,260.813 319.5,263.5C 314.167,263.5 308.833,263.5 303.5,263.5C 303.183,257.091 303.683,250.757 305,244.5C 306.305,241.039 308.471,238.372 311.5,236.5 Z M 405.5,236.5 C 409.936,238.439 412.769,241.772 414,246.5C 414.499,252.157 414.666,257.824 414.5,263.5C 409.167,263.5 403.833,263.5 398.5,263.5C 399.806,254.245 402.14,245.245 405.5,236.5 Z M 357.5,241.5 C 361.882,242.859 365.882,245.026 369.5,248C 367.873,250.754 366.373,253.588 365,256.5C 364.5,266.494 364.334,276.494 364.5,286.5C 361.167,286.5 357.833,286.5 354.5,286.5C 354.666,276.828 354.5,267.161 354,257.5C 352.364,254.394 350.864,251.227 349.5,248C 352.022,245.583 354.688,243.417 357.5,241.5 Z M 189.5,243.5 C 195.5,247.51 201.167,252.01 206.5,257C 209.12,259.271 212.12,259.938 215.5,259C 221.759,253.952 227.926,248.786 234,243.5C 235.067,244.191 236.234,244.691 237.5,245C 238.059,245.725 238.392,246.558 238.5,247.5C 235.514,258.776 232.847,270.11 230.5,281.5C 218.482,281.832 206.482,281.499 194.5,280.5C 191.579,269.317 188.579,258.15 185.5,247C 186.347,245.229 187.68,244.063 189.5,243.5 Z M 149.5,256.5 C 150.493,264.65 150.826,272.983 150.5,281.5C 147.167,281.5 143.833,281.5 140.5,281.5C 141.285,276.173 142.118,270.839 143,265.5C 144.643,262.039 146.81,259.039 149.5,256.5 Z M 274.5,257.5 C 277.552,258.88 279.718,261.214 281,264.5C 282.052,270.144 282.885,275.811 283.5,281.5C 280.5,281.5 277.5,281.5 274.5,281.5C 274.5,273.5 274.5,265.5 274.5,257.5 Z M 326.5,259.5 C 333.5,259.5 340.5,259.5 347.5,259.5C 347.5,263.833 347.5,268.167 347.5,272.5C 340.5,272.5 333.5,272.5 326.5,272.5C 326.5,268.167 326.5,263.833 326.5,259.5 Z M 370.5,259.5 C 377.833,259.5 385.167,259.5 392.5,259.5C 392.5,263.833 392.5,268.167 392.5,272.5C 385.167,272.5 377.833,272.5 370.5,272.5C 370.5,268.167 370.5,263.833 370.5,259.5 Z M 303.5,270.5 C 308.833,270.5 314.167,270.5 319.5,270.5C 319.5,275.833 319.5,281.167 319.5,286.5C 314.167,286.5 308.833,286.5 303.5,286.5C 303.5,281.167 303.5,275.833 303.5,270.5 Z M 398.5,270.5 C 403.833,270.5 409.167,270.5 414.5,270.5C 414.5,275.833 414.5,281.167 414.5,286.5C 409.167,286.5 403.833,286.5 398.5,286.5C 398.5,281.167 398.5,275.833 398.5,270.5 Z"/></g>
<g><path style="opacity:0.874" fill="#0b556e" d="M 131.5,52.5 C 144.837,52.3334 158.171,52.5001 171.5,53C 176.833,56.6667 176.833,60.3333 171.5,64C 157.833,64.6667 144.167,64.6667 130.5,64C 126.446,59.7727 126.78,55.9394 131.5,52.5 Z"/></g>
<g><path style="opacity:0.613" fill="#0b556e" d="M 282.5,57.5 C 285.167,57.5 287.833,57.5 290.5,57.5C 290.5,60.5 290.5,63.5 290.5,66.5C 282.084,68.4217 279.417,65.4217 282.5,57.5 Z"/></g>
<g><path style="opacity:0.878" fill="#0b556e" d="M 130.5,95.5 C 144.171,95.3334 157.837,95.5001 171.5,96C 176.833,99.6667 176.833,103.333 171.5,107C 158.167,107.667 144.833,107.667 131.5,107C 126.649,103.573 126.316,99.7397 130.5,95.5 Z"/></g>
<g><path style="opacity:0.625" fill="#0b556e" d="M 268.5,97.5 C 273.83,98.6529 275.163,101.486 272.5,106C 267,107.167 264.833,105 266,99.5C 266.995,98.9341 267.828,98.2674 268.5,97.5 Z"/></g>
<g><path style="opacity:0.606" fill="#0b556e" d="M 302.5,97.5 C 307.79,98.7665 308.79,101.6 305.5,106C 300.502,107.33 298.336,105.496 299,100.5C 300.145,99.3636 301.312,98.3636 302.5,97.5 Z"/></g>
<g><path style="opacity:0.712" fill="#0b556e" d="M 275.5,131.5 C 282.833,131.5 290.167,131.5 297.5,131.5C 297.5,134.5 297.5,137.5 297.5,140.5C 290.167,140.5 282.833,140.5 275.5,140.5C 275.5,137.5 275.5,134.5 275.5,131.5 Z"/></g>
<g><path style="opacity:0.863" fill="#0b556e" d="M 130.5,138.5 C 137.175,138.334 143.842,138.5 150.5,139C 154.747,143.163 154.414,146.829 149.5,150C 143.5,150.667 137.5,150.667 131.5,150C 126.649,146.573 126.316,142.74 130.5,138.5 Z"/></g>
<g><path style="opacity:0.688" fill="#0b556e" d="M 347.5,178.5 C 349.532,183.801 347.866,185.468 342.5,183.5C 341.388,179.54 343.055,177.873 347.5,178.5 Z"/></g>
<g><path style="opacity:0.856" fill="#0b556e" d="M 130.5,181.5 C 137.175,181.334 143.842,181.5 150.5,182C 153.287,184.167 154.12,187.001 153,190.5C 152.097,191.701 150.931,192.535 149.5,193C 143.5,193.667 137.5,193.667 131.5,193C 126.649,189.573 126.316,185.74 130.5,181.5 Z"/></g>
<g><path style="opacity:0.007" fill="#0b556e" d="M 219.5,188.5 C 220.641,191.64 220.808,194.973 220,198.5C 218.599,195.315 218.432,191.982 219.5,188.5 Z"/></g>
<g><path style="opacity:0.616" fill="#0b556e" d="M 282.5,192.5 C 285.167,192.5 287.833,192.5 290.5,192.5C 290.5,195.5 290.5,198.5 290.5,201.5C 282.084,203.422 279.417,200.422 282.5,192.5 Z"/></g>
<g><path style="opacity:0.793" fill="#0b556e" d="M 347.5,194.5 C 349.833,194.5 352.167,194.5 354.5,194.5C 356.997,202.103 360.33,202.436 364.5,195.5C 366.396,194.534 368.396,194.201 370.5,194.5C 369.768,204.388 364.435,208.222 354.5,206C 349.477,203.785 347.144,199.952 347.5,194.5 Z"/></g>
<g><path style="opacity:0.722" fill="#0b556e" d="M 298.5,203.5 C 306.5,203.5 314.5,203.5 322.5,203.5C 322.5,206.5 322.5,209.5 322.5,212.5C 314.826,212.666 307.159,212.5 299.5,212C 298.556,209.281 298.223,206.448 298.5,203.5 Z"/></g>
<g><path style="opacity:0.614" fill="#0b556e" d="M 281.5,206.5 C 284.5,206.5 287.5,206.5 290.5,206.5C 290.5,209.5 290.5,212.5 290.5,215.5C 287.813,215.664 285.146,215.497 282.5,215C 281.556,212.281 281.223,209.448 281.5,206.5 Z"/></g>
<g><path style="opacity:0.004" fill="#0b556e" d="M 329.5,219.5 C 330.525,219.897 330.692,220.563 330,221.5C 329.536,220.906 329.369,220.239 329.5,219.5 Z"/></g>
<g><path style="opacity:0.663" fill="#0b556e" d="M 281.5,220.5 C 284.5,220.5 287.5,220.5 290.5,220.5C 290.5,223.167 290.5,225.833 290.5,228.5C 287.813,228.664 285.146,228.497 282.5,228C 281.565,225.619 281.232,223.119 281.5,220.5 Z"/></g>
<g><path style="opacity:0.847" fill="#0b556e" d="M 130.5,224.5 C 135.233,224.223 139.9,224.557 144.5,225.5C 148.053,233.034 145.553,236.701 137,236.5C 127.654,236.137 125.487,232.137 130.5,224.5 Z"/></g>
</svg>
