<?xml version="1.0" encoding="UTF-8"?>
<!DOCTYPE svg PUBLIC "-//W3C//DTD SVG 1.1//EN" "http://www.w3.org/Graphics/SVG/1.1/DTD/svg11.dtd">
<svg xmlns="http://www.w3.org/2000/svg" version="1.1" width="100px" height="100px" style="shape-rendering:geometricPrecision; text-rendering:geometricPrecision; image-rendering:optimizeQuality; fill-rule:evenodd; clip-rule:evenodd" xmlns:xlink="http://www.w3.org/1999/xlink">
<g><path style="opacity:0.929" fill="#000000" d="M 10.5,39.5 C 23.3202,38.1527 28.8202,43.8194 27,56.5C 23.3449,63.0702 17.8449,65.2368 10.5,63C 3.92982,59.3449 1.76315,53.8449 4,46.5C 5.69406,43.6424 7.86073,41.309 10.5,39.5 Z"/></g>
<g><path style="opacity:0.929" fill="#000000" d="M 44.5,39.5 C 57.3202,38.1527 62.8202,43.8194 61,56.5C 57.3449,63.0702 51.8449,65.2368 44.5,63C 37.9298,59.3449 35.7632,53.8449 38,46.5C 39.6941,43.6424 41.8607,41.309 44.5,39.5 Z"/></g>
<g><path style="opacity:0.929" fill="#000000" d="M 78.5,39.5 C 91.3202,38.1527 96.8202,43.8194 95,56.5C 91.3449,63.0702 85.8449,65.2368 78.5,63C 71.9298,59.3449 69.7632,53.8449 72,46.5C 73.6941,43.6424 75.8607,41.309 78.5,39.5 Z"/></g>
</svg>
