<?xml version="1.0" encoding="UTF-8"?>
<!DOCTYPE svg PUBLIC "-//W3C//DTD SVG 1.1//EN" "http://www.w3.org/Graphics/SVG/1.1/DTD/svg11.dtd">
<svg xmlns="http://www.w3.org/2000/svg" version="1.1" width="100px" height="100px" style="shape-rendering:geometricPrecision; text-rendering:geometricPrecision; image-rendering:optimizeQuality; fill-rule:evenodd; clip-rule:evenodd" xmlns:xlink="http://www.w3.org/1999/xlink">
<g><path style="opacity:0.846" fill="#000000" d="M 57.5,0.5 C 66.8393,0.333546 76.1726,0.500212 85.5,1C 86.8602,2.93764 86.5268,4.60431 84.5,6C 74.5056,6.49981 64.5056,6.66648 54.5,6.5C 54.5,4.83333 54.5,3.16667 54.5,1.5C 55.791,1.73731 56.791,1.40397 57.5,0.5 Z"/></g>
<g><path style="opacity:0.865" fill="#000000" d="M 70.5,7.5 C 72.5,7.5 74.5,7.5 76.5,7.5C 76.5,11.1667 76.5,14.8333 76.5,18.5C 79.3646,18.0548 81.8646,18.7215 84,20.5C 84.5022,23.5131 85.0022,26.5131 85.5,29.5C 77.8333,29.5 70.1667,29.5 62.5,29.5C 62.1842,26.0217 62.6842,22.6883 64,19.5C 66.0408,18.5769 68.2075,18.2436 70.5,18.5C 70.5,14.8333 70.5,11.1667 70.5,7.5 Z"/></g>
<g><path style="opacity:0.892" fill="#000000" d="M 64.5,54.5 C 63.8333,54.5 63.5,54.8333 63.5,55.5C 63.1514,62.7259 62.1514,69.7259 60.5,76.5C 60.5,75.8333 60.1667,75.5 59.5,75.5C 59.5,74.8333 59.1667,74.5 58.5,74.5C 57.791,73.596 56.791,73.2627 55.5,73.5C 54.9759,71.6943 54.3092,70.0276 53.5,68.5C 53.6716,67.5084 53.3382,66.8417 52.5,66.5C 52.5,65.8333 52.1667,65.5 51.5,65.5C 51.5,64.8333 51.1667,64.5 50.5,64.5C 46.8912,50.8274 50.5578,39.6607 61.5,31C 65.5,30.3333 69.5,30.3333 73.5,31C 74,31.5 74.5,32 75,32.5C 79.3,30.0593 83.8,29.8926 88.5,32C 95.218,37.6022 98.5514,44.7689 98.5,53.5C 86.9877,53.1719 75.6544,53.5052 64.5,54.5 Z"/></g>
<g><path style="opacity:0.978" fill="#000000" d="M 64.5,54.5 C 75.8333,54.5 87.1667,54.5 98.5,54.5C 98.5,63.8333 98.5,73.1667 98.5,82.5C 87.1667,82.5 75.8333,82.5 64.5,82.5C 64.5,81.8333 64.1667,81.5 63.5,81.5C 63.5,72.8333 63.5,64.1667 63.5,55.5C 64.1667,55.5 64.5,55.1667 64.5,54.5 Z"/></g>
<g><path style="opacity:0.801" fill="#000000" d="M 50.5,64.5 C 51.1667,64.5 51.5,64.8333 51.5,65.5C 52.1667,65.5 52.5,65.8333 52.5,66.5C 52.3284,67.4916 52.6618,68.1583 53.5,68.5C 53.7135,70.1439 53.3802,71.6439 52.5,73C 45.4713,74.71 38.4713,74.71 31.5,73C 35.172,69.9657 38.8387,66.9657 42.5,64C 45.2205,63.3985 47.8872,63.5651 50.5,64.5 Z"/></g>
<g><path style="opacity:0.905" fill="#000000" d="M 55.5,73.5 C 56.209,74.404 57.209,74.7373 58.5,74.5C 59.1667,74.5 59.5,74.8333 59.5,75.5C 60.1667,75.5 60.5,75.8333 60.5,76.5C 61.388,79.0545 61.7214,81.7212 61.5,84.5C 60.6618,84.8417 60.3284,85.5084 60.5,86.5C 59.6618,86.8417 59.3284,87.5084 59.5,88.5C 58.8333,88.5 58.5,88.8333 58.5,89.5C 56.8599,90.3201 55.1932,91.1534 53.5,92C 56.4816,92.498 59.4816,92.6646 62.5,92.5C 62.5,93.1667 62.8333,93.5 63.5,93.5C 63.7135,95.1439 63.3802,96.6439 62.5,98C 47.1703,98.4999 31.837,98.6666 16.5,98.5C 16.2606,96.5328 16.5939,94.6995 17.5,93C 20.5,92.6667 23.5,92.3333 26.5,92C 18.482,88.6768 16.482,83.1768 20.5,75.5C 22.1667,74.8333 23.8333,74.1667 25.5,73.5C 35.4947,76.0564 45.4947,76.0564 55.5,73.5 Z"/></g>
<g><path style="opacity:0.929" fill="#000000" d="M 63.5,81.5 C 64.1667,81.5 64.5,81.8333 64.5,82.5C 65.2625,83.2679 66.2625,83.7679 67.5,84C 77.828,84.4998 88.1613,84.6665 98.5,84.5C 99.7254,90.2103 98.0587,94.7103 93.5,98C 83.8686,97.4595 74.202,97.6262 64.5,98.5C 64.7845,96.5853 64.4511,94.9187 63.5,93.5C 62.8333,93.5 62.5,93.1667 62.5,92.5C 60.7809,91.9779 59.4475,90.9779 58.5,89.5C 59.1667,89.5 59.5,89.1667 59.5,88.5C 60.3382,88.1583 60.6716,87.4916 60.5,86.5C 61.3382,86.1583 61.6716,85.4916 61.5,84.5C 62.1667,83.5 62.8333,82.5 63.5,81.5 Z"/></g>
<g><path style="opacity:0.815" fill="#000000" d="M 3.5,92.5 C 7.86577,91.8469 10.8658,93.5135 12.5,97.5C 8.55461,98.4909 4.55461,98.8242 0.5,98.5C 0.0282705,95.6421 1.02827,93.6421 3.5,92.5 Z"/></g>
</svg>
