<?xml version="1.0" standalone="no"?>
<!DOCTYPE svg PUBLIC "-//W3C//DTD SVG 20010904//EN"
 "http://www.w3.org/TR/2001/REC-SVG-20010904/DTD/svg10.dtd">
<svg version="1.0" xmlns="http://www.w3.org/2000/svg"
 width="200.000000pt" height="200.000000pt" viewBox="0 0 200.000000 200.000000"
 preserveAspectRatio="xMidYMid meet">
<metadata>
Created by potrace 1.16, written by Peter Selinger 2001-2019
</metadata>
<g transform="translate(0.000000,200.000000) scale(0.100000,-0.100000)"
fill="#000000" stroke="none">
<path d="M787 1936 c-38 -6 -65 -14 -61 -18 4 -5 -2 -8 -13 -8 -11 0 -34 -7
-49 -15 -16 -8 -37 -15 -46 -15 -10 0 -18 -3 -18 -7 0 -5 -19 -17 -43 -28 -23
-11 -48 -26 -55 -32 -7 -7 -18 -13 -23 -13 -6 0 -21 -10 -33 -22 -13 -13 -39
-34 -57 -48 -47 -36 -108 -101 -125 -132 -8 -16 -19 -28 -25 -28 -6 0 -8 -4
-5 -9 3 -5 -8 -27 -24 -50 -17 -22 -30 -47 -30 -55 0 -7 -10 -26 -22 -41 -12
-16 -22 -38 -23 -49 0 -12 -6 -20 -14 -18 -9 2 -11 -3 -7 -14 3 -9 2 -22 -3
-28 -5 -6 -11 -22 -13 -36 -1 -14 -7 -28 -13 -32 -6 -5 -11 -174 -13 -462 -3
-515 -5 -506 67 -506 72 0 71 -8 71 425 0 245 4 386 10 390 5 3 10 11 10 16 0
6 -5 7 -10 4 -5 -3 -10 3 -10 14 0 12 5 21 10 21 6 0 10 15 10 34 0 19 5 47
12 63 6 15 13 39 15 52 7 39 123 243 123 216 0 -5 6 0 14 10 8 11 12 23 9 28
-2 4 -1 6 4 5 4 -2 27 16 51 40 24 23 48 42 54 42 6 0 8 3 5 7 -7 6 23 27 56
39 9 3 17 10 17 14 0 5 14 11 30 15 17 4 30 10 30 13 0 10 76 42 100 42 11 0
20 5 20 10 0 6 13 10 28 10 15 0 32 4 37 9 10 10 103 22 165 22 62 0 155 -12
165 -22 5 -5 22 -9 37 -9 15 0 28 -4 28 -9 0 -5 20 -12 45 -15 25 -4 45 -11
45 -17 0 -5 9 -9 20 -9 11 0 20 -4 20 -9 0 -5 11 -12 25 -15 14 -4 25 -11 25
-16 0 -6 7 -10 15 -10 8 0 25 -11 39 -25 14 -14 30 -25 36 -25 7 0 29 -18 50
-40 20 -21 40 -36 44 -33 3 3 9 -8 12 -25 4 -18 14 -34 25 -37 17 -6 23 -17
20 -37 0 -5 4 -8 10 -8 5 0 15 -13 20 -30 6 -16 15 -30 20 -30 5 0 9 -7 9 -15
0 -8 5 -15 11 -15 6 0 9 -9 6 -19 -3 -12 1 -22 10 -25 8 -3 13 -14 12 -23 -2
-19 6 -45 22 -76 5 -9 6 -29 3 -43 -4 -16 -2 -29 5 -34 9 -5 12 -98 11 -379 0
-249 3 -371 10 -371 5 0 10 -8 10 -18 0 -28 20 -42 60 -42 20 0 41 5 48 12 16
16 17 868 2 868 -6 0 -8 10 -4 24 3 13 1 27 -5 30 -6 4 -11 15 -11 24 0 9 -16
49 -35 87 -19 39 -35 75 -35 81 0 6 -9 21 -20 34 -11 13 -20 29 -20 35 0 7 -6
15 -14 18 -8 3 -20 21 -27 41 -7 19 -23 40 -36 47 -14 7 -32 26 -41 41 -9 15
-24 31 -34 34 -9 3 -20 14 -23 25 -4 10 -12 19 -18 19 -7 0 -27 14 -46 30 -18
17 -40 30 -47 30 -8 0 -14 3 -14 8 0 4 -20 16 -45 27 -25 11 -45 23 -45 28 0
4 -8 7 -17 7 -10 0 -31 7 -47 15 -15 8 -35 15 -43 15 -8 0 -12 4 -9 8 16 26
-368 40 -497 18z"/>
<path d="M956 1588 c-18 -29 -36 -71 -39 -92 -7 -43 -19 -56 -57 -56 -41 0
-86 -16 -114 -41 l-26 -23 0 -198 c0 -156 3 -207 15 -235 32 -77 84 -103 201
-103 99 0 154 22 175 72 6 15 15 28 19 28 24 0 41 189 29 318 -9 95 -13 110
-36 134 -28 29 -77 48 -125 48 -17 0 -31 8 -38 20 -6 11 -7 20 -2 20 5 0 12
17 15 38 16 98 73 109 166 32 34 -28 61 -55 61 -59 0 -5 24 -24 53 -42 28 -19
54 -37 55 -41 11 -25 82 13 82 44 0 5 5 6 10 3 6 -4 10 24 9 77 0 56 -3 76 -9
63 -7 -17 -9 -15 -9 13 -1 27 -5 32 -25 32 -21 0 -24 -5 -24 -45 -1 -25 3 -45
8 -45 12 0 13 -53 3 -64 -5 -4 -8 -13 -8 -19 -1 -33 -102 25 -139 79 -40 59
-101 94 -164 94 -52 0 -52 0 -86 -52z"/>
<path d="M403 923 c-18 -2 -33 -8 -33 -14 0 -5 -6 -9 -13 -9 -7 0 -19 -10 -27
-21 -8 -12 -28 -35 -43 -52 -21 -22 -27 -35 -23 -53 5 -17 2 -26 -9 -30 -13
-5 -15 -40 -15 -244 0 -149 4 -241 10 -245 6 -3 10 -15 10 -26 0 -10 4 -19 9
-19 5 0 11 -12 14 -27 7 -31 40 -71 74 -90 28 -16 167 -17 195 -2 33 18 61 50
83 96 11 22 23 39 27 37 5 -3 8 0 8 5 0 6 -4 11 -10 11 -6 0 -10 92 -10 255 0
163 4 255 10 255 6 0 10 7 10 16 0 8 -4 12 -10 9 -5 -3 -10 -1 -10 5 0 6 -7
18 -15 26 -8 9 -15 24 -15 35 0 11 -8 23 -17 26 -10 4 -27 17 -39 30 -22 24
-95 36 -161 26z"/>
<path d="M1493 923 c-18 -2 -33 -8 -33 -14 0 -5 -6 -9 -14 -9 -8 0 -18 -9 -21
-20 -4 -11 -10 -18 -14 -16 -4 3 -15 -11 -26 -30 -10 -19 -22 -34 -27 -34 -4
0 -8 -134 -7 -297 1 -273 2 -301 19 -328 48 -78 79 -95 174 -95 78 0 126 14
126 36 0 7 10 21 23 31 28 24 47 57 47 83 0 11 5 20 10 20 6 0 10 90 10 250 0
160 -4 250 -10 250 -5 0 -10 14 -10 31 0 21 -8 37 -25 51 -14 11 -23 24 -20
29 4 5 2 9 -2 9 -5 0 -20 11 -35 25 -28 26 -98 38 -165 28z"/>
<path d="M740 671 c0 -28 -4 -53 -10 -56 -6 -4 -10 -63 -10 -145 0 -154 2
-160 69 -160 l31 0 0 -95 0 -95 30 0 30 0 0 95 0 95 34 0 c36 0 86 32 86 56 0
13 3 13 22 0 12 -9 39 -16 60 -16 l38 0 0 -115 0 -115 30 0 30 0 0 115 0 115
34 0 c65 0 66 2 66 111 0 59 -4 99 -10 99 -6 0 -10 27 -10 60 0 88 -14 100
-115 100 l-80 0 -18 -45 c-10 -24 -17 -57 -16 -72 2 -16 -4 -39 -14 -53 l-17
-24 0 23 c0 12 -9 35 -19 50 -13 17 -18 36 -14 50 3 12 0 33 -7 47 -13 23 -17
24 -117 24 l-103 0 0 -49z m198 -198 l-3 -98 -85 0 -85 0 -3 98 -3 97 91 0 91
0 -3 -97z m300 -10 l-3 -48 -87 -3 -88 -3 0 51 0 50 91 0 90 0 -3 -47z"/>
</g>
</svg>
