<?xml version="1.0" encoding="UTF-8"?>
<!DOCTYPE svg PUBLIC "-//W3C//DTD SVG 1.1//EN" "http://www.w3.org/Graphics/SVG/1.1/DTD/svg11.dtd">
<svg xmlns="http://www.w3.org/2000/svg" version="1.1" width="100px" height="100px" style="shape-rendering:geometricPrecision; text-rendering:geometricPrecision; image-rendering:optimizeQuality; fill-rule:evenodd; clip-rule:evenodd" xmlns:xlink="http://www.w3.org/1999/xlink">
<g><path style="opacity:0.864" fill="#000000" d="M 28.5,18.5 C 35.5316,18.1697 42.5316,18.503 49.5,19.5C 47.0164,22.4843 44.3497,25.3176 41.5,28C 34.0195,26.4625 29.3528,29.4625 27.5,37C 31.2639,47.1491 37.0972,48.6491 45,41.5C 46.6591,38.5698 46.9924,35.5698 46,32.5C 50.5,28 55,23.5 59.5,19C 63.1667,18.3333 66.8333,18.3333 70.5,19C 76.3333,19.5 79.5,22.6667 80,28.5C 80.8085,43.0325 80.6418,57.5325 79.5,72C 79.1501,73.2575 78.4835,73.5908 77.5,73C 75.3333,70.8333 73.1667,68.6667 71,66.5C 72.5375,59.0195 69.5375,54.3528 62,52.5C 51.8509,56.2639 50.3509,62.0972 57.5,70C 60.4302,71.6591 63.4302,71.9924 66.5,71C 69.0168,73.3494 71.3501,75.8494 73.5,78.5C 72.624,79.2508 71.624,79.7508 70.5,80C 56.5,80.6667 42.5,80.6667 28.5,80C 22.6667,79.5 19.5,76.3333 19,70.5C 18.3333,56.5 18.3333,42.5 19,28.5C 19.679,22.6569 22.8457,19.3236 28.5,18.5 Z M 60.5,27.5 C 69.1471,28.6234 72.3137,33.2901 70,41.5C 66.69,45.6019 62.5233,47.1019 57.5,46C 53.6667,49.8333 49.8333,53.6667 46,57.5C 47.5375,64.9805 44.5375,69.6472 37,71.5C 26.8509,67.7361 25.3509,61.9028 32.5,54C 35.4302,52.3409 38.4302,52.0076 41.5,53C 45.3333,49.1667 49.1667,45.3333 53,41.5C 51.64,34.7366 54.14,30.0699 60.5,27.5 Z"/></g>
<g><path style="opacity:0.635" fill="#000000" d="M 35.5,33.5 C 40.4928,33.997 41.4928,36.1637 38.5,40C 33.3823,39.8242 32.3823,37.6576 35.5,33.5 Z"/></g>
<g><path style="opacity:0.635" fill="#000000" d="M 60.5,33.5 C 65.4928,33.997 66.4928,36.1637 63.5,40C 58.3823,39.8242 57.3823,37.6576 60.5,33.5 Z"/></g>
<g><path style="opacity:0.635" fill="#000000" d="M 35.5,58.5 C 40.4928,58.997 41.4928,61.1637 38.5,65C 33.3823,64.8242 32.3823,62.6576 35.5,58.5 Z"/></g>
<g><path style="opacity:0.636" fill="#000000" d="M 60.5,58.5 C 65.4928,58.997 66.4928,61.1637 63.5,65C 58.3823,64.8242 57.3823,62.6576 60.5,58.5 Z"/></g>
</svg>
