<?xml version="1.0" standalone="no"?>
<!DOCTYPE svg PUBLIC "-//W3C//DTD SVG 20010904//EN"
 "http://www.w3.org/TR/2001/REC-SVG-20010904/DTD/svg10.dtd">
<svg version="1.0" xmlns="http://www.w3.org/2000/svg"
 width="100.000000pt" height="100.000000pt" viewBox="0 0 100.000000 100.000000"
 preserveAspectRatio="xMidYMid meet">
<metadata>
Created by potrace 1.16, written by Peter Selinger 2001-2019
</metadata>
<g transform="translate(0.000000,100.000000) scale(0.100000,-0.100000)"
fill="#000000" stroke="none">
<path d="M233 888 c37 -98 41 -116 27 -133 -7 -9 -24 -15 -39 -13 -21 2 -30
14 -51 65 -14 35 -27 63 -30 63 -17 0 -40 -64 -40 -109 0 -41 5 -56 28 -81 15
-17 45 -37 66 -44 33 -11 42 -21 57 -58 l18 -45 -55 -81 c-30 -45 -54 -84 -54
-87 0 -3 20 -5 45 -5 41 0 47 3 72 41 l27 41 20 -41 20 -42 94 3 94 3 27 65
28 65 47 3 48 3 -41 -60 -41 -60 0 -140 0 -141 150 0 150 0 0 140 0 140 -62
95 -63 95 -77 0 c-43 0 -78 2 -78 4 0 2 7 20 15 40 l15 36 37 -15 c20 -8 37
-14 39 -12 8 7 74 170 74 182 0 12 -187 95 -215 95 -8 0 -15 -5 -15 -10 0 -20
-64 -50 -93 -44 -25 5 -29 2 -47 -41 -11 -26 -18 -50 -15 -55 2 -4 32 -18 65
-30 33 -12 60 -26 60 -30 0 -5 -10 -33 -21 -64 l-22 -56 -61 0 -61 0 -19 46
c-18 43 -18 48 -2 80 31 66 15 140 -40 183 -29 23 -89 29 -81 9z"/>
<path d="M160 200 l0 -100 190 0 190 0 0 100 0 100 -190 0 -190 0 0 -100z"/>
</g>
</svg>
