<svg viewBox="0 0 30 30" xml:space="preserve" xmlns="http://www.w3.org/2000/svg" enable-background="new 0 0 30 30"><path d="m26.206 12.559-2.058-5.88A4.007 4.007 0 0 0 20.371 4H9.629a4.005 4.005 0 0 0-3.776 2.678l-2.058 5.88A4.005 4.005 0 0 0 2 15.904V23a2 2 0 1 0 4 0v-1.261S11.281 22 15 22s9-.261 9-.261V23a2 2 0 1 0 4 0v-7.096a4.006 4.006 0 0 0-1.794-3.345zM6.595 10.613l1.146-3.274A2 2 0 0 1 9.629 6h10.742a2 2 0 0 1 1.888 1.339l1.146 3.274a.715.715 0 0 1-.788.947C20.656 11.243 18.135 11 15 11s-5.656.243-7.617.56a.715.715 0 0 1-.788-.947zM6.5 18a1.5 1.5 0 1 1 .001-3.001A1.5 1.5 0 0 1 6.5 18zM18 17h-6a1 1 0 0 1 0-2h6a1 1 0 0 1 0 2zm5.5 1a1.5 1.5 0 1 1 .001-3.001A1.5 1.5 0 0 1 23.5 18z" fill="#0b556e" class="fill-000000"></path></svg>